<?xml version="1.0" encoding="utf-8"?>
<!-- Generator: Adobe Illustrator 19.1.0, SVG Export Plug-In . SVG Version: 6.00 Build 0)  -->
<svg version="1.1" id="Layer_1" xmlns="http://www.w3.org/2000/svg" xmlns:xlink="http://www.w3.org/1999/xlink" x="0px" y="0px"
	 viewBox="0 0 51.8 56.7" style="enable-background:new 0 0 51.8 56.7;" xml:space="preserve">
<style type="text/css">
	.st0{fill:#FD5938;}
</style>
<g>
	<g>
		<g>
			<path class="st0" d="M32.2,56.7H20.6c-0.7,0-1.2-0.6-1.2-1.2V2.5c0-0.7,0.6-1.2,1.2-1.2h11.6c0.7,0,1.2,0.6,1.2,1.2v52.9
				C33.4,56.1,32.8,56.7,32.2,56.7z M21.8,54.2h9.1V3.8h-9.1V54.2z"/>
		</g>
		<g>
			<g>
				<path class="st0" d="M27.4,10.1h-6.6c-0.7,0-1.2-0.8-1.2-1.5s0.6-1.5,1.2-1.5h6.6c0.7,0,1.2,0.8,1.2,1.5S28.1,10.1,27.4,10.1z"
					/>
			</g>
			<g>
				<path class="st0" d="M24.1,16.1h-3.3c-0.7,0-1.2-0.3-1.2-1c0-0.7,0.6-1,1.2-1h3.3c0.7,0,1.2,0.3,1.2,1
					C25.3,15.8,24.8,16.1,24.1,16.1z"/>
			</g>
			<g>
				<path class="st0" d="M27.4,23.1h-6.6c-0.7,0-1.2-0.8-1.2-1.5s0.6-1.5,1.2-1.5h6.6c0.7,0,1.2,0.8,1.2,1.5S28.1,23.1,27.4,23.1z"
					/>
			</g>
			<g>
				<path class="st0" d="M24.1,30.1h-3.3c-0.7,0-1.2-0.8-1.2-1.5s0.6-1.5,1.2-1.5h3.3c0.7,0,1.2,0.8,1.2,1.5S24.8,30.1,24.1,30.1z"
					/>
			</g>
			<g>
				<path class="st0" d="M27.4,36.1h-6.6c-0.7,0-1.2-0.3-1.2-1s0.6-1,1.2-1h6.6c0.7,0,1.2,0.3,1.2,1S28.1,36.1,27.4,36.1z"/>
			</g>
			<g>
				<path class="st0" d="M24.1,43.1h-3.3c-0.7,0-1.2-0.8-1.2-1.5s0.6-1.5,1.2-1.5h3.3c0.7,0,1.2,0.8,1.2,1.5S24.8,43.1,24.1,43.1z"
					/>
			</g>
			<g>
				<path class="st0" d="M27.4,49.1h-6.6c-0.7,0-1.2-0.3-1.2-1s0.6-1,1.2-1h6.6c0.7,0,1.2,0.3,1.2,1S28.1,49.1,27.4,49.1z"/>
			</g>
		</g>
	</g>
	<g>
		<g>
			<g>
				<path class="st0" d="M49.7,47.1H38.1c-0.7,0-1.2-0.6-1.2-1.2V2.5c0-0.7,0.6-1.2,1.2-1.2h11.6c0.7,0,1.2,0.6,1.2,1.2v43.3
					C50.9,46.5,50.4,47.1,49.7,47.1z M39.4,44.6h9.1V3.8h-9.1V44.6z"/>
			</g>
			<g>
				<path class="st0" d="M43.9,56.7c-0.4,0-0.8-0.2-1.1-0.6l-5.8-9.6c-0.2-0.4-0.2-0.9,0-1.3c0.2-0.4,0.6-0.6,1.1-0.6h11.6
					c0.4,0,0.9,0.2,1.1,0.6c0.2,0.4,0.2,0.9,0,1.3L45,56.1C44.7,56.5,44.3,56.7,43.9,56.7z M40.3,47.1l3.6,6l3.6-6H40.3z"/>
			</g>
		</g>
		<g>
			<rect x="38.1" y="2.5" class="st0" width="11.6" height="3.1"/>
			<path class="st0" d="M49.7,6.9H38.1c-0.7,0-1.2-0.6-1.2-1.2V2.5c0-0.7,0.6-1.2,1.2-1.2h11.6c0.7,0,1.2,0.6,1.2,1.2v3.1
				C50.9,6.4,50.4,6.9,49.7,6.9z M39.4,4.4h9.1V3.8h-9.1V4.4z"/>
		</g>
	</g>
	<g>
		<g>
			<path class="st0" d="M14.6,44.4H3.1c-0.3,0-0.7-0.1-0.9-0.4c-0.2-0.3-0.4-0.6-0.3-0.9L4.5,2.5c0-0.7,0.6-1.2,1.2-1.2H12
				c0.7,0,1.2,0.5,1.2,1.2l2.6,40.6c0,0.3-0.1,0.7-0.3,0.9C15.3,44.3,15,44.4,14.6,44.4z M4.4,41.9h8.9L10.8,3.8h-4L4.4,41.9z"/>
		</g>
		<g>
			<path class="st0" d="M8.8,56.7c-0.3,0-0.6-0.1-0.8-0.3c-1-0.9-9.6-9.2-5.9-14c0.2-0.3,0.6-0.5,1-0.5h11.6c0.4,0,0.7,0.2,1,0.5
				c4.1,5-4.9,13.1-5.9,14C9.4,56.6,9.1,56.7,8.8,56.7z M3.8,44.4c-0.8,2.3,2.6,6.8,5.1,9.3c2.3-2.3,6.2-6.8,5.1-9.3H3.8z"/>
		</g>
	</g>
</g>
</svg>
