<?xml version="1.0" encoding="utf-8"?>
<!-- Generator: Adobe Illustrator 19.1.0, SVG Export Plug-In . SVG Version: 6.00 Build 0)  -->
<svg version="1.1" id="Layer_1" xmlns="http://www.w3.org/2000/svg" xmlns:xlink="http://www.w3.org/1999/xlink" x="0px" y="0px"
	 viewBox="0 0 84.7 95.8" style="enable-background:new 0 0 84.7 95.8;" xml:space="preserve">
<style type="text/css">
	.st0{fill:none;stroke:#FFFFFF;stroke-width:3;stroke-linecap:round;stroke-linejoin:round;stroke-miterlimit:10;}
</style>
<path class="st0" d="M82.8,49.3c-2.1-15.2-10.3-26.2-23.9-32.7C51.5,13,44.8,8.9,39.8,2.2c-0.2-0.2-0.4-0.4-0.8-0.7
	c-0.1,0.7-0.2,1.2-0.3,1.7c-0.7,4-2.3,7.4-5.9,9.5c-3.1,1.9-6.3,3.7-9.5,5.5C8.8,26.6,1,39,1.5,56.1C2,73.4,15.2,88.9,32.8,93.1
	c2.1,0.5,4.3,1.2,6.4,1.2c2.3,0,4.7,0,7,0c2.7,0,5.4-0.9,8.1-1.6C73.7,87.5,85.6,69.3,82.8,49.3z M73.1,73.9
	c-2.1,2.3-4.3,2.5-6.7,0.5c-2.4-2.1-4.6-4.4-6.9-6.5c-3.3-3.1-4.9-3.3-8.9-1.2c-3.6,1.9-7,4.1-10.6,6c-3.6,2-7.3,3.6-11.6,3.7
	c-2-0.4-4.1-0.6-6-1.3c-4.9-2-6.9-7.2-5.3-12.8c2.5-8.2,11.7-12.7,20.4-9.3c3.5,1.3,6.7,3.5,9.8,5.6c6.9,4.6,7.7,4.7,14.5,0.2
	c2.4-1.5,4.7-3.2,7.2-4.5c4.2-2.2,8.1-0.3,8.6,4.4C78.4,64.3,77,69.5,73.1,73.9z"/>
</svg>
