<?xml version="1.0" encoding="utf-8"?>
<!-- Generator: Adobe Illustrator 19.1.0, SVG Export Plug-In . SVG Version: 6.00 Build 0)  -->
<svg version="1.1" id="Layer_1" xmlns="http://www.w3.org/2000/svg" xmlns:xlink="http://www.w3.org/1999/xlink" x="0px" y="0px"
	 viewBox="0 0 57.5 57.6" style="enable-background:new 0 0 57.5 57.6;" xml:space="preserve">
<style type="text/css">
	.st0{fill:#FD5938;}
	.st1{opacity:0.4;}
	.st2{opacity:0.2;}
</style>
<g>
	<g>
		<path class="st0" d="M28.6,42.6c-7.3,0-13.3-6-13.3-13.3S21.3,16,28.6,16s13.3,6,13.3,13.3S35.9,42.6,28.6,42.6z M28.6,18.4
			c-6,0-10.8,4.9-10.8,10.8s4.9,10.8,10.8,10.8s10.8-4.9,10.8-10.8S34.6,18.4,28.6,18.4z"/>
	</g>
	<g class="st1">
		<path class="st0" d="M28.6,50.2c-11.5,0-20.9-9.4-20.9-20.9S17.1,8.4,28.6,8.4s20.9,9.4,20.9,20.9S40.1,50.2,28.6,50.2z
			 M28.6,10.8c-10.2,0-18.4,8.3-18.4,18.4s8.3,18.4,18.4,18.4S47,39.4,47,29.3S38.8,10.8,28.6,10.8z"/>
	</g>
	<g class="st2">
		<path class="st0" d="M28.6,57.6C13,57.6,0.2,44.9,0.2,29.3S13,0.9,28.6,0.9S57,13.6,57,29.3S44.3,57.6,28.6,57.6z M28.6,3.4
			C14.3,3.4,2.7,15,2.7,29.3s11.6,25.9,25.9,25.9s25.9-11.6,25.9-25.9S42.9,3.4,28.6,3.4z"/>
	</g>
</g>
</svg>
