<?xml version="1.0" encoding="utf-8"?>
<!-- Generator: Adobe Illustrator 19.1.0, SVG Export Plug-In . SVG Version: 6.00 Build 0)  -->
<svg version="1.1" id="Layer_1" xmlns="http://www.w3.org/2000/svg" xmlns:xlink="http://www.w3.org/1999/xlink" x="0px" y="0px"
	 viewBox="0 0 62.9 76.8" style="enable-background:new 0 0 62.9 76.8;" xml:space="preserve">
<style type="text/css">
	.st0{fill:none;stroke:#FFFFFF;stroke-width:3;stroke-linecap:round;stroke-linejoin:round;stroke-miterlimit:10;}
</style>
<g>
	<path class="st0" d="M52.7,27"/>
	<circle class="st0" cx="51.7" cy="10.8" r="1.5"/>
	<polygon class="st0" points="61.4,17.3 56.3,12.4 52.4,17.3 	"/>
	<path class="st0" d="M53.7,25.4c0,0-1.9-9.7-14.6-7.1C37.8,14,38,10.7,40.8,7.8c3.8-4.1,9.8-1.8,9.8-1.8l0-3.3
		c-2.1-0.9-4.1-1.1-6.3-1.1c-8.1,0-12.6,6.1-14.5,10.2l-22.8,42l6.4-1.2L1.5,75.3l8.3-1.5L16,55.8C33.9,55.8,56.9,49.4,53.7,25.4z"
		/>
</g>
</svg>
