<?xml version="1.0" encoding="utf-8"?>
<!-- Generator: Adobe Illustrator 19.1.0, SVG Export Plug-In . SVG Version: 6.00 Build 0)  -->
<svg version="1.1" id="Layer_1" xmlns="http://www.w3.org/2000/svg" xmlns:xlink="http://www.w3.org/1999/xlink" x="0px" y="0px"
	 viewBox="0 0 154.3 52.7" style="enable-background:new 0 0 154.3 52.7;" xml:space="preserve">
<style type="text/css">
	.st0{fill:#FFFFFF;}
</style>
<g>
	<g>
		<polygon class="st0" points="15.5,12.8 4.5,1.9 6.4,0 15.5,9.1 24.6,0 26.5,1.9 		"/>
		<polygon class="st0" points="24.6,31 15.5,21.9 6.4,31 4.5,29.2 15.5,18.2 26.5,29.2 		"/>
		<polygon class="st0" points="1.9,26.5 0,24.6 9.1,15.5 0,6.4 1.9,4.5 12.8,15.5 		"/>
		<polygon class="st0" points="29.2,26.5 18.2,15.5 29.2,4.5 31,6.4 21.9,15.5 31,24.6 		"/>
		<g>
			<path class="st0" d="M59.3,15c2.4-1.4,3.9-4,3.9-7c0-3.9-2.7-8-7.2-8H42.3V31h14.4c4.2,0,7.7-3.7,7.9-8.2
				C64.5,19.3,62.5,16.3,59.3,15 M56.7,29.5H43.8V16.1H57c3.3,0,6.1,3.1,6.1,6.7C63.1,26,60.4,29.5,56.7,29.5 M55.8,14.6h-12V1.5
				l12.3,0c3.3,0.1,5.8,2.9,5.8,6.6C61.8,11.2,59.4,14.6,55.8,14.6"/>
			<polygon class="st0" points="70.8,29.5 70.8,15.9 85.8,15.9 85.8,14.4 70.8,14.4 70.8,1.5 89.5,1.5 89.5,0 69.4,0 69.4,31 
				89.9,31 89.9,29.5 			"/>
			<path class="st0" d="M107.7,0.2L107.7,0h-1.2L93,31h1.6l4.7-10.9h15.5l4.7,10.9h1.6L107.7,0.2z M114.2,18.7H99.9l7.2-16.4
				L114.2,18.7z"/>
			<polygon class="st0" points="153.2,0 139.3,23.1 125.5,0 124.4,0 124.4,31 125.8,31 125.8,3.3 138.8,25 139.9,25 152.9,3.3 
				152.9,31 154.3,31 154.3,0 			"/>
			<polygon class="st0" points="52.5,50.5 52.5,52.6 42.3,52.6 42.3,37.8 52.3,37.8 52.3,39.9 44.6,39.9 44.6,44.1 50.8,44.1 
				50.8,46 44.6,46 44.6,50.5 			"/>
			<polygon class="st0" points="57.3,37.8 61.4,43.6 65.5,37.8 68.1,37.8 62.7,45.3 67.9,52.6 65.4,52.6 61.4,47 57.5,52.6 
				54.9,52.6 60.2,45.3 54.7,37.8 			"/>
			<path class="st0" d="M75.5,37.7c2.6,0,4.6,1.3,5.6,3.2l-1.8,1.2c-0.8-1.8-2.4-2.4-3.8-2.4c-3,0-4.6,2.8-4.6,5.4
				c0,2.9,2,5.4,4.7,5.4c1.4,0,3.1-0.7,3.9-2.4l1.9,1.1c-0.9,2.2-3.6,3.4-5.9,3.4c-4.1,0-7-3.9-7-7.6C68.4,41.5,71,37.7,75.5,37.7"
				/>
			<polygon class="st0" points="95.7,37.8 95.7,52.6 93.3,52.6 93.3,46.1 85.8,46.1 85.8,52.6 83.5,52.6 83.5,37.8 85.8,37.8 
				85.8,44 93.3,44 93.3,37.8 			"/>
			<path class="st0" d="M97.5,52.6l6-14.8h1.9l5.9,14.8h-2.5l-1.6-4h-5.7l-1.5,4H97.5z M104.4,40.4l-2.5,6.4h4.8L104.4,40.4z"/>
			<polygon class="st0" points="115.5,42.2 115.5,52.6 113.2,52.6 113.2,37.8 115,37.8 123.5,48.5 123.5,37.8 125.8,37.8 
				125.8,52.6 123.9,52.6 			"/>
			<path class="st0" d="M139.5,50.8c-1.2,1.3-2.6,1.9-4.2,1.9c-3.9,0-6.9-3.7-6.9-7.6c0-4,3-7.4,7-7.4c2.8,0,4.7,1.3,5.7,3.2
				l-1.8,1.3c-0.8-1.6-2.3-2.4-3.9-2.4c-2.7,0-4.5,2.6-4.5,5.4c0,3,2,5.4,4.7,5.4c1.5,0,2.8-0.7,4-2.2v-1.6h-3.1v-1.7h5.1v7.5h-2
				V50.8z"/>
			<polygon class="st0" points="154.3,50.5 154.3,52.6 144.1,52.6 144.1,37.8 154.1,37.8 154.1,39.9 146.5,39.9 146.5,44.1 
				152.6,44.1 152.6,46 146.5,46 146.5,50.5 			"/>
		</g>
	</g>
</g>
</svg>
