<?xml version="1.0" encoding="utf-8"?>
<!-- Generator: Adobe Illustrator 19.1.0, SVG Export Plug-In . SVG Version: 6.00 Build 0)  -->
<svg version="1.1" id="Layer_1" xmlns="http://www.w3.org/2000/svg" xmlns:xlink="http://www.w3.org/1999/xlink" x="0px" y="0px"
	 viewBox="0 0 113.7 68.2" style="enable-background:new 0 0 113.7 68.2;" xml:space="preserve">
<style type="text/css">
	.st0{fill:#FFFFFF;}
</style>
<g>
	<path class="st0" d="M15.6,5.9C15.3,2.4,12.4,0,8.3,0C3.4,0,0,3.7,0,9c0,5.3,3.4,9,8.3,9c4.2,0,7.1-2.8,7.4-7l-3.5,0
		c-0.2,2-1.3,4.1-3.9,4.1c-3.5,0-4.7-3.2-4.7-6c0-2.8,1.2-6,4.7-6c2,0,3.3,1,3.8,3.1L15.6,5.9z"/>
	<polygon class="st0" points="21.2,10 28.1,10 28.1,17.6 31.6,17.6 31.6,0.4 28.1,0.4 28.1,7 21.2,7 21.2,0.4 17.6,0.4 17.6,17.6 
		21.2,17.6 	"/>
	<path class="st0" d="M38,13.2h6.2l1.6,4.4h3.8L42.9,0.4h-3.5l-6.6,17.2h3.7L38,13.2z M43.2,10.4H39l2.1-5.9L43.2,10.4z"/>
	<polygon class="st0" points="52.3,17.6 55.9,17.6 55.9,3.4 61.1,3.4 61.1,0.4 47.1,0.4 47.1,3.4 52.3,3.4 	"/>
	<polygon class="st0" points="66.4,10 73.3,10 73.3,17.6 76.8,17.6 76.8,0.4 73.3,0.4 73.3,7 66.4,7 66.4,0.4 62.9,0.4 62.9,17.6 
		66.4,17.6 	"/>
	<path class="st0" d="M84.6,0.4L78,17.6h3.7l1.6-4.4h6.2l1.6,4.4h3.8L88.1,0.4H84.6z M88.4,10.4h-4.2l2.1-5.9L88.4,10.4z"/>
	<polygon class="st0" points="109.1,0.4 104.8,10.9 100.4,0.4 95.8,0.4 95.8,17.6 99.2,17.6 99.2,6 103.3,15.6 106.1,15.6 110.3,6 
		110.3,17.6 113.7,17.6 113.7,0.4 	"/>
	<polygon class="st0" points="11.4,29.3 4.5,29.3 4.5,22.7 1,22.7 1,39.9 4.5,39.9 4.5,32.4 11.4,32.4 11.4,39.9 15,39.9 15,22.7 
		11.4,22.7 	"/>
	<path class="st0" d="M25.5,22.3c-4.9,0-8.2,3.7-8.2,9c0,5.3,3.4,9,8.2,9c4.9,0,8.3-3.7,8.3-9C33.8,26,30.4,22.3,25.5,22.3z
		 M25.5,37.3c-3.5,0-4.7-3.2-4.7-6c0-2.8,1.2-6,4.7-6c3.5,0,4.7,3.2,4.7,6C30.3,34.1,29,37.3,25.5,37.3z"/>
	<path class="st0" d="M46.8,32.7c0,2.5-0.3,4.5-3.6,4.5c-3.3,0-3.6-2-3.6-4.5v-10h-3.5v10.9c0,4.2,2.6,6.7,7.1,6.7
		c4.5,0,7.1-2.4,7.1-6.7V22.7h-3.5L46.8,32.7L46.8,32.7z"/>
	<path class="st0" d="M52.5,34.1c0.1,3.9,2.8,6.2,7.2,6.2c3.2,0,6.9-1.4,6.9-5.5c0-1.6-0.9-3.8-3.5-4.5C62.3,30,58.6,29,58.4,29
		c-1.2-0.3-1.7-0.9-1.7-1.8c0-1.7,2.1-1.8,2.7-1.8c2.1,0,3.1,0.8,3.2,2.6h3.5c0-3.4-2.7-5.6-6.7-5.6c-3.1,0-6.4,1.6-6.4,5.2
		c0,1.6,0.7,3.6,3.9,4.5c0.8,0.2,1.5,0.4,2.2,0.6c1.1,0.3,2,0.5,2.7,0.8c0.5,0.2,1.2,0.6,1.2,1.7c0,1.4-1.2,2.2-3.2,2.2
		c-1.5,0-3.9-0.4-3.9-3.2L52.5,34.1L52.5,34.1z"/>
	<polygon class="st0" points="72.4,32.6 80.8,32.6 80.8,29.6 72.4,29.6 72.4,25.9 81.5,25.9 81.5,22.7 68.9,22.7 68.9,39.9 
		81.6,39.9 81.6,36.8 72.4,36.8 	"/>
	<g>
		<g>
			<path class="st0" d="M6.9,46.8v1.9H6.2l-0.2-1.2l-0.2-0.2H4.1v7l0.2,0.2l0.8,0.1v0.5H1.9v-0.5l0.8-0.1L3,54.4v-7H1.2L1,47.6
				l-0.2,1.2H0.1v-1.9H6.9z"/>
			<path class="st0" d="M9.2,46v3.8c1-0.6,1.5-0.7,2.1-0.7c1,0,1.6,0.7,1.6,1.9v3.5l0.2,0.2l0.7,0.1v0.4H11v-0.4l0.6-0.1l0.2-0.2
				v-3.3c0-0.9-0.4-1.3-1.2-1.3c-0.4,0-0.8,0.1-1.4,0.4v4.2l0.2,0.2l0.6,0.1v0.4H7.3v-0.4L8,54.6l0.2-0.2v-7.6H7.4v-0.4L8.7,46H9.2z
				"/>
			<path class="st0" d="M19.5,54.5c-0.8,0.5-1.5,0.7-2.3,0.7c-1.7,0-2.8-1.2-2.8-3c0-1.8,1.2-3.1,2.9-3.1c1.4,0,2.2,0.9,2.2,2.4
				c0,0.1,0,0.2,0,0.4h-4c0,0.6,0,0.8,0.1,1.2c0.3,0.9,1,1.5,1.9,1.5c0.6,0,1.1-0.2,2-0.7L19.5,54.5L19.5,54.5z M18.4,51.4
				c0-0.6,0-0.8-0.2-1.1c-0.2-0.4-0.6-0.6-1.1-0.6c-0.9,0-1.5,0.6-1.6,1.7H18.4z"/>
			<path class="st0" d="M25.8,46.8c2,0,3,0.7,3,2.2c0,1.1-0.6,1.8-2,2.1c1,0.3,1.4,0.7,1.7,1.9c0.3,1.4,0.6,1.6,1.9,1.6v0.5
				c-0.5,0.1-0.7,0.1-1,0.1c-1.2,0-1.6-0.4-2-1.9c-0.2-0.9-0.4-1.2-0.6-1.5c-0.3-0.3-0.7-0.5-1.5-0.5c-0.2,0-0.2,0-0.7,0v2.9
				l0.2,0.2l0.7,0.1v0.5h-3v-0.5l0.7-0.1l0.2-0.2v-6.8l-0.2-0.2l-0.7-0.1v-0.5H25.8L25.8,46.8z M24.6,50.9c0.4,0,0.6,0,0.7,0
				c1.5,0,2.1-0.5,2.1-1.7c0-1.2-0.7-1.7-2.3-1.7h-0.6L24.6,50.9L24.6,50.9z"/>
			<path class="st0" d="M36.3,52.2c0,1.8-1.2,3.1-2.9,3.1c-1.7,0-2.9-1.3-2.9-3.1c0-1.8,1.2-3.1,2.9-3.1
				C35.1,49.1,36.3,50.4,36.3,52.2z M31.7,52.2c0,1.5,0.7,2.6,1.7,2.6c1,0,1.7-1,1.7-2.5c0-1.6-0.7-2.6-1.7-2.6
				C32.3,49.6,31.7,50.6,31.7,52.2z"/>
			<path class="st0" d="M39.2,49.2v0.4l-0.7,0.1l-0.1,0.2l1.5,3.9l1.5-3.9l-0.1-0.2l-0.7-0.1v-0.4h2.2v0.4l-0.7,0.1l-2.5,6
				c-0.6,1.4-1.2,2.1-2,2.1c-0.5,0-0.9-0.3-0.9-0.7c0-0.2,0.1-0.4,0.3-0.7l1.2,0.5c0.4-0.4,0.7-1,1-1.9l-2.1-5.4l-0.8-0.1v-0.4
				L39.2,49.2L39.2,49.2z"/>
			<path class="st0" d="M46.5,54.4c-0.9,0.6-1.4,0.8-2,0.8c-0.9,0-1.6-0.6-1.6-1.6c0-0.7,0.4-1.2,1.2-1.6c0.6-0.2,0.9-0.3,2.4-0.7
				V51c0-1-0.3-1.4-1.1-1.4c-0.3,0-0.6,0-1,0.2v1h-0.9c-0.3,0-0.4-0.1-0.4-0.4c0-0.8,1-1.4,2.5-1.4c1.3,0,1.9,0.5,1.9,1.8v3.6
				l0.2,0.2l0.7,0.1v0.4h-1.7L46.5,54.4z M46.5,51.8c-1.1,0.3-1.3,0.4-1.7,0.6C44.3,52.7,44,53,44,53.5c0,0.6,0.4,1,1,1
				c0.4,0,0.8-0.1,1.6-0.6L46.5,51.8L46.5,51.8z"/>
			<path class="st0" d="M49,54.7l0.7-0.1l0.2-0.2v-7.6h-1v-0.4l1.5-0.4H51v8.4l0.2,0.2l0.7,0.1v0.4H49L49,54.7L49,54.7L49,54.7z"/>
			<path class="st0" d="M55.3,54.6l0.8-0.1l0.2-0.2v-6.8l-0.2-0.2l-0.8-0.1v-0.5h3.1v0.5l-0.8,0.1l-0.2,0.2v6.8l0.2,0.2l0.8,0.1v0.5
				h-3.1V54.6z"/>
			<path class="st0" d="M59.3,54.7l0.7-0.1l0.2-0.2V50h-0.9v-0.4l1.4-0.4h0.5v0.7c1.1-0.6,1.5-0.7,2.1-0.7c1,0,1.6,0.7,1.6,1.9v3.5
				l0.2,0.2l0.7,0.1v0.4H63v-0.4l0.6-0.1l0.2-0.2v-3.3c0-0.9-0.4-1.3-1.2-1.3c-0.5,0-0.8,0.1-1.5,0.4v4.2l0.2,0.2l0.6,0.1v0.4h-2.7
				L59.3,54.7L59.3,54.7z"/>
			<path class="st0" d="M70.2,50.7h-0.6l-0.1-0.9c-0.4-0.2-0.6-0.2-0.9-0.2c-0.6,0-1,0.3-1,0.9c0,0.5,0.3,0.8,1.1,1.2
				c0.9,0.4,1.1,0.5,1.3,0.8c0.3,0.2,0.4,0.6,0.4,1c0,1.2-0.9,1.9-2.3,1.9c-0.6,0-1.1-0.1-1.6-0.3v-1.6h0.6l0.1,1.1
				c0.4,0.2,0.7,0.3,1.1,0.3c0.7,0,1.1-0.4,1.1-1c0-0.3-0.1-0.6-0.4-0.7c-0.2-0.1-0.3-0.2-0.9-0.5c-1.3-0.6-1.6-0.9-1.6-1.7
				c0-1.1,0.8-1.7,2.2-1.7c0.6,0,1,0.1,1.5,0.3L70.2,50.7L70.2,50.7z"/>
			<path class="st0" d="M71.2,49.9v-0.4l0.8-0.4l0.5-1.2H73v1.3h1.9v0.6H73v3.3c0,1,0.2,1.4,1,1.4c0.3,0,0.6,0,0.9-0.1v0.5
				c-0.7,0.2-1.1,0.3-1.6,0.3c-0.9,0-1.3-0.3-1.3-1.3v-4L71.2,49.9L71.2,49.9z"/>
			<path class="st0" d="M77.3,49.1v5.3l0.2,0.2l0.7,0.1v0.4h-2.8v-0.4l0.7-0.1l0.2-0.2V50h-0.9v-0.4l1.4-0.4H77.3z M77.6,47.1
				c0,0.4-0.3,0.7-0.7,0.7c-0.4,0-0.7-0.3-0.7-0.7c0-0.4,0.3-0.7,0.7-0.7C77.3,46.4,77.6,46.7,77.6,47.1z"/>
			<path class="st0" d="M78.8,49.9v-0.4l0.8-0.4l0.5-1.2h0.5v1.3h1.9v0.6h-1.9v3.3c0,1,0.2,1.4,1,1.4c0.3,0,0.6,0,0.9-0.1v0.5
				c-0.7,0.2-1.1,0.3-1.6,0.3c-0.9,0-1.3-0.3-1.3-1.3v-4L78.8,49.9L78.8,49.9z"/>
			<path class="st0" d="M84.8,49.1v4.1c0,0.9,0.4,1.3,1.2,1.3c0.5,0,0.9-0.1,1.4-0.4v-4.2h-0.9v-0.4l1.4-0.5h0.5v5.4l0.2,0.2
				l0.6,0.1v0.4h-1.8v-0.7c-0.9,0.6-1.4,0.8-2,0.8c-1,0-1.6-0.7-1.6-1.9v-3.5h-0.9v-0.4l1.4-0.5H84.8z"/>
			<path class="st0" d="M90,49.9v-0.4l0.8-0.4l0.5-1.2h0.5v1.3h1.9v0.6h-1.9v3.3c0,1,0.2,1.4,1,1.4c0.3,0,0.6,0,0.9-0.1v0.5
				c-0.7,0.2-1.1,0.3-1.6,0.3c-0.9,0-1.3-0.3-1.3-1.3v-4L90,49.9L90,49.9z"/>
			<path class="st0" d="M99.2,54.5c-0.8,0.5-1.5,0.7-2.3,0.7c-1.7,0-2.8-1.2-2.8-3c0-1.8,1.2-3.1,2.9-3.1c1.4,0,2.2,0.9,2.2,2.4
				c0,0.1,0,0.2,0,0.4h-4c0,0.6,0,0.8,0.1,1.2c0.3,0.9,1,1.5,1.9,1.5c0.6,0,1.1-0.2,2-0.7L99.2,54.5L99.2,54.5z M98.1,51.4
				c0-0.6,0-0.8-0.2-1.1c-0.2-0.4-0.6-0.6-1.1-0.6c-0.9,0-1.5,0.6-1.6,1.7H98.1z"/>
			<path class="st0" d="M108.7,52.2c0,1.8-1.2,3.1-2.9,3.1c-1.7,0-2.9-1.3-2.9-3.1c0-1.8,1.2-3.1,2.9-3.1
				C107.5,49.1,108.7,50.4,108.7,52.2z M104.1,52.2c0,1.5,0.7,2.6,1.7,2.6c1,0,1.7-1,1.7-2.5c0-1.6-0.7-2.6-1.7-2.6
				C104.8,49.6,104.1,50.6,104.1,52.2z"/>
			<path class="st0" d="M109.3,54.7l0.7-0.1l0.2-0.2v-4.5h-0.8v-0.4l0.8-0.2c0-0.8,0.1-1.3,0.3-1.8c0.4-1,1.2-1.6,2.2-1.6
				c0.6,0,1,0.3,1,0.7c0,0.3-0.2,0.5-0.5,0.6l-1.1-0.7c-0.6,0.3-0.8,0.9-0.8,1.9v0.9h1.7v0.6h-1.7v4.5l0.2,0.2l0.8,0.1v0.4h-2.9
				L109.3,54.7L109.3,54.7z"/>
		</g>
	</g>
	<g>
		<g>
			<path class="st0" d="M1,67.6l0.8-0.1L2,67.4v-6.8l-0.2-0.2L1,60.3v-0.5h3.1v0.5l-0.8,0.1l-0.2,0.2v6.8l0.2,0.2l0.8,0.1v0.5H1
				V67.6z"/>
			<path class="st0" d="M5.1,67.7l0.7-0.1L6,67.4v-4.5H5.1v-0.4l1.4-0.4H7v0.7C8.1,62.2,8.5,62,9,62c1,0,1.6,0.7,1.6,1.9v3.5
				l0.2,0.2l0.7,0.1v0.4H8.8v-0.4l0.6-0.1l0.2-0.2v-3.3c0-0.9-0.4-1.3-1.2-1.3c-0.5,0-0.8,0.1-1.5,0.4v4.2l0.2,0.2l0.6,0.1v0.4H5.1
				V67.7z"/>
			<path class="st0" d="M12.2,62.9v-0.4l0.8-0.4l0.5-1.2H14v1.3h1.9v0.6H14v3.3c0,1,0.2,1.4,1,1.4c0.3,0,0.6,0,0.9-0.1v0.5
				c-0.7,0.2-1.1,0.3-1.6,0.3c-0.9,0-1.3-0.3-1.3-1.3v-4L12.2,62.9L12.2,62.9z"/>
			<path class="st0" d="M21.7,67.5c-0.8,0.5-1.5,0.7-2.3,0.7c-1.7,0-2.8-1.2-2.8-3c0-1.8,1.2-3.1,2.9-3.1c1.4,0,2.2,0.9,2.2,2.4
				c0,0.1,0,0.2,0,0.4h-4c0,0.6,0,0.8,0.1,1.2c0.3,0.9,1,1.5,1.9,1.5c0.6,0,1.1-0.2,2-0.7V67.5z M20.6,64.3c0-0.6,0-0.8-0.2-1.1
				c-0.2-0.4-0.6-0.6-1.1-0.6c-0.9,0-1.5,0.6-1.6,1.7H20.6z"/>
			<path class="st0" d="M22.7,67.7l0.7-0.1l0.2-0.2v-4.5h-0.9v-0.4l1.4-0.4h0.5v1.2c0.4-0.4,0.8-0.8,1.3-1.2c0.1,0,0.2,0,0.3,0
				c0.3,0,0.4,0,0.8,0.2v1.1h-0.4c-0.2-0.2-0.4-0.3-0.6-0.3c-0.4,0-0.8,0.3-1.4,0.9v3.5l0.2,0.2l0.9,0.1v0.4h-3L22.7,67.7L22.7,67.7
				z"/>
			<path class="st0" d="M27.9,67.7l0.7-0.1l0.2-0.2v-4.5h-0.9v-0.4l1.4-0.4h0.5v0.7c1.1-0.6,1.5-0.7,2.1-0.7c1,0,1.6,0.7,1.6,1.9
				v3.5l0.2,0.2l0.7,0.1v0.4h-2.7v-0.4l0.6-0.1l0.2-0.2v-3.3c0-0.9-0.4-1.3-1.2-1.3c-0.5,0-0.8,0.1-1.5,0.4v4.2l0.2,0.2l0.6,0.1v0.4
				h-2.7L27.9,67.7L27.9,67.7L27.9,67.7z"/>
			<path class="st0" d="M38.9,67.4c-0.9,0.6-1.4,0.8-2,0.8c-0.9,0-1.6-0.6-1.6-1.6c0-0.7,0.4-1.2,1.2-1.6c0.6-0.2,0.9-0.3,2.4-0.7
				v-0.4c0-1-0.3-1.4-1.1-1.4c-0.3,0-0.6,0-1,0.2v1h-0.9c-0.3,0-0.4-0.1-0.4-0.4c0-0.8,1-1.4,2.5-1.4c1.3,0,1.9,0.5,1.9,1.8v3.6
				l0.2,0.2l0.7,0.1v0.4H39L38.9,67.4z M38.9,64.8c-1.1,0.3-1.3,0.4-1.7,0.6c-0.6,0.3-0.9,0.6-0.9,1.1c0,0.6,0.4,1,1,1
				c0.4,0,0.8-0.1,1.6-0.6L38.9,64.8L38.9,64.8z"/>
			<path class="st0" d="M41.5,62.9v-0.4l0.8-0.4l0.5-1.2h0.5v1.3h1.9v0.6h-1.9v3.3c0,1,0.2,1.4,1,1.4c0.3,0,0.6,0,0.9-0.1v0.5
				c-0.7,0.2-1.1,0.3-1.6,0.3c-0.9,0-1.3-0.3-1.3-1.3v-4L41.5,62.9L41.5,62.9z"/>
			<path class="st0" d="M47.8,62.1v5.3l0.2,0.2l0.7,0.1v0.4h-2.8v-0.4l0.7-0.1l0.2-0.2v-4.5h-0.9v-0.4l1.4-0.4L47.8,62.1L47.8,62.1z
				 M48.1,60c0,0.4-0.3,0.7-0.7,0.7c-0.4,0-0.7-0.3-0.7-0.7c0-0.4,0.3-0.7,0.7-0.7C47.8,59.3,48.1,59.6,48.1,60z"/>
			<path class="st0" d="M55.3,65.1c0,1.8-1.2,3.1-2.9,3.1c-1.7,0-2.9-1.3-2.9-3.1c0-1.8,1.2-3.1,2.9-3.1
				C54.1,62,55.3,63.3,55.3,65.1z M50.7,65.1c0,1.5,0.7,2.6,1.7,2.6c1,0,1.7-1,1.7-2.5c0-1.6-0.7-2.6-1.7-2.6
				C51.4,62.6,50.7,63.6,50.7,65.1z"/>
			<path class="st0" d="M56.3,67.7l0.7-0.1l0.2-0.2v-4.5h-0.9v-0.4l1.4-0.4h0.5v0.7c1.1-0.6,1.5-0.7,2.1-0.7c1,0,1.6,0.7,1.6,1.9
				v3.5l0.2,0.2l0.7,0.1v0.4h-2.7v-0.4l0.6-0.1l0.2-0.2v-3.3c0-0.9-0.4-1.3-1.2-1.3c-0.5,0-0.8,0.1-1.5,0.4v4.2l0.2,0.2l0.6,0.1v0.4
				h-2.7L56.3,67.7L56.3,67.7L56.3,67.7z"/>
			<path class="st0" d="M67.3,67.4c-0.9,0.6-1.4,0.8-2,0.8c-0.9,0-1.6-0.6-1.6-1.6c0-0.7,0.4-1.2,1.2-1.6c0.6-0.2,0.9-0.3,2.4-0.7
				v-0.4c0-1-0.3-1.4-1.1-1.4c-0.3,0-0.6,0-1,0.2v1h-0.9c-0.3,0-0.4-0.1-0.4-0.4c0-0.8,1-1.4,2.5-1.4c1.3,0,1.9,0.5,1.9,1.8v3.6
				l0.2,0.2l0.7,0.1v0.4h-1.7L67.3,67.4z M67.3,64.8c-1.1,0.3-1.3,0.4-1.7,0.6c-0.6,0.3-0.9,0.6-0.9,1.1c0,0.6,0.4,1,1,1
				c0.4,0,0.8-0.1,1.6-0.6L67.3,64.8L67.3,64.8z"/>
			<path class="st0" d="M70,67.7l0.7-0.1l0.2-0.2v-7.6h-1v-0.4l1.5-0.4h0.5v8.4l0.2,0.2l0.7,0.1v0.4H70L70,67.7L70,67.7z"/>
			<path class="st0" d="M80.7,59.7l3,7.8l0.7,0.1v0.5h-2.8v-0.5l0.8-0.1l0.1-0.2L81.5,65h-2.9l-0.9,2.4l0.1,0.2l0.8,0.1v0.5h-2.4
				v-0.5l0.7-0.1l2.9-7.8H80.7z M78.8,64.4h2.5L80,61L78.8,64.4z"/>
			<path class="st0" d="M84.8,67.7l0.7-0.1l0.2-0.2v-4.5h-0.8v-0.4l0.8-0.2c0-0.8,0.1-1.3,0.3-1.8c0.4-1,1.2-1.6,2.2-1.6
				c0.6,0,1,0.3,1,0.7c0,0.3-0.2,0.5-0.5,0.6l-1.1-0.7c-0.6,0.3-0.8,0.9-0.8,1.9v0.9h1.7v0.6h-1.7v4.5l0.2,0.2l0.8,0.1v0.4h-2.9
				L84.8,67.7L84.8,67.7z"/>
			<path class="st0" d="M89.2,67.7l0.7-0.1l0.2-0.2v-4.5h-0.8v-0.4l0.8-0.2c0-0.8,0.1-1.3,0.3-1.8c0.4-1,1.2-1.6,2.2-1.6
				c0.6,0,1,0.3,1,0.7c0,0.3-0.2,0.5-0.5,0.6l-1.1-0.7c-0.6,0.3-0.8,0.9-0.8,1.9v0.9h1.7v0.6h-1.7v4.5l0.2,0.2l0.8,0.1v0.4h-2.9
				V67.7z"/>
			<path class="st0" d="M97.1,67.4c-0.9,0.6-1.4,0.8-2,0.8c-0.9,0-1.6-0.6-1.6-1.6c0-0.7,0.4-1.2,1.2-1.6c0.6-0.2,0.9-0.3,2.4-0.7
				v-0.4c0-1-0.3-1.4-1.1-1.4c-0.3,0-0.6,0-1,0.2v1h-0.9c-0.3,0-0.4-0.1-0.4-0.4c0-0.8,1-1.4,2.5-1.4c1.3,0,1.9,0.5,1.9,1.8v3.6
				l0.2,0.2l0.7,0.1v0.4h-1.7L97.1,67.4z M97.1,64.8c-1.1,0.3-1.3,0.4-1.7,0.6c-0.6,0.3-0.9,0.6-0.9,1.1c0,0.6,0.4,1,1,1
				c0.4,0,0.8-0.1,1.6-0.6L97.1,64.8L97.1,64.8z"/>
			<path class="st0" d="M101.8,62.1v5.3l0.2,0.2l0.7,0.1v0.4h-2.8v-0.4l0.7-0.1l0.2-0.2v-4.5h-0.9v-0.4l1.4-0.4L101.8,62.1
				L101.8,62.1z M102,60c0,0.4-0.3,0.7-0.7,0.7c-0.4,0-0.7-0.3-0.7-0.7c0-0.4,0.3-0.7,0.7-0.7C101.7,59.3,102,59.6,102,60z"/>
			<path class="st0" d="M103.4,67.7l0.7-0.1l0.2-0.2v-4.5h-0.9v-0.4l1.4-0.4h0.5v1.2c0.4-0.4,0.8-0.8,1.3-1.2c0.1,0,0.2,0,0.3,0
				c0.3,0,0.4,0,0.8,0.2v1.1h-0.4c-0.2-0.2-0.4-0.3-0.6-0.3c-0.4,0-0.8,0.3-1.4,0.9v3.5l0.2,0.2l0.9,0.1v0.4h-3V67.7z"/>
			<path class="st0" d="M112.3,63.7h-0.6l-0.1-0.9c-0.4-0.2-0.6-0.2-0.9-0.2c-0.6,0-1,0.3-1,0.9c0,0.5,0.3,0.8,1.1,1.2
				c0.9,0.4,1.1,0.5,1.3,0.8c0.3,0.2,0.4,0.6,0.4,1c0,1.2-0.9,1.9-2.3,1.9c-0.6,0-1.1-0.1-1.6-0.3v-1.6h0.6l0.1,1.1
				c0.4,0.2,0.7,0.3,1.1,0.3c0.7,0,1.1-0.4,1.1-1c0-0.3-0.1-0.6-0.4-0.7c-0.2-0.1-0.3-0.2-0.9-0.5c-1.3-0.6-1.6-0.9-1.6-1.7
				c0-1.1,0.8-1.7,2.2-1.7c0.6,0,1,0.1,1.5,0.3V63.7z"/>
		</g>
	</g>
</g>
</svg>
