<?xml version="1.0" encoding="utf-8"?>
<!-- Generator: Adobe Illustrator 19.1.0, SVG Export Plug-In . SVG Version: 6.00 Build 0)  -->
<svg version="1.1" id="Layer_1" xmlns="http://www.w3.org/2000/svg" xmlns:xlink="http://www.w3.org/1999/xlink" x="0px" y="0px"
	 viewBox="0 0 186.4 46.8" style="enable-background:new 0 0 186.4 46.8;" xml:space="preserve">
<style type="text/css">
	.st0{fill:#FFFFFF;}
</style>
<g>
	<path class="st0" d="M151.1,21.5v1h1.7c-0.5,1.1-1.2,2.4-2,3.5c-0.8-1.3-1.7-2.4-3-3.7c2-1,2.8-2,2.8-3.5c0-1.3-1.1-2.6-3-2.6
		s-3.5,1.3-3.5,3.2c0,1,0.5,2,1.4,2.9c-2.4,1-3.5,2.3-3.5,4c0,1.8,1.4,3.5,4,3.5c1.6,0,2.9-0.7,4-1.9c0.9,1.4,1.6,1.9,2.6,1.9
		c1.3,0,2.2-0.9,2.6-2.3l-0.8-0.4c-0.5,0.9-0.9,1.3-1.3,1.3c-0.7,0-1-0.4-1.9-1.7c1.1-1.4,2-2.9,2.6-4.3h1.6v-1L151.1,21.5
		L151.1,21.5z M149.6,27.1c-0.9,0.9-1.9,1.5-3,1.5c-1.7,0-2.7-1.2-2.7-2.5c0-1.4,0.8-2.3,2.3-3.1C147.9,24.6,148.7,25.7,149.6,27.1
		 M147.1,21.8c-1.2-1.1-1.5-2-1.5-2.7c0-1,0.7-1.8,1.8-1.8c1,0,1.6,0.9,1.6,1.8C149.1,20.1,148.4,21,147.1,21.8"/>
	<path class="st0" d="M88,22.5c0-4.1,2.9-7.2,6.5-7.2c1.8,0,3.1,0.7,3.9,1.7l0.4-1.6h1.1v5.3H99c-0.9-2.6-2.3-4.1-4.5-4.1
		c-2.6,0-4.4,2.1-4.4,5.9c0,4,1.9,6.2,4.7,6.2c2.4,0,4-1.9,4.4-4.5h1.2c-0.4,3.7-2.6,5.7-5.9,5.7C90.6,29.9,88,26.9,88,22.5
		 M122.6,27.2c0,1.5,1,2.5,2.7,2.5c1.3,0,2.5-0.8,3.2-1.8h0.1c0,1.2,0.8,1.8,1.6,1.8c0.9,0,1.5-0.5,2-1.6l-0.7-0.4
		c-0.2,0.6-0.5,0.9-0.9,0.9c-0.5,0-0.7-0.2-0.7-0.9v-5c0-2-1.1-2.9-3.4-2.9c-2,0-3.8,0.9-3.8,2.3c0,0.7,0.5,1.1,1.1,1.1
		c0.7,0,1.1-0.5,1.1-1.1c0-0.5-0.2-0.8-0.6-0.9c0.5-0.4,1.1-0.6,1.8-0.6c1.3,0,2,0.5,2,1.9v0.9c0,0.4-0.2,0.4-1.5,0.6
		c-1.9,0.3-2.9,0.6-3.7,1.3C122.9,25.9,122.6,26.6,122.6,27.2 M128.4,26.5c0,1.1-1.2,2.1-2.3,2.1s-1.7-0.6-1.7-1.7
		c0-1.3,0.8-1.7,2.9-2.1c0.5-0.1,0.9-0.2,1-0.2L128.4,26.5 M120.3,28.4v-5.6c0-2-0.9-3-2.6-3c-1.2,0-2.4,0.7-3.6,2.6V20h-3.2v1.1
		h1.6v7.3h-0.8c-0.2,0.5-0.5,0.9-0.7,1.1h4.5v-1.1h-1.4v-4.1c0-1.6,1.3-3.1,2.7-3.1c0.5,0,0.9,0.1,1.2,0.5c0.4,0.4,0.6,1.1,0.6,2
		v4.9h-1.5v1.1h4.7v-1.1L120.3,28.4L120.3,28.4L120.3,28.4z M101.2,27.2c0,1.5,1,2.5,2.7,2.5c1.3,0,2.5-0.8,3.2-1.8h0.1
		c0,1.2,0.8,1.8,1.6,1.8c0.9,0,1.5-0.5,2-1.6l-0.7-0.4c-0.2,0.6-0.5,0.9-0.9,0.9c-0.5,0-0.7-0.2-0.7-0.9v-5c0-2-1.1-2.9-3.4-2.9
		c-2,0-3.8,0.9-3.8,2.3c0,0.7,0.5,1.1,1.1,1.1c0.7,0,1.1-0.5,1.1-1.1c0-0.5-0.2-0.8-0.6-0.9c0.5-0.4,1.1-0.6,1.8-0.6
		c1.3,0,2,0.5,2,1.9v0.9c0,0.4-0.2,0.4-1.5,0.6c-1.9,0.3-2.9,0.6-3.7,1.3C101.5,25.9,101.2,26.6,101.2,27.2 M107,26.5
		c0,1.1-1.2,2.1-2.3,2.1S103,28,103,26.9c0-1.3,0.8-1.7,2.9-2.1c0.5-0.1,0.9-0.2,1-0.2L107,26.5 M137.7,28.4h-1.8V14.9h-3.5V16h1.8
		v12.4h-1c-0.2,0.5-0.5,0.9-0.7,1.1h5.2L137.7,28.4L137.7,28.4z M141.4,46.5h6.7v-1.1h-2.4V33.6h1.9c1.6,0,1.8,0.6,2.4,3.3h0.9v-4.3
		h-12.3v4.3h0.9c0.7-2.7,0.9-3.3,2.4-3.3h1.9v11.7h-2.4V46.5z M151.5,46.5h5.2v-1.1h-1.9v-5.2c0.3-1,1.1-2.3,2.2-2.3
		c-0.1,0.1-0.1,0.3-0.1,0.4c0,0.7,0.5,1.1,1.1,1.1c0.7,0,1.1-0.6,1.1-1.2c0-0.9-0.6-1.5-1.6-1.5c-1.1,0-2.3,0.8-2.9,2.3v-2.3h-3.2
		v1.1h1.6v7.3h-1.6v1.2L151.5,46.5L151.5,46.5z M171.3,46.7h0.9l0.2-1.3c0.7,0.9,1.7,1.3,3,1.3c2.1,0,3.3-1.5,3.3-2.9
		c0-1.6-0.9-2.3-3.3-2.9c-1.8-0.5-2.5-0.9-2.5-1.9c0-0.9,0.9-1.4,1.7-1.4c1.4,0,2.1,0.9,2.7,2.4h0.9v-3.3h-0.9l-0.3,1.1
		c-0.5-0.8-1.4-1.1-2.4-1.1c-1.9,0-3.2,1.3-3.2,2.7c0,1.5,0.9,2.3,3.3,2.9c1.9,0.6,2.6,0.9,2.6,1.9c0,1-0.7,1.5-1.9,1.5
		c-1.5,0-2.6-1-3.2-2.7h-0.9L171.3,46.7L171.3,46.7z M181.1,34.5V37h-2v1h2v6.1c0,1.6,0.9,2.6,2.4,2.6c1.2,0,2.3-0.7,2.8-2.5
		l-0.8-0.3c-0.4,1.1-0.9,1.7-1.6,1.7c-0.9,0-1.2-0.6-1.2-1.5v-6h3.1v-1h-3.1v-2.7L181.1,34.5L181.1,34.5z M92.1,40.3h2.6
		c2.1,0,2.5,0.7,2.6,2.3v1.7c0,2,1,2.4,2.2,2.4c1.1,0,1.8-0.8,2.3-1.9l-0.8-0.4c-0.3,0.7-0.6,1-1,1c-0.5,0-0.7-0.3-0.8-0.9l-0.1-1.8
		c-0.1-1.6-0.8-2.5-2.7-3v-0.1c2.4-0.5,3.4-2,3.4-3.4c0-2-1.4-3.6-5.1-3.6H88v1h2.3v11.6H88v1.1h6.5v-1.1h-2.3L92.1,40.3L92.1,40.3z
		 M92.1,39.3v-5.5h2.8c2.1,0,2.9,0.9,2.9,2.5c0,1.8-0.9,3-3.2,3L92.1,39.3L92.1,39.3z M111.3,46.7h1.3l3.5-8.5h1.1V37h-3.9v1.1h1.5
		l-2.5,6.8h-0.1l-2.4-6.8h1.7V37h-4.8v1.1h1.3L111.3,46.7z M125.5,41.8c0.1-2.5-1.1-5.1-3.9-5.1c-2.5,0-4.5,2.2-4.5,5.1
		c0,2.8,1.7,4.9,4.5,4.9c2,0,3.4-1,3.9-3h-0.9c-0.6,1.4-1.6,1.9-2.7,1.9c-1.8,0-3-1.3-3.1-3.8L125.5,41.8L125.5,41.8z M118.9,40.8
		c0.2-2.2,1.2-3.2,2.6-3.2c1.5,0,2.3,1.2,2.3,3.2H118.9 M126.4,46.5h5.2v-1.1h-1.9v-5.2c0.3-1,1.1-2.3,2.2-2.3
		c-0.1,0.1-0.1,0.3-0.1,0.4c0,0.7,0.5,1.1,1.1,1.1c0.7,0,1.1-0.6,1.1-1.2c0-0.9-0.6-1.5-1.6-1.5c-1.1,0-2.3,0.8-2.9,2.3v-2.3h-3.2
		v1.1h1.6v7.3h-1.6v1.2L126.4,46.5L126.4,46.5z M104.4,34.7c0.7,0,1.1-0.5,1.1-1.2s-0.5-1.2-1.1-1.2c-0.8,0-1.2,0.6-1.2,1.2
		C103.2,34.3,103.8,34.7,104.4,34.7z M107.1,45.3h-1.8v-8.4h-3.5V38h1.8v7.3h-1.1l-0.6,1.1h5.2L107.1,45.3L107.1,45.3z M168.8,45.3
		v-8.4h-3.3V38h1.6v4.2c0,1.5-1.3,3.1-2.7,3.1c-0.5,0-0.9-0.1-1.1-0.5c-0.5-0.4-0.6-1.1-0.6-2V37h-3.1c0.3,0.3,0.4,0.7,0.5,1.1h1
		v5.6c0,2,0.9,3,2.5,3c1.2,0,2.4-0.7,3.6-2.6v2.4h3.2v-1.1h-1.6V45.3L168.8,45.3z M16.7,35.2H0v-20c5.8-1.6,10.3-5.2,14.6-8.2
		c6-4.3,13.4-7,21.5-7s15.4,2.7,21.5,7c4.1,3,8.7,6.5,14.7,8.1v20H59.3c0.7-0.9,1.1-2.4,1.1-3.8c0-2.6-1.2-4.7-3.4-7
		c-1-1.1-2.5-2.3-3.8-3.4c-4.7-3.8-4.9-5.4-4.9-6.3c0-0.5,0.3-0.9,0.6-1.1c0.4-0.2,0.9-0.1,1.3,0.2c0.4,0.3,0.5,0.8,0.9,1.1
		c0.4,0.4,0.7,0.5,1,0.7c-0.1-0.4-0.1-0.8,0.3-1c0.7-0.7,1.3-1.5,0.5-2c-0.1-0.1-0.2-0.2-0.2-0.3c0-0.2,0.2-0.4,0.4-0.4
		c0.2,0,0.3,0.1,0.4,0.3c0.2,0.4,0.6,0.8,0.9,0.9c0.4,0.2,0.9,0.4,0.9,0.1v-0.2c-0.8-2.4-3-4.3-5.7-4.2c-3.3,0-5.5,2.3-5.5,5.5
		c0,1.4,0.6,3.6,3.3,5.9c3.9,3.5,5.8,6.1,6,7.9c0.1,0.8-0.5,1.3-1.4,1c-0.9-0.3-1.7-0.9-2.9-2.2c-1.6-1.7-2.5-3.7-5.2-5.5
		c-1.2-0.9-4.3-2.8-9-2.7c-5,0-9.3,1.9-12.8,5.2c-0.2,0.2-0.3,0.4-0.2,0.6c0.1,0.2,0.3,0.2,0.5,0.3c0.2,0.1,0.5,0.1,0.5,0.3
		c0,0.2,0,0.4-0.3,0.5c-0.4,0.1-0.8,0.3-1.3,0.6c-0.5,0.2-0.9,0.5-1,0.6c-0.2,0.1-0.4,0.4-0.3,0.6c0.1,0.2,0.2,0.3,0.7,0.3
		c0.6,0,2.8-0.2,4.6,1.4c0,0-2.7,1.4-6.7,0.8c-3.6-0.7-5.8-1.9-6.5-2.5c-0.2-0.2-0.4-0.3-0.5-0.2c-0.1,0.1-0.2,0.2-0.1,0.4
		c0.1,0.4,0.6,0.9,1.3,1.6C13,29,13,29.1,13,29.2c0,0.1-0.2,0.2-0.5,0.1c-0.2-0.1-0.7-0.3-0.9-0.4c-0.3-0.1-0.5,0.1-0.4,0.3
		C11.4,29.7,13.1,32.9,16.7,35.2L16.7,35.2z M55.5,15.3c0,0-0.6-0.3-0.8-0.9c0,0-0.6,0.4-1.5,0.6c-0.4,0.1-0.3,0.5-0.3,0.9
		c0.2,0.9,0.5,1.1,0.5,1.1c0.2,0.2,0.6,0.6,0.9,1c0.8,1.4,1.7,2.1,2.3,2.3c0.1,0,0.2,0,0.3-0.2c0.1-0.2,0.1-0.6-0.1-0.9
		C56.5,19,56,18,55.8,17.6c-0.3-0.8-0.4-1.3-0.4-1.6C55.4,15.7,55.5,15.4,55.5,15.3L55.5,15.3z M51.5,37.3h2.9
		c0.7,0.3,1.1,0.7,1.2,1.2c0.1,0.9-0.8,1.4-3.2,1.6c-2.2,0.1-2.9,0.7-2.9,1.5c0,0.8,0.5,1.2,2.9,1.6c2.4,0.3,3.3,0.8,3.2,1.7
		c0,0.7-0.9,1.2-2.2,1.6h-2.8c1.3-0.4,2-0.9,2-1.6c0.1-0.9-0.8-1.4-3.2-1.7c-2.4-0.4-2.9-0.9-2.9-1.6c0-0.9,0.8-1.4,2.9-1.5
		c2.4-0.2,3.3-0.7,3.2-1.6C52.7,37.9,52.2,37.6,51.5,37.3z M61.3,38.5c0.1,0.9-0.8,1.4-3.2,1.6c-2.2,0.1-2.9,0.7-2.9,1.5
		c0,0.8,0.5,1.2,2.9,1.6c2.4,0.3,3.3,0.8,3.2,1.7c0,0.7-0.8,1.2-2,1.6h12.9v-9.2H60.5C61,37.6,61.2,37.9,61.3,38.5L61.3,38.5z
		 M0,46.5h13c-1.3-0.4-2-0.9-2.1-1.5c-0.1-0.9,0.8-1.4,3.2-1.7c2.4-0.4,2.9-0.9,2.8-1.6c0-0.9-0.8-1.4-2.9-1.5
		c-2.4-0.2-3.3-0.7-3.2-1.6c0-0.6,0.6-0.9,1.2-1.3H0L0,46.5L0,46.5z"/>
</g>
</svg>
