<?xml version="1.0" encoding="utf-8"?>
<!-- Generator: Adobe Illustrator 19.1.0, SVG Export Plug-In . SVG Version: 6.00 Build 0)  -->
<svg version="1.1" id="Layer_1" xmlns="http://www.w3.org/2000/svg" xmlns:xlink="http://www.w3.org/1999/xlink" x="0px" y="0px"
	 viewBox="0 0 143.8 87.5" style="enable-background:new 0 0 143.8 87.5;" xml:space="preserve">
<style type="text/css">
	.st0{fill:#FFFFFF;}
</style>
<g>
	<path class="st0" d="M143.8,32c-0.1,0.9-0.2,1.9-0.4,2.8c-0.7,4.9-2.5,9.3-5.4,13.3c-3.8,5.2-8.7,8.8-14.7,10.9
		c-4.4,1.5-8.9,2-13.5,1.4C99.7,59,92,53.8,86.9,44.9c-2.3-4-3.5-8.4-3.7-13.1c-0.4-8.8,2.5-16.4,8.6-22.8c4-4.1,8.8-6.9,14.4-8.2
		c1.7-0.4,3.5-0.6,5.2-0.8c0.1,0,0.3-0.1,0.4-0.1c1.1,0,2.3,0,3.4,0c0.2,0,0.3,0.1,0.5,0.1c4,0.3,7.7,1.3,11.3,3.1
		c9.4,4.9,14.9,12.7,16.5,23.2c0.1,0.7,0.2,1.5,0.3,2.2C143.8,29.7,143.8,30.9,143.8,32z M96.3,39.4C96.3,39.4,96.3,39.4,96.3,39.4
		c0.1,0.1,0.3,0.1,0.4,0.1c1-0.2,1.9-0.3,2.9-0.5c3.6-0.8,6.9-2.2,10.2-3.9c3.2-1.7,5.8-3.9,7.4-7.2c1.4-2.8,2-5.7,0.9-8.7
		c-0.6-1.7-0.5-3.3,0.2-5c0.2-0.6,0.5-1.1,0.8-1.8c-0.4,0.2-0.8,0.4-1.1,0.6c-1.7,0.9-3,2.2-3.4,4.2c-0.2,0.9-0.3,1.8-0.5,2.6
		c-0.4,2.2-0.9,4.4-2.1,6.3c-1,1.6-2.3,3-3.7,4.2c-3.3,3.1-7,5.8-10.9,8.3C97.1,38.9,96.7,39.1,96.3,39.4z M125.9,46.9
		c0.4-3.3,0.2-6.4-1.4-9.3c-1.6-3-4-4.8-7.2-6.1c3.1,4.8,4.8,9.7,4,15.4c-0.8,0-1.5,0-2.3,0c1.4,2.1,2.8,4.1,4.3,6.2
		c1.5-2.1,3-4.1,4.6-6.2C127.1,46.9,126.5,46.9,125.9,46.9z M113.2,13c0,0-0.1-0.1-0.3-0.2c-1.4-0.7-2.7-1.4-4.1-2
		c-2.3-1-4.7-1.2-7.1-0.4c-1.7,0.5-3.4,1.2-5,2.1c-0.2,0.1-0.5,0.1-0.8,0.1c-0.6-0.1-1.3-0.3-1.9-0.5c0,0.2,0,0.3,0,0.4
		c0,2.5,0,5,0,7.5c0,0.3,0.1,0.4,0.5,0.3c1.6-0.5,3.3-1.1,4.9-1.6c0.8-0.3,1.6-0.5,2.5-0.8c-0.7-0.6-1.3-1.2-2-1.9
		c0.3-0.2,0.5-0.3,0.7-0.5c1.8-1.7,4-2.6,6.4-2.6C109,12.8,111.1,12.9,113.2,13z M131,16.2c0,0.1,0,0.1,0,0.2c0.3,0.7,0.5,1.3,0.8,2
		c0.2,0.6,0.2,0.6-0.3,0.9c-1.2,0.7-2.6,0.9-3.9,0.9c-1.6-0.1-3.3-0.2-4.9-0.4c-0.8-0.1-1.7-0.2-2.6-0.3c0.1,0.1,0.1,0.1,0.1,0.2
		c2.1,1.2,4.2,2.4,6.5,3.1c2.4,0.7,4.7,0.9,6.8-0.8c0.5,0.6,1,1.2,1.6,1.8c1.4-2.2,2.7-4.4,4.1-6.6C136.4,16.7,133.7,16.4,131,16.2z
		 M127.5,7.7c-3.6-0.1-7.1-0.1-10.8-0.2c2.2,2.8,4.2,5.5,6.4,8.3C124.6,13.1,126,10.4,127.5,7.7z M96.2,43.4
		c-1.1-2.3-2.1-4.5-3.1-6.7c-1.5,1.7-2.9,3.3-4.3,5.1C91.2,42.3,93.6,42.8,96.2,43.4z"/>
	<path class="st0" d="M0,78.2c0.2-0.5,0.3-1,0.5-1.5c0.8-1.8,2.6-2.6,4.5-2.1c0.7,0.2,1,0.4,1.7,1.3c0-0.4,0-0.8,0-1.1
		c0.8,0,1.6,0,2.4,0c0,0.1,0,0.3,0,0.4c0,2.7,0,5.4,0,8.1c0,0.6-0.1,1.2-0.3,1.8c-0.5,1.4-1.7,2-3,2.3c-0.1,0-0.3,0.1-0.4,0.1
		c-0.6,0-1.2,0-1.8,0c-0.1,0-0.3-0.1-0.4-0.1c-0.7-0.2-1.4-0.4-2-0.9c-0.6-0.5-0.9-1.1-0.9-1.9c0.8,0,1.5,0,2.3,0
		c0.1,0,0.3,0.1,0.3,0.2c0.4,0.8,1.1,1,1.9,1c0.8,0,1.4-0.3,1.7-1.1c0.3-0.7,0.2-1.5,0.2-2.2c-0.5,0.3-0.9,0.7-1.4,0.9
		c-2.1,0.9-4.4-0.2-5-2.3C0.2,80.7,0.1,80.4,0,80C0,79.4,0,78.8,0,78.2z M6.8,79.3c-0.1-0.6-0.2-1.1-0.3-1.6
		c-0.3-0.8-0.9-1.3-1.8-1.3c-0.9,0-1.5,0.4-1.8,1.2c-0.4,1-0.4,2,0,2.9c0.3,0.7,0.8,1.2,1.6,1.2c0.8,0,1.5-0.2,1.8-1
		C6.6,80.3,6.7,79.7,6.8,79.3z"/>
	<path class="st0" d="M54.9,74.7c0.9,0,1.7,0,2.5,0c0.1,0,0.3,0.2,0.3,0.4c0.5,1.8,1,3.5,1.4,5.3c0,0.2,0.1,0.3,0.2,0.5
		c0.2-0.6,0.3-1.3,0.5-1.9c0.3-1.3,0.6-2.5,0.9-3.8c0.1-0.3,0.2-0.4,0.5-0.4c0.6,0,1.1,0,1.7,0c0.3,0,0.4,0.1,0.5,0.4
		c0.4,1.8,0.9,3.6,1.4,5.4c0,0.1,0.1,0.2,0.1,0.4c0.1-0.3,0.2-0.6,0.2-0.8c0.5-1.7,0.9-3.3,1.3-5c0.1-0.3,0.2-0.4,0.5-0.4
		c0.7,0,1.4,0,2.2,0c0,0.2-0.1,0.3-0.1,0.4c-0.9,2.8-1.8,5.6-2.6,8.4c-0.1,0.3-0.2,0.5-0.6,0.4c-0.6,0-1.2,0-1.8,0
		c-0.3,0-0.4-0.1-0.5-0.4c-0.5-1.8-0.9-3.5-1.4-5.3c0-0.1-0.1-0.3-0.2-0.4c-0.2,0.9-0.5,1.9-0.7,2.8c-0.2,1-0.5,1.9-0.7,2.9
		c-0.1,0.3-0.2,0.4-0.5,0.4c-0.7,0-1.3,0-2,0c-0.1,0-0.3-0.1-0.4-0.2C56.8,80.8,55.9,77.8,54.9,74.7z"/>
	<path class="st0" d="M100.7,81.1c-0.2,1.4-1.5,2.7-3,3c-0.8,0.1-1.7,0.1-2.4,0c-2-0.4-3.3-2-3.5-4.2c-0.1-1.6,0.3-3.1,1.5-4.2
		c1.4-1.3,3.1-1.5,4.9-0.9c1.8,0.6,2.5,2.1,2.8,3.9c0.1,0.4,0,0.8,0,1.3c-2.2,0-4.4,0-6.6,0c0,1.1,0.5,1.9,1.3,2.2
		c1.1,0.3,2.2,0,2.8-0.8c0.1-0.1,0.2-0.2,0.4-0.2C99.4,81.1,100,81.1,100.7,81.1z M98.3,78.3c-0.1-1.3-0.9-2-2.1-1.9
		c-1.1,0.1-1.9,0.9-1.9,1.9C95.6,78.3,96.9,78.3,98.3,78.3z"/>
	<path class="st0" d="M84.3,83.9c-0.9,0-1.7,0-2.5,0c0-3.1,0-6.1,0-9.2c0.8,0,1.5,0,2.4,0c0,0.4,0,0.8,0,1.2
		c0.2-0.2,0.3-0.3,0.3-0.4c1.1-1.3,3.4-1.6,4.8-0.6c0.8,0.6,1.1,1.4,1.1,2.3c0.1,1.5,0,3,0.1,4.5c0,0.7,0,1.3,0,2
		c-0.9,0-1.7,0-2.5,0c0-0.2,0-0.3,0-0.5c0-1.5,0-3,0-4.4c0-0.3,0-0.6,0-0.9c-0.1-1-0.6-1.6-1.4-1.6c-1.1-0.1-1.8,0.4-2,1.4
		c-0.1,0.4-0.1,0.9-0.1,1.3c0,1.4,0,2.8,0,4.2C84.3,83.6,84.3,83.7,84.3,83.9z"/>
	<path class="st0" d="M119.8,77.4c-0.8,0-1.6,0-2.3,0c-0.5-1.1-1.2-1.4-2.4-1.2c-0.4,0.1-0.8,0.3-0.8,0.7c0,0.4,0.2,0.7,0.6,0.8
		c0.8,0.2,1.6,0.4,2.5,0.7c0.3,0.1,0.7,0.2,1,0.3c0.9,0.3,1.6,0.9,1.7,1.9c0.1,1.1-0.2,2-1.1,2.6c-0.5,0.3-1.1,0.6-1.6,0.7
		c-1.2,0.3-2.5,0.2-3.7-0.2c-1.3-0.5-2.1-1.6-2.1-2.9c0.8,0,1.5,0,2.3,0c0.5,1.3,1.4,1.8,2.7,1.4c0.2-0.1,0.5-0.2,0.6-0.3
		c0.5-0.4,0.5-1.2-0.1-1.4c-0.5-0.3-1.1-0.4-1.7-0.6c-0.7-0.2-1.4-0.3-2-0.6c-0.9-0.3-1.6-0.9-1.6-1.9c-0.1-1.2,0.3-2.1,1.4-2.6
		c1.7-0.7,3.4-0.7,5,0C119.2,75.4,119.7,76.3,119.8,77.4z"/>
	<path class="st0" d="M110.2,77.4c-0.7,0-1.5,0-2.2,0c-0.1,0-0.2-0.2-0.2-0.3c-0.1-0.5-0.4-0.8-0.9-0.9c-0.5-0.1-1-0.1-1.5,0
		c-0.4,0-0.6,0.3-0.7,0.7c0,0.4,0.2,0.7,0.5,0.8c0.6,0.2,1.2,0.4,1.8,0.5c0.6,0.2,1.1,0.3,1.7,0.5c0.9,0.3,1.7,0.9,1.8,1.9
		c0.1,1.2-0.3,2.2-1.3,2.8c-1.1,0.7-2.3,0.8-3.6,0.6c-0.7-0.1-1.4-0.3-2-0.5c-1.1-0.5-1.6-1.4-1.6-2.6c0.8,0,1.6,0,2.4,0
		c0.4,1.3,1.7,1.9,3,1.3c0.4-0.2,0.7-0.5,0.7-0.9c0-0.4-0.3-0.7-0.6-0.8c-0.7-0.2-1.5-0.4-2.2-0.6c-0.5-0.1-1-0.3-1.5-0.5
		c-1.8-0.8-2-3.1-0.4-4.2c0.1-0.1,0.2-0.2,0.3-0.2c1.7-0.7,3.5-0.8,5.2,0C109.7,75.5,110.2,76.5,110.2,77.4z"/>
	<path class="st0" d="M75.8,74.7c0-1,0-1.8,0-2.7c0.9,0,1.7,0,2.5,0c0,0.9,0,1.8,0,2.7c0.6,0,1.2,0,1.9,0c0,0.6,0,1.1,0,1.7
		c-0.6,0-1.2,0-1.8,0c0,0.8,0,1.5,0,2.3c0,0.8,0,1.5,0,2.3c0,0.8,0.2,1,1,1.1c0.3,0,0.5,0,0.8,0c0,0.6,0,1.3,0,2
		c-1.2,0.1-2.3,0.3-3.4-0.3c-0.8-0.4-1-1.1-1-1.8c0-1.6,0-3.3,0-4.9c0-0.2,0-0.3,0-0.5c-0.5,0-1,0-1.5,0c0-0.6,0-1.1,0-1.7
		C74.8,74.7,75.2,74.7,75.8,74.7z"/>
	<path class="st0" d="M13.6,83.9c-0.8,0-1.7,0-2.5,0c0-4.2,0-8.5,0-12.7c0.8,0,1.6,0,2.5,0C13.6,75.4,13.6,79.7,13.6,83.9z"/>
	<path class="st0" d="M47.2,71.2c0.8,0,1.6,0,2.5,0c0,4.2,0,8.5,0,12.7c-0.4,0-0.8,0-1.2,0c-0.4,0-0.8,0-1.2,0
		C47.2,79.7,47.2,75.5,47.2,71.2z"/>
	<path class="st0" d="M70.4,83.9c0-3.1,0-6.1,0-9.2c0.8,0,1.7,0,2.5,0c0,3.1,0,6.1,0,9.2C72.1,83.9,71.2,83.9,70.4,83.9z"/>
	<path class="st0" d="M72.9,73.3c-0.9,0-1.7,0-2.5,0c0-0.7,0-1.4,0-2.1c0.8,0,1.6,0,2.5,0C72.9,71.9,72.9,72.6,72.9,73.3z"/>
	<path class="st0" d="M45.2,80.9c0-1.2,0-2.5,0-3.7c0-1-0.4-1.7-1.2-2.1c-1.9-0.8-3.9-0.8-5.7,0.1c-0.9,0.5-1.3,1.3-1.4,2.4
		c0.8,0,1.5,0,2.2,0c0.3,0,0.4-0.1,0.5-0.3c0.1-0.3,0.3-0.6,0.5-0.8c0.7-0.4,1.5-0.4,2.2,0c0.4,0.2,0.5,0.6,0.5,1
		c0,0.4-0.2,0.6-0.6,0.8c-0.4,0.1-0.8,0.2-1.1,0.3C40,78.6,39,78.8,38.1,79c-0.7,0.2-1.2,0.7-1.5,1.4c-0.6,1.8,0.3,3.4,2.2,3.7
		c1.4,0.2,2.7,0,3.9-1c0,0.2,0.1,0.4,0.1,0.6c0.1,0.1,0.2,0.2,0.3,0.2c0.8,0,1.5,0,2.2,0C45.3,82.9,45.2,81.9,45.2,80.9z M42.5,81.1
		c-0.3,1.2-2.1,1.9-3.1,1.1c-0.6-0.5-0.5-1.5,0.2-1.9c0.4-0.2,0.9-0.3,1.4-0.4c0.5-0.1,1-0.2,1.6-0.3C42.6,80.1,42.6,80.6,42.5,81.1
		z"/>
	<path class="st0" d="M34.7,76.6c-0.7-1.4-1.9-2.1-3.5-2.1c-1,0-1.9,0.4-2.7,1.4v-4.6c-0.8,0-1.5,0-2.3,0c-0.1,0-0.1,0-0.2,0v12.7
		h2.4v-1.1c0.2,0.2,0.4,0.4,0.5,0.6c0.2,0.2,0.4,0.3,0.6,0.4c1.6,0.7,4,0.7,5.2-1.7C35.6,80.3,35.5,78.4,34.7,76.6z M32.4,81.1
		c-0.3,0.8-0.9,1.2-1.8,1.2c-0.8,0-1.4-0.4-1.8-1.2c-0.5-1.2-0.5-2.4,0-3.6c0.3-0.8,1-1.2,1.8-1.2c0.8,0,1.4,0.4,1.7,1.2
		c0.2,0.6,0.3,1.2,0.5,1.8C32.7,80,32.6,80.6,32.4,81.1z"/>
	<path class="st0" d="M19.7,74.5c-2.9,0-4.8,1.9-4.8,4.8c0,3,1.9,4.9,4.7,4.9c2.9,0,4.8-1.9,4.8-4.8C24.5,76.4,22.7,74.5,19.7,74.5z
		 M21.6,81.2c-0.3,0.8-1,1.1-1.8,1.1c-0.8,0-1.5-0.3-1.8-1.1c-0.5-1.2-0.5-2.4,0-3.7c0.3-0.8,1-1.1,1.8-1.1c0.8,0,1.5,0.3,1.8,1.1
		c0.2,0.6,0.3,1.2,0.5,1.9C21.9,80,21.8,80.6,21.6,81.2z"/>
</g>
</svg>
