<?xml version="1.0" encoding="utf-8"?>
<!-- Generator: Adobe Illustrator 19.1.0, SVG Export Plug-In . SVG Version: 6.00 Build 0)  -->
<svg version="1.1" id="Layer_1" xmlns="http://www.w3.org/2000/svg" xmlns:xlink="http://www.w3.org/1999/xlink" x="0px" y="0px"
	 viewBox="0 0 178.7 52.3" style="enable-background:new 0 0 178.7 52.3;" xml:space="preserve">
<style type="text/css">
	.st0{fill:#FFFFFF;}
	.st1{fill:#001C54;}
</style>
<g>
	<path class="st0" d="M71.7,35.3c0,5.9-4.6,10.2-10.3,10.2c-5.8,0-10.3-4.3-10.3-10c0-5.9,4.6-10.2,10.3-10.2
		C67.3,25.3,71.7,29.7,71.7,35.3 M68.5,35.4c0-5.4-2.6-9.1-7-9.1c-4.8,0-7,4.5-7,9.1c0,5.4,2.6,9.1,7,9.1
		C66.2,44.5,68.5,40,68.5,35.4"/>
	<path class="st0" d="M134.4,35.3c0,5.9-4.6,10.2-10.3,10.2c-5.8,0-10.3-4.3-10.3-10c0-5.9,4.6-10.2,10.3-10.2
		C129.9,25.3,134.4,29.7,134.4,35.3 M131.1,35.4c0-5.4-2.6-9.1-7-9.1c-4.8,0-7,4.5-7,9.1c0,5.4,2.6,9.1,7,9.1
		C128.9,44.5,131.1,40,131.1,35.4"/>
	<path class="st0" d="M142.3,35.5h2.4c3.7,0,4.5-2.3,4.5-4.6c0-1.7-0.8-3.3-2.5-4c-0.9-0.4-1.8-0.4-3-0.4h-1.5V35.5z M146.8,38.7
		c-1.1-1.6-1.6-2.2-3-2.2h-1.5v6.6c0,0.5,0.2,0.8,0.8,0.9l2.2,0.5v0.7h-8.7v-0.7l2-0.5c0.6-0.2,0.8-0.4,0.8-0.9V27.8
		c0-0.5-0.2-0.8-0.8-0.9l-2-0.5v-0.7h8.5c1.8,0,3,0.2,4.1,0.5c2.1,0.8,3.3,2.8,3.3,4.7c0,2.4-1.8,4.4-4.8,5.1v0.1
		c0.6,0.3,0.9,0.7,3,3.4l2.7,3.5c0.4,0.5,0.9,0.9,1.5,1l2,0.4v0.7h-4.7c-0.5,0-0.8-0.2-1.3-0.8L146.8,38.7z"/>
	<path class="st0" d="M108.5,32.3h0.8v6.5h-0.8l-0.5-2c-0.2-0.7-0.6-1-1.2-1h-4.7v7.2c0,0.5,0.2,0.8,0.8,0.9l2.2,0.5v0.7h-8.7v-0.7
		l2-0.5c0.6-0.2,0.8-0.4,0.8-0.9V27.8c0-0.5-0.2-0.8-0.8-0.9l-2-0.5v-0.7h14.8v4.9h-0.8l-0.9-2.9c-0.2-0.8-0.5-1-1.2-1h-6.1V35h4.7
		c0.7,0,1-0.3,1.2-1L108.5,32.3z"/>
	<path class="st0" d="M158.4,45.2v-0.7l2-0.5c0.6-0.2,0.8-0.4,0.8-0.9V27.8c0-0.5-0.2-0.8-0.8-0.9l-2-0.5v-0.7h9.2
		c2.5,0,4.3,0.3,5.8,1c3.7,1.7,5.4,5.3,5.4,8.9c0,3.5-1.3,6.7-4.6,8.5c-1.5,0.8-3.6,1.2-6.4,1.2H158.4z M164.1,26.6v16.8
		c0,0.7,0.2,0.9,0.9,0.9h2.4c2.3,0,4-0.3,5.2-1.2c2-1.5,2.9-4.1,2.9-7.5c0-3.3-0.9-6.6-3.6-8.1c-1.1-0.7-2.6-0.9-4.9-0.9H164.1z"/>
	<path class="st0" d="M79.4,44.5v0.7h-6.9v-0.7l1.7-0.4c0.7-0.2,1.1-0.4,1.5-0.9l6-7.5l-6-7.9c-0.4-0.5-0.9-0.8-1.5-1l-1.6-0.4v-0.7
		h8.6v0.7l-1.8,0.4c-0.7,0.1-0.5,0.4-0.2,0.8l4.4,6.3h0.1l4.5-6.3c0.3-0.4,0.4-0.6-0.2-0.8l-1.7-0.4v-0.7h6.9v0.7l-1.7,0.4
		c-0.7,0.2-1.1,0.4-1.5,0.9l-5.6,7.1l6.3,8.3c0.4,0.5,0.9,0.8,1.5,1l1.6,0.4v0.7h-8.6v-0.7l1.8-0.4c0.7-0.1,0.5-0.3,0.2-0.8
		l-4.8-6.7h-0.1l-4.8,6.7c-0.3,0.4-0.4,0.6,0.2,0.8L79.4,44.5z"/>
	<path class="st0" d="M58.8,16.4c-0.5,0.5-1.4,0.9-2.5,0.9c-1,0-1.9-0.3-2.5-0.9C53,15.6,53,14.5,53,13.3V7.9h1.1v5.8
		c0,0.7,0,1.5,0.5,2c0.4,0.4,1,0.6,1.7,0.6c0.7,0,1.2-0.2,1.6-0.6c0.6-0.6,0.6-1.3,0.6-3V7.9h1.1v4.6C59.6,14.3,59.7,15.5,58.8,16.4
		"/>
	<polygon class="st0" points="68.6,17.2 64.2,9.6 64.2,17.2 63.2,17.2 63.2,7.9 64.3,7.9 68.8,15.5 68.8,7.9 69.8,7.9 69.8,17.2 	
		"/>
	<rect x="73.7" y="7.9" class="st0" width="1.1" height="9.3"/>
	<polygon class="st0" points="81.7,17.2 80.4,17.2 77.2,7.9 78.4,7.9 81.1,16.1 83.9,7.9 85,7.9 	"/>
	<polygon class="st0" points="87.5,17.2 87.5,7.9 92.5,7.9 92.5,8.8 88.6,8.8 88.6,11.9 92.3,11.9 92.3,12.8 88.6,12.8 88.6,16.2 
		92.6,16.2 92.6,17.2 	"/>
	<path class="st0" d="M99.7,9.3c-0.5-0.5-1.2-0.5-2-0.5h-1v3.5H97c0.9,0,1.9,0,2.6-0.6c0.3-0.3,0.5-0.7,0.5-1.2
		C100.1,9.9,99.9,9.5,99.7,9.3 M100.7,17.2l-1.1-2.4c-0.7-1.5-1-1.6-2.3-1.6h-0.6v4h-1.1V7.9h2c1.2,0,2.2,0,2.9,0.7
		c0.5,0.5,0.7,1.1,0.7,1.9c0,0.6-0.2,1.2-0.6,1.6c-0.3,0.4-0.9,0.7-1.5,0.7c0.3,0,0.6,0.2,0.8,0.4c0.3,0.3,0.4,0.6,0.7,1.2l1.2,2.8
		H100.7z"/>
	<rect x="112.6" y="7.9" class="st0" width="1.1" height="9.3"/>
	<polygon class="st0" points="120.1,8.8 120.1,17.2 119,17.2 119,8.8 116.3,8.8 116.3,7.9 122.9,7.9 122.9,8.8 	"/>
	<polygon class="st0" points="128.2,13.5 128.2,17.2 127.1,17.2 127.1,13.5 124.2,7.9 125.4,7.9 127.7,12.3 129.9,7.9 131.1,7.9 	
		"/>
	<path class="st0" d="M141.5,8.7c-1.8,0-3,1.5-3,3.8c0,2.3,1.3,3.9,3.1,3.9c1.9,0,3-1.6,3-3.9C144.6,10.2,143.3,8.7,141.5,8.7
		 M141.5,17.3c-2.4,0-4.1-2-4.1-4.8c0-2.9,1.7-4.8,4.2-4.8c2.4,0,4.1,2,4.1,4.8C145.7,15.4,144,17.3,141.5,17.3"/>
	<polygon class="st0" points="149.9,8.8 149.9,11.9 153.5,11.9 153.5,12.8 149.9,12.8 149.9,17.2 148.8,17.2 148.8,7.9 153.7,7.9 
		153.7,8.8 	"/>
	<path class="st0" d="M104.1,10.2c0-1.4,1.1-2.4,2.8-2.4c1.7,0,2.5,0.9,2.6,1l-0.5,0.7c-0.2-0.2-0.9-0.7-2-0.7
		c-1.2,0-1.8,0.6-1.8,1.5c0,0.4,0.2,0.7,0.4,0.9c0.3,0.3,0.8,0.5,1.3,0.7c0.6,0.3,1.5,0.6,2,1.2c0.4,0.4,0.7,0.9,0.7,1.7
		c0,1.5-1.1,2.7-3,2.7c-1.6,0-2.7-0.9-2.8-1l0.5-0.8c0.3,0.2,1.3,0.8,2.2,0.8c1.4,0,1.9-0.8,1.9-1.7c0-0.4-0.2-0.8-0.5-1
		c-0.4-0.4-1.1-0.7-1.7-1c-0.6-0.3-1.2-0.6-1.6-1C104.4,11.4,104.1,10.9,104.1,10.2"/>
	<path class="st0" d="M21.6,19.1c0-0.8-0.3-1.5-0.9-1.8C20.3,17,19.8,17,19.2,17l-4.5,0v9.1h4.9c1.1,0,1.8,0.3,1.9,1.3h0.1
		L21.6,19.1z"/>
	<path class="st0" d="M22.2,19.1c0-0.8,0.3-1.5,0.9-1.8C23.4,17,24,17,24.6,17l4.5,0v9.1h-4.9c-1.1,0-1.8,0.3-1.9,1.3h-0.1
		L22.2,19.1z"/>
	<path class="st0" d="M30.1,17.6v9.6h-7L23,27.5c-0.1,0.3-0.3,0.6-1.1,0.6c-0.8,0-1-0.3-1.1-0.6l-0.1-0.2h-7v-9.6h-0.6v0.3l-0.6-0.2
		c-0.1-0.2-0.3-0.4-0.5-0.4c-0.3,0-0.6,0.3-0.6,0.6c0,0.3,0.3,0.6,0.6,0.6c0.1,0,0.3-0.1,0.4-0.1l0.8,0.2v0.8l-0.6-0.1
		c-0.1-0.2-0.3-0.3-0.5-0.3c-0.3,0-0.6,0.3-0.6,0.6c0,0.3,0.3,0.6,0.6,0.6c0.2,0,0.3-0.1,0.4-0.2l0.7,0.1v0.8l-0.6,0
		c-0.1-0.2-0.3-0.3-0.5-0.3c-0.3,0-0.6,0.3-0.6,0.6c0,0.3,0.3,0.6,0.6,0.6c0.2,0,0.4-0.1,0.5-0.2l0.6,0v0.9l-0.6,0
		c-0.1-0.1-0.3-0.2-0.5-0.2c-0.3,0-0.6,0.3-0.6,0.6c0,0.3,0.3,0.6,0.6,0.6c0.2,0,0.4-0.1,0.5-0.3l0.6,0v0.8l-0.7,0.1
		c-0.1-0.1-0.3-0.2-0.4-0.2c-0.3,0-0.6,0.3-0.6,0.6c0,0.3,0.3,0.6,0.6,0.6c0.2,0,0.4-0.1,0.5-0.3l0.6-0.1v0.8l-0.8,0.2
		c-0.1-0.1-0.2-0.1-0.4-0.1c-0.3,0-0.6,0.3-0.6,0.6c0,0.3,0.3,0.6,0.6,0.6c0.3,0,0.5-0.2,0.5-0.4l0.6-0.2v0.8l-0.8,0.4
		c-0.1-0.1-0.2-0.1-0.3-0.1c-0.3,0-0.6,0.3-0.6,0.6c0,0.3,0.3,0.6,0.6,0.6c0.3,0,0.5-0.2,0.6-0.5l0.6-0.3v0.7h7.2
		c0.3,0.5,0.8,0.8,1.6,0.8c0.8,0,1.3-0.3,1.6-0.8h7.2V17.6H30.1z"/>
	<path class="st0" d="M17.2,14.4c-1.5,0-2.6,0.2-2.6,0.5c0,0.3,1.2,0.5,2.6,0.5c1.5,0,2.6-0.2,2.6-0.5
		C19.8,14.7,18.6,14.4,17.2,14.4"/>
	<path class="st0" d="M20.8,11.3l-1.5,1.1l0,0.1l0.4,0.2c0.1,0,0.1,0.1,0,0.1l-1,0.8l-0.1,0l-0.7-1c0-0.1,0-0.1,0.1-0.1l0.5-0.1
		v-0.1l-1.2-1.7h-0.2l-1.2,1.7v0.1l0.5,0.1c0.1,0,0.1,0.1,0.1,0.1l-0.7,1l-0.1,0l-0.9-0.8c0,0,0-0.1,0-0.1l0.4-0.2l0-0.1l-1.6-1.1
		l-0.1,0.1l0.9,2.8c0.5-0.2,1.6-0.4,2.8-0.4c1.3,0,2.4,0.2,2.8,0.4l0.9-2.8L20.8,11.3z"/>
	<path class="st0" d="M21.9,33.5c-1.5,0-2.6,0.2-2.6,0.5c0,0.3,1.2,0.5,2.6,0.5c1.5,0,2.6-0.2,2.6-0.5
		C24.5,33.8,23.3,33.5,21.9,33.5"/>
	<path class="st0" d="M25.5,30.4L24,31.4l0,0.1l0.4,0.2c0.1,0,0.1,0.1,0,0.1l-1,0.8l-0.1,0l-0.7-1c0-0.1,0-0.1,0.1-0.1l0.5-0.1v-0.1
		L22,29.6h-0.2l-1.2,1.7v0.1l0.5,0.1c0.1,0,0.1,0.1,0.1,0.1l-0.7,1l-0.1,0l-0.9-0.8c0,0,0-0.1,0-0.1l0.4-0.2l0-0.1l-1.6-1.1
		l-0.1,0.1l0.9,2.8c0.5-0.2,1.6-0.4,2.8-0.4c1.3,0,2.4,0.2,2.8,0.4l0.9-2.8L25.5,30.4z"/>
	<path class="st0" d="M26.6,14.4c-1.5,0-2.6,0.2-2.6,0.5c0,0.3,1.2,0.5,2.6,0.5c1.5,0,2.6-0.2,2.6-0.5
		C29.3,14.7,28.1,14.4,26.6,14.4"/>
	<path class="st0" d="M30.2,11.3l-1.5,1.1l0,0.1l0.4,0.2c0.1,0,0.1,0.1,0,0.1l-1,0.8l-0.1,0l-0.7-1c0-0.1,0-0.1,0.1-0.1l0.5-0.1
		v-0.1l-1.2-1.7h-0.2l-1.2,1.7v0.1l0.5,0.1c0.1,0,0.1,0.1,0,0.1l-0.7,1l-0.1,0l-0.9-0.8c0,0,0-0.1,0-0.1l0.4-0.2l0-0.1L23,11.3
		l-0.1,0.1l0.9,2.8c0.5-0.2,1.6-0.4,2.8-0.4c1.3,0,2.4,0.2,2.8,0.4l0.9-2.8L30.2,11.3z"/>
	<path class="st1" d="M15.9,18.4c0.2,0,0.5,0,0.6,0.2c0.1,0.1,0.2,0.2,0.2,0.4c0,0.5-0.4,0.7-0.8,0.7h-0.5v-0.1c0.1,0,0.2,0,0.2-0.2
		v-0.7c0-0.2,0-0.2-0.1-0.2v-0.1H15.9z M15.8,19.4c0,0.2,0,0.2,0.1,0.2c0.2,0,0.3-0.2,0.3-0.5c0-0.4-0.2-0.6-0.4-0.6
		c0,0-0.1,0-0.1,0c0,0,0,0.1,0,0.1V19.4z"/>
	<path class="st1" d="M18.1,19.1c0,0.4-0.3,0.7-0.7,0.7c-0.4,0-0.7-0.3-0.7-0.7c0-0.3,0.2-0.7,0.7-0.7
		C17.9,18.4,18.1,18.7,18.1,19.1 M17.2,19c0,0.4,0.1,0.6,0.3,0.6c0.2,0,0.3-0.2,0.3-0.5c0-0.4-0.1-0.6-0.3-0.6
		C17.3,18.5,17.2,18.7,17.2,19"/>
	<path class="st1" d="M19.9,18.4L19.9,18.4c-0.2,0.1-0.2,0.1-0.2,0.3l0,0.7c0,0.2,0,0.2,0.2,0.2v0.1h-0.6v-0.1c0.2,0,0.2,0,0.2-0.2
		l0-0.7h0l-0.4,1H19l-0.4-0.9h0l0,0.4c0,0.2,0,0.3,0,0.3c0,0.1,0.1,0.1,0.2,0.1v0.1h-0.5v-0.1c0.1,0,0.1,0,0.1-0.1
		c0-0.1,0-0.2,0-0.4l0-0.4c0-0.3,0-0.3-0.2-0.3v-0.1h0.5l0.4,0.8l0.3-0.8H19.9z"/>
	<path class="st1" d="M20.6,19.4c0,0.2,0,0.2,0.2,0.2v0.1h-0.7v-0.1c0.1,0,0.2,0,0.2-0.2v-0.7c0-0.2,0-0.2-0.2-0.2v-0.1h0.7v0.1
		c-0.1,0-0.2,0-0.2,0.2V19.4z"/>
	<path class="st1" d="M17.3,22.2h-0.2l-0.7-1h0v0.4c0,0.2,0,0.3,0,0.4c0,0.1,0.1,0.1,0.2,0.1v0.1h-0.5v-0.1c0.1,0,0.1,0,0.2-0.1
		c0-0.1,0-0.2,0-0.4v-0.4c0-0.1,0-0.2,0-0.2c0,0-0.1-0.1-0.2-0.1v-0.1h0.4l0.7,0.8h0v-0.3c0-0.2,0-0.3,0-0.4c0-0.1-0.1-0.1-0.2-0.1
		v-0.1h0.5v0.1c-0.1,0-0.2,0-0.2,0.1c0,0.1,0,0.2,0,0.4V22.2z"/>
	<path class="st1" d="M18.2,22.2c-0.1-0.4-0.3-0.9-0.4-1c-0.1-0.2-0.1-0.2-0.2-0.2v-0.1h0.6v0.1l-0.1,0c-0.1,0-0.1,0-0.1,0.1
		c0,0.1,0.2,0.5,0.3,0.7c0.1-0.2,0.2-0.6,0.2-0.6c0-0.1,0-0.1-0.1-0.2l-0.1,0v-0.1h0.5v0.1c-0.1,0-0.1,0-0.2,0.2c0,0-0.3,0.6-0.4,1
		H18.2z"/>
	<path class="st1" d="M19.1,21.7c0,0.1,0.2,0.3,0.4,0.3c0.1,0,0.2-0.1,0.2-0.2c0-0.1-0.1-0.2-0.2-0.2l0,0c-0.2-0.1-0.4-0.2-0.4-0.4
		c0-0.2,0.2-0.4,0.5-0.4c0.1,0,0.1,0,0.2,0c0,0,0.1,0,0.1,0c0,0.1,0,0.2,0,0.3l-0.1,0c0-0.1-0.1-0.3-0.3-0.3c-0.1,0-0.2,0.1-0.2,0.2
		c0,0.1,0.1,0.2,0.2,0.2l0,0c0.2,0.1,0.3,0.2,0.3,0.4c0,0.2-0.2,0.4-0.5,0.4c-0.1,0-0.2,0-0.2,0c-0.1,0-0.1,0-0.1,0
		C19,22,19,21.9,19.1,21.7L19.1,21.7z"/>
	<path class="st1" d="M16.4,24.2c0,0.2,0,0.2,0.2,0.2v0.1h-0.7v-0.1c0.1,0,0.2,0,0.2-0.2v-0.7c0-0.2,0-0.2-0.2-0.2v-0.1h0.7v0.1
		c-0.1,0-0.2,0-0.2,0.2V24.2z"/>
	<path class="st1" d="M17.2,24.3c0,0.1,0,0.2,0,0.2c0,0,0.1,0,0.1,0c0.1,0,0.2,0,0.2-0.1c0,0,0.1-0.1,0.1-0.2l0.1,0
		c0,0.1-0.1,0.3-0.1,0.3h-1v-0.1c0.2,0,0.2,0,0.2-0.2v-0.7c0-0.2,0-0.2-0.2-0.2v-0.1h0.7v0.1c-0.1,0-0.2,0-0.2,0.2V24.3z"/>
	<path class="st1" d="M18.4,24.3c0,0.1,0,0.2,0,0.2c0,0,0.1,0,0.1,0c0.1,0,0.2,0,0.2-0.1c0,0,0.1-0.1,0.1-0.2l0.1,0
		c0,0.1-0.1,0.3-0.1,0.3h-1v-0.1c0.2,0,0.2,0,0.2-0.2v-0.7c0-0.2,0-0.2-0.2-0.2v-0.1h0.7v0.1c-0.1,0-0.2,0-0.2,0.2V24.3z"/>
	<path class="st1" d="M19.3,24.6c-0.1-0.4-0.3-0.9-0.4-1c-0.1-0.2-0.1-0.2-0.2-0.2v-0.1h0.6v0.1l-0.1,0c-0.1,0-0.1,0-0.1,0.1
		c0,0.1,0.2,0.5,0.3,0.7c0.1-0.2,0.2-0.6,0.2-0.6c0-0.1,0-0.1-0.1-0.2l-0.1,0v-0.1h0.5v0.1c-0.1,0-0.1,0-0.2,0.2c0,0-0.3,0.6-0.4,1
		H19.3z"/>
	<path class="st1" d="M24.7,18.4L24.7,18.4c-0.2,0.1-0.2,0.1-0.2,0.3l0,0.7c0,0.2,0,0.2,0.2,0.2v0.1h-0.6v-0.1c0.2,0,0.2,0,0.2-0.2
		l0-0.7h0l-0.4,1h-0.1l-0.4-0.9h0l0,0.4c0,0.2,0,0.3,0,0.3c0,0.1,0.1,0.1,0.2,0.1v0.1h-0.5v-0.1c0.1,0,0.1,0,0.1-0.1
		c0-0.1,0-0.2,0-0.4l0-0.4c0-0.3,0-0.3-0.2-0.3v-0.1h0.5l0.4,0.8l0.3-0.8H24.7z"/>
	<path class="st1" d="M25.4,19.4c0,0.2,0,0.2,0.2,0.2v0.1h-0.7v-0.1c0.1,0,0.2,0,0.2-0.2v-0.7c0-0.2,0-0.2-0.2-0.2v-0.1h0.7v0.1
		c-0.1,0-0.2,0-0.2,0.2V19.4z"/>
	<path class="st1" d="M26.9,19.7h-0.2L26,18.8h0v0.4c0,0.2,0,0.3,0,0.4c0,0.1,0.1,0.1,0.2,0.1v0.1h-0.5v-0.1c0.1,0,0.1,0,0.1-0.1
		c0-0.1,0-0.2,0-0.4v-0.4c0-0.1,0-0.2,0-0.2c0,0-0.1-0.1-0.2-0.1v-0.1h0.4l0.7,0.8h0V19c0-0.2,0-0.3,0-0.4c0-0.1-0.1-0.1-0.2-0.1
		v-0.1H27v0.1c-0.1,0-0.2,0-0.2,0.1c0,0.1,0,0.2,0,0.4V19.7z"/>
	<path class="st1" d="M27.7,19.6L27.7,19.6c0.1,0,0.1,0,0.1-0.1l-0.1-0.2h-0.3l-0.1,0.2c0,0.1,0,0.1,0.1,0.1l0.1,0v0.1H27v-0.1
		c0.1,0,0.1,0,0.2-0.2l0.4-1l0.1,0l0.1,0.4c0.1,0.2,0.2,0.5,0.2,0.7c0.1,0.2,0.1,0.2,0.2,0.2v0.1L27.7,19.6L27.7,19.6z M27.5,19.2
		h0.3l-0.1-0.4h0L27.5,19.2z"/>
	<path class="st1" d="M24.7,21.8c0,0.2,0,0.2,0.2,0.2v0.1h-0.7v-0.1c0.2,0,0.2,0,0.2-0.2v-0.9h0c-0.1,0-0.2,0-0.2,0.1
		c0,0,0,0.1-0.1,0.2h-0.1c0-0.2,0-0.3,0-0.4H24c0,0,0,0,0.1,0h0.8c0.1,0,0.1,0,0.1,0h0.1c0,0.1,0,0.3,0,0.4l-0.1,0
		c0-0.1-0.1-0.2-0.1-0.2c0,0-0.1,0-0.2,0h0V21.8z"/>
	<path class="st1" d="M25.8,21.8c0,0.2,0,0.2,0.2,0.2v0.1h-0.7v-0.1c0.1,0,0.2,0,0.2-0.2v-0.7c0-0.2,0-0.2-0.2-0.2v-0.1h0.7v0.1
		c-0.1,0-0.2,0-0.2,0.2V21.8z"/>
	<path class="st1" d="M27.4,21.5c0,0.4-0.3,0.7-0.7,0.7c-0.4,0-0.7-0.3-0.7-0.7c0-0.3,0.2-0.7,0.7-0.7
		C27.1,20.8,27.4,21.1,27.4,21.5 M26.5,21.4c0,0.4,0.1,0.6,0.3,0.6c0.2,0,0.3-0.2,0.3-0.5c0-0.4-0.1-0.6-0.3-0.6
		C26.6,20.9,26.5,21.1,26.5,21.4"/>
	<path class="st1" d="M25.3,23.2L25.3,23.2c-0.2,0.1-0.2,0.1-0.2,0.3l0,0.7c0,0.2,0,0.2,0.2,0.2v0.1h-0.6v-0.1c0.2,0,0.2,0,0.2-0.2
		l0-0.7h0l-0.4,1h-0.1L24,23.6h0l0,0.4c0,0.2,0,0.3,0,0.3c0,0.1,0.1,0.1,0.2,0.1v0.1h-0.5v-0.1c0.1,0,0.1,0,0.1-0.1
		c0-0.1,0-0.2,0-0.4l0-0.4c0-0.3,0-0.3-0.2-0.3v-0.1h0.5l0.4,0.8l0.3-0.8H25.3z"/>
	<path class="st1" d="M25.6,23.6c0-0.2,0-0.2-0.2-0.2v-0.1h1c0,0,0,0.2,0,0.3l-0.1,0c0-0.1,0-0.2-0.1-0.2c0,0-0.1,0-0.2,0h0
		c-0.1,0-0.1,0-0.1,0.1v0.4h0.1c0.2,0,0.2,0,0.2-0.2h0.1v0.5h-0.1c0-0.2,0-0.2-0.2-0.2H26v0.3c0,0.1,0,0.2,0,0.2c0,0,0.1,0,0.1,0
		c0.1,0,0.2,0,0.2-0.1c0,0,0.1-0.1,0.1-0.2l0.1,0c0,0.1-0.1,0.3-0.1,0.4h-1v-0.1c0.2,0,0.2,0,0.2-0.2V23.6z"/>
	<path class="st1" d="M27.2,24.5L27.2,24.5c0.1,0,0.1,0,0.1-0.1l-0.1-0.2h-0.3l-0.1,0.2c0,0.1,0,0.1,0.1,0.1l0.1,0v0.1h-0.5v-0.1
		c0.1,0,0.1,0,0.2-0.2l0.4-1l0.1,0l0.1,0.4c0.1,0.2,0.2,0.5,0.2,0.7c0.1,0.2,0.1,0.2,0.2,0.2v0.1L27.2,24.5L27.2,24.5z M27,24h0.3
		l-0.1-0.4h0L27,24z"/>
	<path class="st0" d="M20.1,40.7c0,0.3-0.2,0.5-0.5,0.5c-0.3,0-0.5-0.2-0.5-0.5s0.2-0.5,0.5-0.5C19.8,40.2,20.1,40.4,20.1,40.7"/>
	<path class="st0" d="M25.4,41.6c0,0.3-0.2,0.5-0.5,0.5c-0.3,0-0.5-0.2-0.5-0.5c0-0.3,0.2-0.5,0.5-0.5
		C25.2,41.1,25.4,41.3,25.4,41.6"/>
	<path class="st0" d="M22.4,3.6c0,0.3-0.2,0.5-0.5,0.5c-0.3,0-0.5-0.2-0.5-0.5c0-0.3,0.2-0.5,0.5-0.5C22.2,3.1,22.4,3.3,22.4,3.6"/>
	<path class="st0" d="M34.9,8.5c0,0.3-0.3,0.5-0.5,0.5c-0.3,0-0.5-0.3-0.5-0.5c0-0.3,0.3-0.5,0.5-0.5C34.7,8,34.9,8.2,34.9,8.5"/>
	<path class="st0" d="M8.5,31.1c0.2,0.3,0.3,0.6,0.3,0.9c0,0.4-0.1,0.7-0.8,1.1l-1.9,1.4L5.8,34c0,0,1.9-1.4,2-1.4
		c0.3-0.2,0.5-0.4,0.5-0.7c0-0.2-0.1-0.4-0.2-0.5C7.9,31.1,7.7,31,7.4,31c-0.2,0-0.4,0.1-0.8,0.4l-1.8,1.2l-0.3-0.5L6.2,31
		c0.5-0.3,0.8-0.6,1.2-0.6C7.9,30.4,8.3,30.8,8.5,31.1"/>
	<polygon class="st0" points="2.5,27.4 6.1,26.1 6.3,26.7 4.2,29.2 6.8,28.2 7,28.7 3.5,30.1 3.3,29.5 5.3,27 2.7,27.9 	"/>
	<rect x="2" y="24.2" transform="matrix(-0.9892 0.1467 -0.1467 -0.9892 11.2863 48.2297)" class="st0" width="3.8" height="0.6"/>
	<polygon class="st0" points="1.8,20 1.8,19.3 5.6,20.8 5.6,21.5 1.7,22.6 1.7,22 4.9,21.1 	"/>
	<path class="st0" d="M5.3,11.4c-0.5,0-0.8,0.3-1.1,0.9l-0.4,0.8L7.1,15l0.3-0.5l-1.4-0.8L6,13.5c0.2-0.4,0.3-0.5,0.9-0.4L8,13.2
		l0.3-0.6l-1.3-0.1c-0.3,0-0.5,0-0.6,0c-0.1,0-0.1,0-0.2,0.1c0-0.1,0-0.1,0-0.2c0-0.1,0-0.2,0-0.3c-0.1-0.2-0.2-0.4-0.5-0.5
		C5.6,11.5,5.5,11.4,5.3,11.4 M4.6,12.6C4.8,12.2,5,12,5.2,12c0.1,0,0.2,0,0.3,0.1c0.1,0.1,0.3,0.2,0.3,0.4c0,0.1,0,0.1,0,0.2
		c0,0.2-0.1,0.5-0.3,0.7l-0.1,0.1l-1.1-0.6L4.6,12.6z"/>
	<rect x="10.5" y="5.4" transform="matrix(-0.7954 0.6061 -0.6061 -0.7954 23.9309 6.5868)" class="st0" width="0.6" height="3.8"/>
	<polygon class="st0" points="11.5,4.5 14,3.2 14.3,3.7 13.3,4.2 14.8,7.1 14.3,7.4 12.8,4.5 11.8,5 	"/>
	<polygon class="st0" points="17.7,2.1 18.4,1.9 17.8,4.4 18.3,5.9 17.7,6.1 17.3,4.6 15.5,2.7 16.1,2.5 17.4,3.9 	"/>
	<polygon class="st0" points="29.4,7.3 31.3,4 33.1,5.1 32.9,5.5 31.6,4.7 31,5.7 32.3,6.4 32,6.8 30.8,6.1 29.9,7.6 	"/>
	<polygon class="st0" points="39.2,15.8 40.6,14.1 40.8,14.8 39.8,16 41.3,16.3 41.5,16.9 39.4,16.4 37.9,18.2 37.7,17.6 38.8,16.3 
		37.1,15.9 36.9,15.3 	"/>
	<polygon class="st0" points="38.1,19.6 41.9,19.2 42.1,21.4 41.6,21.4 41.4,19.9 40.4,20 40.5,21.4 40,21.4 39.9,20 38.2,20.2 	"/>
	<path class="st0" d="M39.8,23c-0.4,0-0.8,0.1-1.2,0.4c-0.6,0.4-0.7,1-0.7,1.4c0,1.3,1.2,1.8,2.1,1.8c0.4,0,0.8-0.1,1.2-0.3
		c0.6-0.5,0.7-1.2,0.7-1.4C41.9,23.6,40.9,23,39.8,23 M40.1,25.9c-0.7,0-1.6-0.4-1.6-1.2c0-0.3,0.1-0.6,0.4-0.9
		c0.2-0.2,0.5-0.3,0.9-0.3c0.4,0,1.1,0.1,1.4,0.6c0.1,0.2,0.2,0.4,0.2,0.6c0,0.3-0.1,0.6-0.4,0.9C40.7,25.8,40.4,25.9,40.1,25.9"/>
	<path class="st0" d="M37.6,10.2c-0.4,0-0.8,0.1-1.2,0.4c-0.7,0.5-1,1.1-1,1.6c0,0.3,0.1,0.6,0.3,0.9c0.4,0.6,1,0.8,1.4,0.8
		c0.4,0,0.8-0.1,1.2-0.4c0.5-0.3,1-0.9,1-1.6c0-0.3-0.1-0.6-0.3-0.9C38.7,10.5,38.1,10.2,37.6,10.2 M37,13.4c-0.3,0-0.7-0.1-0.9-0.5
		c-0.1-0.2-0.2-0.4-0.2-0.5c0-0.4,0.3-0.9,0.8-1.2c0.3-0.2,0.7-0.3,0.9-0.3c0.4,0,0.7,0.2,0.9,0.5c0.1,0.2,0.2,0.4,0.2,0.6
		c0,0.4-0.3,0.8-0.8,1.1C37.6,13.2,37.3,13.4,37,13.4"/>
	<path class="st0" d="M27.1,2.4c-0.8,0-1.5,0.5-1.8,1.5c-0.1,0.2-0.1,0.4-0.1,0.6c0,0.4,0.1,0.7,0.2,1c0.4,0.6,1,0.9,1.5,0.9
		c0.3,0,0.5-0.1,0.8-0.2c0.6-0.4,1.1-1.2,1.1-2c0-0.3-0.1-0.7-0.2-0.9C28.3,2.7,27.7,2.4,27.1,2.4 M26.9,5.8c-0.3,0-0.7-0.1-0.9-0.5
		c-0.1-0.2-0.2-0.4-0.2-0.7c0-0.7,0.5-1.6,1.3-1.6c0.5,0,1.1,0.3,1.1,1.2C28.2,4.7,27.8,5.8,26.9,5.8"/>
	<polygon class="st0" points="6,16.2 6.5,16.4 5.9,18.5 2.2,17.5 2.8,15.3 3.3,15.5 2.9,17 3.9,17.3 4.3,15.9 4.8,16 4.4,17.4 
		5.5,17.7 	"/>
	<path class="st0" d="M6.9,8.2C7.5,7.6,8,7.7,8,7.7l0.1,0.5c0,0-0.4,0-0.7,0.4C7.2,8.7,7.2,8.9,7.2,9.1c0,0.1,0,0.2,0.1,0.3
		c0.3,0.2,0.7,0,1-0.1C8.5,9.1,8.8,9,9.1,9c0.2,0,0.5,0.1,0.7,0.3c0.3,0.2,0.4,0.5,0.4,0.8c0,0.3-0.1,0.6-0.4,0.9
		c-0.5,0.5-1.1,0.6-1.1,0.6l-0.1-0.5c0.4-0.1,0.7-0.2,0.9-0.4c0.1-0.2,0.2-0.3,0.2-0.5c0-0.1-0.1-0.3-0.2-0.4
		C9.3,9.7,9.2,9.7,9.1,9.7c-0.2,0-0.5,0.1-0.8,0.2c-0.5,0.2-1,0.3-1.4,0C6.7,9.7,6.6,9.4,6.6,9.1C6.6,8.8,6.7,8.5,6.9,8.2"/>
	<path class="st0" d="M37.1,27.9l1.4,0.7l-0.1,0.2c-0.2,0.4-0.3,0.5-0.9,0.5h-1.1l-0.3,0.6l1.3,0c0.3,0,0.5,0,0.6-0.1
		c0.1,0,0.1-0.1,0.2-0.1c0,0,0,0.1,0,0.1c0,0.1,0,0.3,0.1,0.4c0.2,0.4,0.6,0.6,1,0.6c0.6,0,0.8-0.4,1.1-1c0,0,0.4-0.8,0.4-0.8
		l-3.5-1.6L37.1,27.9z M39.3,30.2c-0.2,0-0.5-0.1-0.6-0.4c0-0.1,0-0.1,0-0.2c0-0.2,0.1-0.4,0.2-0.7l0.1-0.1l1.1,0.5L40,29.6
		C39.8,30,39.6,30.2,39.3,30.2"/>
	<path class="st0" d="M35.1,31.5c-0.4,0.5-0.7,0.9-0.7,1.5c0,0.5,0.2,1,0.8,1.5c0.4,0.3,0.8,0.5,1.2,0.5c0.5,0,1-0.2,1.6-1l0.6-0.8
		l-3-2.4L35.1,31.5z M36.4,34.4c-0.3,0-0.6-0.1-0.9-0.4c-0.3-0.2-0.6-0.6-0.6-1.1c0-0.3,0.2-0.6,0.5-1l0.3-0.3l2.2,1.7l-0.2,0.2
		C37.3,34.1,37,34.4,36.4,34.4"/>
	<path class="st0" d="M43.8,21.9C43.8,9.8,34,0,21.9,0C9.8,0,0,9.8,0,21.9c0,7.2,3.6,14,9.6,18.1c0.6,2.2,2.6,3.8,5,3.8
		c0.6,0,1.3-0.1,1.9-0.4c0.8,0.3,1.6,0.5,2.5,0.7c-0.2,0.7-0.6,1.3-0.9,1.8c0,0,0,0,0,0c0,0,0,0,0,0l0.5,0.5
		c0.1-0.1,0.2-0.1,0.4-0.1c0.4,0,0.8,0.4,0.8,0.8c0,0.4-0.4,0.8-0.8,0.8c-0.4,0-0.7-0.3-0.9-0.5c0,0-0.1,0.4-0.1,0.9
		c0,1.6,1.7,3.4,4.1,4.1c2.4-0.7,4.1-2.5,4.1-4.1c0-0.5-0.1-0.9-0.1-0.9c-0.2,0.2-0.5,0.5-0.9,0.5c-0.5,0-0.8-0.4-0.8-0.8
		c0-0.5,0.4-0.8,0.8-0.8c0.2,0,0.3,0,0.4,0.1l0.4-0.4c0,0,0,0,0,0c-0.3-0.6-0.4-1.1-0.6-1.7c3.9-0.5,7.3-2.2,9.9-5l0,0
		C40.6,35.1,43.8,28.8,43.8,21.9 M14.5,43.1c-2.5,0-4.5-2-4.5-4.5c0-0.8,0.2-1.5,0.5-2.2c0.2,0.2,0.5,0.4,0.7,0.7
		c-0.2,0.5-0.3,1-0.3,1.5c0,1.4,0.7,2.5,2,3.2c0.7,0.4,1.6,0.8,2.5,1.2C15.1,43.1,14.8,43.1,14.5,43.1 M21.9,36.5
		c-0.9,0-1.9-0.1-2.8-0.3c-0.9-1.7-2.7-2.8-4.6-2.8c-0.5,0-0.9,0.1-1.4,0.2c-3.7-2.8-5.9-7.2-5.9-11.8c0-8.1,6.6-14.7,14.7-14.7
		c8.1,0,14.7,6.6,14.7,14.7C36.6,30,30,36.5,21.9,36.5 M25.2,36.8c-0.4,0.6-0.7,1.5-0.8,2.4c-1.4-0.4-2.7-0.8-3.7-1.3
		c0.2-0.4,0.8-0.7,1.3-0.7C23,37.1,24.1,37,25.2,36.8 M20.5,37.1c-0.2,0.1-0.3,0.3-0.4,0.5c-0.6-0.3-1.3-0.6-1.7-0.9
		C19,36.8,19.8,37,20.5,37.1 M14.5,34.1c1.5,0,2.9,0.8,3.8,2c-0.7-0.2-1.4-0.4-2.1-0.7l0,0l0,0c-0.5-0.2-1-0.3-1.5-0.3
		c-1.2,0-2.3,0.6-2.9,1.5c-0.3-0.2-0.6-0.3-0.8-0.5C11.6,34.8,13,34.1,14.5,34.1 M24.9,45.6c-0.8,0-1.5,0.6-1.5,1.4
		c0,0.9,0.7,1.4,1.5,1.4c0.1,0,0.2,0,0.3,0c-0.2,1.2-1.6,2.6-3.4,3.2c-1.8-0.6-3.2-2-3.4-3.2c0.1,0,0.2,0,0.3,0
		c0.9,0,1.5-0.6,1.5-1.4c0-0.8-0.6-1.4-1.4-1.4c0.2-0.5,0.5-0.9,0.7-1.4c1,0.2,2,0.3,2.9,0.3c0.8,0,1.5,0,2.2-0.1
		C24.7,44.7,24.8,45.2,24.9,45.6C25,45.6,24.9,45.6,24.9,45.6 M22.4,43.8c-2.9,0-6.6-1-9.1-2.5c-0.8-0.5-1.7-1.3-1.7-2.7
		c0-0.4,0.1-0.8,0.2-1.1c0.9,0.8,1.9,1.5,2.5,1.8c0.1,0.1,0.2,0.1,0.4,0.1c0.4,0,0.7-0.3,0.7-0.7c0-0.3-0.2-0.5-0.4-0.7
		c-0.5-0.2-1.6-0.7-2.8-1.3c0.5-0.7,1.4-1.2,2.4-1.2c0.4,0,0.9,0.1,1.3,0.3l0.8,0.5c2.6,1.6,9.1,5.6,17.1,3.4
		C30.7,42.5,27,43.8,22.4,43.8 M34.7,38.8c-3.6,1.3-6.9,1.2-9.7,0.5c0.1-1.3,0.6-2.6,1.4-2.9c6.2-1.9,10.8-7.8,10.8-14.6
		c0-8.4-6.9-15.3-15.3-15.3c-8.4,0-15.3,6.9-15.3,15.3c0,4.7,2.2,9.1,5.9,12c-0.9,0.4-1.6,1-2.2,1.8c-0.3-0.2-0.5-0.4-0.8-0.6
		l-0.1,0.1c0.2,0.2,0.4,0.5,0.7,0.8c-0.5,0.8-0.7,1.7-0.7,2.6c0,0.1,0,0.3,0,0.4c-5.5-4-8.7-10.4-8.7-17.2
		c0-11.7,9.5-21.2,21.2-21.2c11.7,0,21.2,9.5,21.2,21.2C43.1,28.6,40.1,34.7,34.7,38.8"/>
</g>
</svg>
