<?xml version="1.0" encoding="utf-8"?>
<!-- Generator: Adobe Illustrator 19.1.0, SVG Export Plug-In . SVG Version: 6.00 Build 0)  -->
<svg version="1.1" id="Layer_1" xmlns="http://www.w3.org/2000/svg" xmlns:xlink="http://www.w3.org/1999/xlink" x="0px" y="0px"
	 viewBox="0 0 161.8 82.3" style="enable-background:new 0 0 161.8 82.3;" xml:space="preserve">
<style type="text/css">
	.st0{fill:#FFFFFF;}
</style>
<g>
	<path class="st0" d="M10.8,25.8c-0.8-0.5-1.1-1-0.8-1.8c0-0.1-0.2-0.4-0.4-0.5c-0.4-0.2-0.4-0.4-0.4-0.8c0.1-0.3,0-0.7-0.1-1
		c-0.6-1.7-1.3-3.3-1.9-5c-0.2-0.4-0.4-0.7-0.9-0.8c-0.9-0.2-1.2-0.9-0.8-1.8c0.1-0.2,0.1-0.5,0-0.6c-0.8-1.1-0.8-1.5,0.3-2.4
		c-0.1-0.1-0.1-0.3-0.2-0.5C5.4,9.7,5.8,9,6.7,8.9c0.5-0.1,0.8-0.2,0.7-0.8C7.3,7.3,8,6.8,8.8,6.9C9,6.9,9.2,7,9.4,7
		c0.8-1.6,1.2-1.8,2.5-1c0.4-0.3,0.9-0.8,1.2-0.7c1,0.2,2.1,0.3,3,0.5c0.6,0.1,1.2,0.8,2,0.9c0.2,0,0.3,0.5,0.5,0.7
		c0.1,0.1,0.3,0.2,0.5,0.2c0.2,0,0.4-0.2,0.5-0.3c0.1-0.5,0.1-1,0.3-1.4c0.2-0.4,0.5-0.8,0.8-1.3c-0.4,0.1-0.6,0.1-1,0.2
		c0-0.9,0-1.7,0-2.5c0-0.8,0.1-1.5,0.2-2.4c1.5,0,3,0,4.5,0c0.7,1.6,0.3,3.3,0.4,5c-0.3-0.1-0.5-0.2-0.9-0.3c0.6,1,1.2,1.9,0.7,3
		c0.4,0,0.8,0,1.2,0c0.2-0.9,0.6-1.4,1.7-1.2c0.1,0,0.4-0.2,0.5-0.4c0.4-0.7,0.9-0.9,1.6-0.5c0.4,0.2,0.6,0.2,1-0.1
		C31,5.1,31.6,5.2,32,5.6c0.3,0.4,0.6,0.4,1,0.2c0.8-0.5,1.5,0,1.9,1.2c1.7,0,1.9,0.1,2.1,1.7c1.8,0.7,1.8,0.7,1.4,2.2
		c0.3,0.5,0.9,0.9,0.9,1.3c-0.1,1-0.6,1.9-0.5,3c0,0.2-0.6,0.4-1,0.6c-0.2,0.2-0.6,0.3-0.7,0.5c-0.7,1.8-1.3,3.7-2,5.6
		c0,0-0.1,0.1,0,0.1c0.3,0.7,0.3,1.3-0.6,1.7c-0.1,0-0.1,0.3-0.1,0.4c0,0.6-0.1,1.1-0.2,1.9c0.5,0.6,1.3,1.3,2,2.1
		c4.1,4.5,6.5,9.7,7.7,15.6c1.5,7.4,0.7,14.6-2.4,21.4c-2.5,5.3-6.2,9.6-11.5,12.2c-0.9,0.4-1.8,0.8-2.8,1.1
		c-0.6,0.2-0.9,0.5-1.1,1.1c-0.5,1.7-1.7,2.6-3.4,2.8c-1.9,0.2-3.6-1-4.2-2.8c-0.2-0.5-0.4-0.7-0.9-0.9c-3.6-1-6.6-2.8-9.2-5.4
		C8.4,73,8,72.9,7.7,72.8c-0.5-0.1-0.7-0.4-0.8-0.9c-0.1-0.4-0.2-0.9-0.4-1.2c-2.8-4-4.8-8.4-5.8-13.2C-1,48.8,0.4,40.4,4.8,32.7
		c1.4-2.5,3.2-4.8,5.5-6.6C10.5,26,10.6,25.9,10.8,25.8z M26.3,72.3c0.4,0.2,0.5,0.2,0.6,0.2c2.4,0.6,4.9,0.9,7.4,0.8
		c0.3,0,0.8-0.2,1-0.5c1.5-1.7,3.1-3.4,4.3-5.3c4.4-7.3,5.5-15.3,3.9-23.7c-1.2-6.3-4-11.7-8.5-16.2c-3.4-3.4-7.5-5.3-12.4-5.4
		c-5.4,0-9.9,2.2-13.5,6.2c-7.1,8-9.4,17.4-7.9,27.8c0.7,4.8,2.7,9.2,5.4,13.3c0.4,0.5,0.7,1,1.3,1.8c0.5-0.6,0.8-1.1,1.3-1.5
		c0.3-0.3,0.4-0.6,0.2-1c-0.2-0.4-0.4-0.9-0.6-1.3c0.3,0,0.4,0.1,0.6,0.2c1.3,0.9,1.3,0.8,2.5-0.2c0.5-0.5,0.6-0.8,0.2-1.4
		c-1.5-2.2-2.6-4.6-3.4-7.2C7.2,54.8,7,50.6,7.5,46.4c0.7-5.5,2.6-10.4,6.9-14.2c3-2.7,6.4-4,10.4-3.1c3,0.7,5.4,2.6,7.3,5
		c4.8,6.3,6.5,13.6,5.1,21.4c-1.1,6.4-3.9,11.8-9.7,15.3C27.1,71,26.8,71.7,26.3,72.3z M37,50.8c0.1-3.9-0.8-7.5-2.3-11.1
		c-1.5-3.6-3.7-6.8-7.3-8.8c-3.3-1.9-6.6-1.9-9.9-0.1c-2.1,1.1-3.8,2.7-5.2,4.6c-2.4,3.2-3.6,6.8-4.2,10.7c-1,7,0.3,13.5,4.2,19.5
		c0.2,0.4,0.5,0.6,1,0.6c0.6-0.1,0.9,0.4,0.9,1.1c0,0.3,0.1,0.7,0.3,0.9c0.2,0.3,0.6,0.5,0.9,0.8c3,2.2,6.3,3.1,10,1.8
		c3.2-1.1,5.6-3.3,7.5-6C35.8,60.5,36.8,55.8,37,50.8z M33.7,74.1c-0.2-0.1-0.3-0.1-0.4-0.1c-4.8-0.2-9.6-1-14.2-2.5
		c-2-0.7-3.9-1.7-5.5-3.2c-0.8-0.8-0.8-0.8-1.6-0.1c-0.3,0.3-0.8,0.4-0.6,1c0.2,0.9-0.2,1.3-1.2,1.1c-0.2,0-0.6,0-0.7,0.2
		c-1.3,1.1-1.4,1.1-0.2,2.3c5,4.9,10.9,6.7,17.8,4.9C29.6,77.1,31.7,75.9,33.7,74.1z M9.2,17.4c0.3-1,0.6-1.7,0.9-2.5
		c-0.5,0.2-1,0.4-1.6,0.6c-0.5,0.1-0.6,0.4-0.4,0.9c0.6,1.6,1.2,3.3,1.9,5c0.1,0.2,0.3,0.5,0.5,0.6c0.7,0.2,0.8,0.6,0.4,1.5
		c3.6-2.2,7.3-3.4,11.4-3.5c4.1,0,7.7,1.3,11.3,3.3c-0.2-0.7,0.1-1.1,0.6-1.4c0.2-0.1,0.4-0.3,0.4-0.5c0.6-1.7,1.2-3.5,1.8-5.2
		c0.1-0.2-0.1-0.6-0.3-0.6c-0.6-0.3-1.2-0.4-2-0.7c0.7,0.8,1.1,1.6,0.9,2.6c-1.1-0.1-1.5-0.9-1.9-1.7c-0.3,0.9-0.5,1.8-0.8,2.7
		c0.7-0.1,1.3-0.4,1.8-0.4c0.7,0,0.8,0.3,0.5,0.9c-0.5,1.1-1.8,1.8-3.2,1.7c-1.2-0.1-2.2-1-2.6-2.2c-0.1-0.3-0.3-0.6-0.6-0.8
		c-0.1-0.1-0.5,0.2-0.7,0.4c-0.8,0.8-2.1,1-3.2,0.5c-1.2-0.6-1.9-1.8-1.7-3.2c0.7,0.5,1.3,0.9,2,1.3c0-1,0-2.1,0-3.2
		c-0.6,0.7-1,1.4-2,1.3c0.2-1,0.7-1.7,1.5-2.1c-1.3,0-2.7,0-4.2,0c0.8,0.5,1.4,1.1,1.4,2c-0.9,0.2-1.2-0.6-1.8-1.1
		c0,0.6,0,1.1,0,1.7c0,0.5,0,1,0,1.5c0.5-0.4,0.9-0.8,1.4-1.1c0.1,0,0.5,0.2,0.5,0.3c-0.1,1.2-0.6,2.1-1.7,2.6
		c-1.1,0.5-2.1,0.5-3.1-0.3c-0.8-0.7-1.1-0.6-1.5,0.4c-0.5,1.2-1.7,2.1-3,2c-1.2,0-2.4-1-2.8-2.2c0.9-0.6,1.7-0.3,2.7,0.3
		c-0.4-1.1-0.8-2-1.1-2.9C10.9,16.5,10.5,17.1,9.2,17.4z M18.6,11.3c-1.3-1.5-3.9-2.6-5.8-2.5c-1.8,0.2-3.5,1.5-3.9,3.2
		c-0.2,0.8-0.1,1.5,0.2,1.9c1-0.2,1.7-0.4,2.5-0.4c0.4,0,0.7-0.1,0.9-0.4c0.8-1.2,2.3-1.9,3.7-1.4C17.1,12,17.8,11.8,18.6,11.3z
		 M25.8,11.2c0.4,0.2,0.8,0.3,1,0.5c0.4,0.4,0.8,0.3,1.2,0.1c1.4-0.7,2.9-0.2,3.8,1c0.2,0.2,0.5,0.5,0.7,0.5c1-0.1,2,0,2.9,0.9
		c0.1-0.6,0.3-1,0.3-1.4c0-2-1.4-3.7-3.6-4C29.5,8.3,27.7,9.8,25.8,11.2z M22.9,20.5c-4.6,0-8.3,1.4-11.8,3.5
		c-0.2,0.1-0.3,0.6-0.4,0.8c0.3,0,0.7,0.2,1,0.1c0.3-0.1,0.6-0.4,0.9-0.6c1.7-0.8,3.3-1.7,5-2.2c5.4-1.4,10.5-0.4,15.1,2.7
		c0.3,0.2,0.7,0.6,1.1,0.1c0.3-0.4,0-0.8-0.4-1C30,21.8,26.4,20.5,22.9,20.5z M8.8,14.7c0-0.2,0-0.3-0.1-0.4
		c-1.2-2.9,0.5-5.3,3.4-5.9c2-0.4,3.9,0.2,5.6,1.4c0.5,0.4,1.1,0.8,1.7,1.1c0.2,0.1,0.5,0,0.7-0.1c-0.1-0.2-0.2-0.6-0.4-0.7
		c-0.5-0.4-1.1-0.6-1.5-1c-1.6-1.3-3.5-1.8-5.5-1.7C9.2,7.8,6.4,11,7.7,14.4C7.9,15,8.2,15.2,8.8,14.7z M24.4,11
		c0.1,0.1,0.1,0.1,0.2,0.2c0.4-0.2,0.9-0.4,1.3-0.6c1-0.6,1.9-1.3,3-1.8c2-0.9,3.9-0.6,5.6,0.7c1.6,1.2,1.7,2.8,1.3,4.6
		c0,0.2,0.2,0.4,0.3,0.6c0.2-0.1,0.5-0.2,0.5-0.4c0.6-1.4,0.4-2.8-0.3-4.1c-1.6-2.8-5.6-3.7-8.5-2c-1,0.6-2,1.2-3,1.9
		C24.6,10.4,24.6,10.7,24.4,11z M13.7,17.6c0-0.1,0-0.2,0-0.3c0.1-0.4,0.1-0.9,0.3-1.1c0.1-0.1,0.7,0.1,1,0.2c0.5,0.2,1.1,0,1.3-0.5
		c0.3-0.7,0.9-0.9,1.3-0.4c0.2,0.2,0.3,0.5,0.4,0.7c0.9-0.5,0.7-1.8,0.1-2.1c-0.4-0.2-1-0.3-1.3-0.1c-0.4,0.2-0.6,0.7-0.9,1.1
		c-0.1-1-0.4-1.9-1.3-2.5c-0.1,0-0.2,0-0.3,0.1c0.1,0.9,0.1,1.7,0.2,2.6c-0.9-0.3-1.5-0.1-1.8,0.5C12.4,16.5,12.8,17.2,13.7,17.6z
		 M26.3,16.1c0.3-0.3,0.6-0.7,1-0.9c0.2-0.1,0.7,0.2,0.8,0.4c0.4,0.7,0.8,0.8,1.5,0.4c0.7-0.4,1.3,0,1.3,0.8c0,0.1,0,0.3,0,0.4
		c0.9-0.4,1.3-1,1.1-1.6c-0.1-0.3-0.4-0.7-0.6-0.7c-0.5-0.1-1,0-1.4,0c0-0.7,0.1-1.6,0.1-2.5c-0.1,0-0.2,0-0.3-0.1
		c-0.7,0.7-1.2,1.5-1.3,2.6c-1-1.2-1.6-1.4-2.2-0.9C25.7,14.8,25.8,15.6,26.3,16.1z M24.4,1.2c-0.1,0-0.1,0-0.2-0.1
		c-0.3,0.7-0.7,1.2-1.5,1.2c0-1,0.7-1.4,1.5-1.9c-1.3,0-2.5,0-3.7,0c0.7,0.6,1.4,1,1.2,2.2c-0.6-0.5-1-0.8-1.5-1.2c0,1,0,1.9,0,3
		c0.5-0.6,0.7-1.4,1.6-1.3c0,0.4,0,0.8,0,1.1c1.3,0.5,0.8-0.6,1-1.3c0.6,0.5,1.1,1,1.6,1.4C24.4,3.2,24.4,2.2,24.4,1.2z M19.7,79.1
		c0,1,0.5,1.4,1.2,1.9c1.5,1,3.4,0.6,4.2-1c0.3-0.6,0.2-0.8-0.3-0.8C23.1,79.1,21.4,79.1,19.7,79.1z M24.3,7.3
		c0.2-0.4,0-0.7-0.5-0.8c-0.7-0.1-1.2-0.3-1.1-1.2c0-0.2-0.3-0.3-0.4-0.5c-0.2,0.2-0.4,0.3-0.5,0.5c-0.1,0.3,0,0.6,0,0.9
		c-1.5,0.4-1.5,0.4-1.5,1C21.6,7.3,22.9,7.3,24.3,7.3z M23.9,11.7c0-0.6,0.1-1.3,0.1-1.9c0-0.1-0.1-0.3-0.2-0.3
		c-0.1,0-0.3,0-0.3,0.1C23.2,9.9,23.3,11.4,23.9,11.7z M23.2,11c-0.5-0.3-0.7-0.6-1-0.7c-0.2,0-0.4,0.3-0.7,0.5
		c0.3,0.2,0.5,0.5,0.8,0.7C22.5,11.6,22.8,11.3,23.2,11z M9.5,68.1c-0.1,0-0.1,0.1-0.2,0.1c0.3,0.5,0.6,1,0.9,1.5
		c0.1,0.1,0.4,0.1,0.6,0.1c0-0.2,0.1-0.5-0.1-0.7C10.4,68.8,10,68.5,9.5,68.1z M38.8,14.6c-0.4-0.3-0.7-0.6-0.9-0.6
		c-0.2,0-0.4,0.3-0.6,0.5c0.2,0.2,0.4,0.5,0.7,0.6C38.1,15.2,38.4,14.9,38.8,14.6z M21.3,10.7c-0.2-0.4-0.3-0.8-0.4-1.1
		c-0.1,0.4-0.3,0.7-0.3,1.1c0,0.4,0.2,0.7,0.3,1.1C20.9,11.4,21.1,11.1,21.3,10.7z M17.6,8.5c0.3-0.4,0.6-0.6,0.5-0.8
		c0-0.2-0.4-0.6-0.6-0.6c-0.2,0-0.6,0.3-0.6,0.6C17,7.9,17.3,8.1,17.6,8.5z M6.6,13.8C6.3,14.2,6,14.5,6,14.7c0,0.2,0.3,0.5,0.6,0.6
		c0.1,0,0.6-0.3,0.6-0.5C7.2,14.5,6.9,14.3,6.6,13.8z M38.2,11.5c-0.3,0.4-0.6,0.7-0.5,0.9c0.1,0.2,0.4,0.5,0.6,0.6
		c0.1,0,0.5-0.4,0.5-0.5C38.8,12.2,38.5,11.9,38.2,11.5z M7,12.4c-0.4-0.3-0.6-0.6-0.8-0.6c-0.2,0-0.6,0.3-0.6,0.5
		c0,0.2,0.3,0.6,0.5,0.6C6.3,12.9,6.5,12.6,7,12.4z M26.2,8.7c-0.4-0.2-0.7-0.5-0.9-0.5c-0.2,0-0.5,0.4-0.5,0.6
		c0,0.2,0.4,0.5,0.6,0.5C25.7,9.3,25.9,9,26.2,8.7z M22.2,10.2c0.3-0.2,0.6-0.4,0.8-0.6c-0.2-0.2-0.5-0.5-0.7-0.5
		c-0.3,0-0.5,0.3-0.7,0.5C21.7,9.8,21.9,9.9,22.2,10.2z M9.3,8C8.9,7.7,8.7,7.4,8.5,7.4C8.3,7.5,8.1,7.8,7.9,8
		c0.2,0.2,0.4,0.5,0.6,0.5C8.7,8.5,8.9,8.3,9.3,8z M20,8.8c-0.4-0.3-0.6-0.5-0.8-0.6c-0.2,0-0.5,0.4-0.5,0.5c0,0.2,0.3,0.5,0.5,0.5
		C19.5,9.3,19.7,9,20,8.8z M6.9,9.2C6.6,9.6,6.3,9.8,6.2,10c0,0.2,0.3,0.4,0.5,0.6c0.2-0.2,0.5-0.3,0.7-0.6C7.4,9.9,7.1,9.6,6.9,9.2
		z M27.9,7.5C27.5,7.3,27.2,7,27,7c-0.2,0-0.5,0.4-0.5,0.5c0,0.2,0.3,0.5,0.6,0.6C27.3,8.1,27.5,7.8,27.9,7.5z M35.9,7.2
		c-0.3,0.4-0.5,0.7-0.5,0.8c0.1,0.2,0.4,0.4,0.6,0.6c0.2-0.2,0.5-0.4,0.5-0.6C36.4,7.8,36.2,7.6,35.9,7.2z M37.6,10.7
		c0.1,0,0.2,0,0.3,0c0.1-0.2,0.3-0.5,0.3-0.7c0-0.2-0.3-0.4-0.5-0.6c-0.2,0.2-0.5,0.4-0.5,0.6C37.1,10.2,37.4,10.5,37.6,10.7z
		 M34.6,6.7c-0.4-0.3-0.6-0.6-0.8-0.5c-0.2,0-0.4,0.4-0.6,0.6c0.2,0.2,0.4,0.5,0.7,0.5C34,7.3,34.2,7,34.6,6.7z M13.3,5.6
		c-0.3,0.4-0.6,0.6-0.5,0.8c0,0.2,0.4,0.4,0.6,0.6c0.2-0.2,0.5-0.4,0.5-0.7C13.9,6.2,13.6,5.9,13.3,5.6z M16.6,6.8
		c-0.4-0.3-0.7-0.5-0.9-0.5c-0.2,0-0.3,0.3-0.5,0.5c0.2,0.2,0.4,0.5,0.6,0.5C16,7.3,16.2,7,16.6,6.8z M32.2,6.3
		c-0.4-0.2-0.7-0.5-0.9-0.5c-0.2,0-0.4,0.3-0.5,0.5c0.2,0.2,0.4,0.5,0.6,0.5C31.6,6.9,31.8,6.6,32.2,6.3z M29.8,6.6
		c-0.4-0.2-0.6-0.5-0.8-0.5c-0.2,0-0.4,0.3-0.6,0.5c0.2,0.2,0.4,0.5,0.6,0.5C29.2,7.2,29.5,6.9,29.8,6.6z M10.7,7.5
		c0.3-0.4,0.5-0.6,0.6-0.8c0-0.2-0.3-0.4-0.5-0.6c-0.2,0.2-0.5,0.4-0.6,0.6C10.2,6.9,10.4,7.1,10.7,7.5z M16.8,16.8
		c0-0.1-0.1-0.2-0.1-0.3c-0.5,0.2-1.1,0.3-1.6,0.5c0,0.1,0.1,0.2,0.1,0.3C15.8,17.3,16.4,17.2,16.8,16.8z M24,71.9
		c1.4,0.5,1.9,0.5,1.7-0.4C25.1,71.6,24.6,71.8,24,71.9z M28,16.3c0,0.1-0.1,0.3-0.1,0.4c0.5,0.2,1,0.3,1.5,0.5
		c0-0.1,0.1-0.3,0.1-0.4C29,16.7,28.5,16.5,28,16.3z M23.3,5.1c-0.1,0-0.2,0.1-0.3,0.1c0.1,0.3,0.1,0.6,0.2,0.8
		c0.2,0.1,0.5,0.1,0.8,0.1c0-0.1,0.1-0.2,0.1-0.2C23.8,5.6,23.6,5.4,23.3,5.1z M21.3,5.1c-0.3,0.4-0.6,0.7-0.9,1
		C21.3,6.3,21.5,6.1,21.3,5.1z M34.4,22.1c-0.2,0.2-0.5,0.4-0.5,0.5c0,0.2,0.2,0.3,0.3,0.5c0.2-0.1,0.4-0.2,0.4-0.4
		C34.8,22.6,34.6,22.4,34.4,22.1z"/>
	<path class="st0" d="M112.8,48.4c1.8-5,3.6-10,5.3-15c0,0,0.1,0,0.3,0c-0.3,0.8-0.5,1.6-0.8,2.3c-1.7,4.7-3.3,9.4-5,14.2
		c0,0.1-0.1,0.2-0.1,0.3c-0.1,0.2-0.2,0.3-0.4,0.4c-0.1-0.1-0.3-0.3-0.3-0.4c-0.5-1.4-1-2.8-1.5-4.3c-0.5-1.5-1-3-1.6-4.7
		c-0.6,1.8-1.2,3.3-1.8,4.9c-0.5,1.3-0.9,2.7-1.4,4c-0.1,0.2-0.3,0.3-0.4,0.4c-0.1-0.1-0.3-0.2-0.3-0.4c-1.9-5.5-3.8-11.1-5.6-16.6
		c0,0,0-0.1,0-0.2c0.5,0,0.9,0,1.5,0c1.7,4.9,3.3,9.9,5,15.1c0.4-1,0.6-1.8,0.9-2.6c0.2-0.6,0.4-1.1,0.6-1.7
		c0.4-1.2,1.1-2.4,1.1-3.6c0-1.2-0.7-2.4-1.2-3.6c-0.4-1.2-0.8-2.3-1.2-3.5c0.1,0,0.1-0.1,0.2-0.1c1.4-0.1,1.4-0.1,1.8,1.2
		c0.4,1.3,0.9,2.6,1.4,4.1c0.3-0.8,0.5-1.4,0.7-2c0.3-1,0.7-2,1-2.9c0.1-0.2,0.3-0.3,0.4-0.5c0.1,0,0.1,0.1,0.2,0.1
		c-0.6,1.8-1.3,3.5-1.9,5.3c-0.1,0.3-0.2,0.7-0.1,1c0.9,2.8,1.9,5.5,2.8,8.3C112.6,48.2,112.7,48.2,112.8,48.4z"/>
	<path class="st0" d="M127.6,70.5c0-5.1,4.2-9,9.5-8.9c5.2,0.1,9.2,4.1,9.1,9.1c-0.1,5.1-4.2,8.9-9.6,8.8
		C131.5,79.4,127.5,75.5,127.6,70.5z M129.2,70.5c0.2,1.1,0.3,2.2,0.6,3.2c0.9,3.1,3.6,5.1,6.7,5.3c3.1,0.2,5.8-1.5,7-4.4
		c1.3-3,1.2-6.1-0.5-9c-2.3-4.1-7.8-4.9-11.2-1.7C130,65.7,129.4,68,129.2,70.5z"/>
	<path class="st0" d="M105,70.5c0-5,4.1-8.9,9.3-8.9c5.2,0,9.3,3.9,9.3,9c0,5-4,8.9-9.3,8.9C108.9,79.5,105,75.7,105,70.5z
		 M106.6,70.6c0.2,1.1,0.3,2.2,0.7,3.3c1.1,3,3.2,4.8,6.5,5.2c3,0.3,5.3-1,6.8-3.5c1.9-3.4,1.8-6.9-0.3-10.2
		c-2.3-3.7-7.5-4.3-10.7-1.4C107.5,65.6,106.7,67.9,106.6,70.6z"/>
	<path class="st0" d="M77.8,22.2c-3.7-0.1-6.6-1.5-8.3-4.9c-1.6-3.3-1.4-6.5,0.9-9.4c2.5-3.2,6-4.2,10-3.3c3.8,0.9,6.1,3.5,6.7,7.4
		c0.8,5.1-3.3,10-8.6,10.1C78.3,22.2,78,22.2,77.8,22.2z M70.2,13.3c0.3,1.2,0.4,2.4,0.8,3.5c1.2,3.1,3.5,4.8,6.9,4.9
		c2.9,0.1,5.1-1.3,6.4-3.8c1.7-3.3,1.6-6.6-0.3-9.8c-2.7-4.3-8.8-4.6-11.9-0.5C70.8,9.3,70.3,11.2,70.2,13.3z"/>
	<path class="st0" d="M75.3,42.1c2.7,2.7,5.4,5.3,8.1,8c0,0.1-0.1,0.1-0.1,0.2c-0.9,0-1.7,0.2-2.4-0.6c-2-2.2-4.1-4.3-6.1-6.5
		c-0.7-0.8-1.5-1.2-2.7-0.9c0,2.6,0,5.3,0,7.9c-0.6,0-1,0-1.5,0c0-5.6,0-11.2,0-17c1.9,0.1,3.7,0,5.6,0.3c1.9,0.3,3.3,2,3.3,3.7
		c0.1,2.1-0.9,3.7-2.9,4.4C76.1,41.9,75.7,42,75.3,42.1z M72,41.8c2,0.1,4,0.3,5.2-1.8c0.8-1.4,0.7-3.7-0.2-4.9
		c-1.3-1.6-3.2-1.3-5-1.3C72,36.5,72,39.1,72,41.8z"/>
	<path class="st0" d="M53.8,4.8c1.7,0,3.3-0.1,4.9,0c2.2,0.2,3.8,1.8,4,3.6c0.2,2.3-0.9,4-3.2,4.7c-0.3,0.1-0.5,0.2-1,0.3
		c2.8,2.6,5.5,5.2,8.2,7.8c-0.1,0.1-0.2,0.2-0.3,0.3c-0.8,0.1-1.6,0.2-2.4-0.6c-2.1-2.3-4.3-4.4-6.3-6.7c-0.7-0.8-1.5-0.8-2.5-0.7
		c0,2.6,0,5.3,0,7.9c-0.5,0-1,0-1.6,0C53.8,16,53.8,10.4,53.8,4.8z M55.4,13.2c2,0.1,3.9,0.3,5.1-1.7c0.9-1.4,0.8-3.7-0.2-4.9
		c-0.9-1.2-3.2-1.7-4.9-1.2C55.4,7.9,55.4,10.5,55.4,13.2z"/>
	<path class="st0" d="M89.4,62c0.5,0,1,0,1.5,0c0,2.7,0,5.3,0,8c2.5,0,4.9,0,7.4,0c0-2.7,0-5.3,0-8c0.6,0,1,0,1.6,0
		c0,5.6,0,11.3,0,16.9c-0.5,0-1,0-1.5,0c0-2.8,0-5.5,0-8.3c-2.5,0-4.9,0-7.4,0c0,2.7,0,5.5,0,8.3c-0.6,0-1,0-1.6,0
		C89.4,73.4,89.4,67.8,89.4,62z"/>
	<path class="st0" d="M53.8,50.4c0-5.7,0-11.3,0-17c2.7-0.1,5.3-0.2,7.7,1.2c3,1.8,4.1,4.6,3.8,7.9c-0.4,4.7-3.9,7.8-8.7,7.8
		C55.7,50.4,54.8,50.4,53.8,50.4z M55.4,49.9c2.6,0.2,4.8-0.3,6.4-2.4c2.3-2.8,2.3-8.5,0-11.3c-1.7-2-3.9-2.5-6.4-2.4
		C55.4,39.2,55.4,44.5,55.4,49.9z"/>
	<path class="st0" d="M160.3,42.7c-1.8,0-3.6,0-5.3,0c-0.2,0-0.4-0.1-0.6-0.2c0.2-0.1,0.4-0.3,0.6-0.3c2.2,0,4.4,0,6.7,0
		c0,1.6-0.1,3.2,0,4.8c0.1,1.3-0.4,2-1.5,2.5c-3.5,1.6-7,1.9-10.4,0.1c-3.4-1.8-4.9-4.7-4.6-8.5c0.3-3.7,2.4-6.3,5.9-7.6
		c3-1.1,6-1,8.8,0.8c0.5,0.3,0.9,0.7,1.4,1.1c-0.3,0.3-0.6,0.6-0.9,0.8c-0.9-1.6-2.3-2.5-4.1-2.8c-1.8-0.4-3.6-0.3-5.3,0.5
		c-2.8,1.3-3.9,3.8-4.2,6.7c-0.3,3.2,0.6,6.1,3.2,8.2c2.7,2.2,7.3,1.7,9.7,0.2c0.1-0.1,0.3-0.3,0.3-0.5
		C160.3,46.7,160.3,44.8,160.3,42.7z"/>
	<path class="st0" d="M84.1,66.7c-0.4,0.3-0.8,0.5-1.2,0.7c-0.8-2.8-2.6-4.6-5.4-5.2c-4.3-1-8.2,1.4-9.2,5.6
		c-0.8,3.4-0.3,6.6,2.3,9.1c3.6,3.6,10.3,2.3,12.6-2.3c0.1-0.2,0.2-0.3,0.3-0.5c0.2,0.1,0.4,0.2,0.6,0.3c-0.5,1.1-1.2,2-2.1,2.8
		c-3.8,3.4-10.3,3-13.6-0.9c-2.2-2.6-2.7-5.5-1.6-8.7c1.2-3.3,3.6-5.3,7.1-5.9c3.9-0.7,7.3,0.3,9.7,3.8
		C83.7,65.9,83.9,66.3,84.1,66.7z"/>
	<path class="st0" d="M130.7,33.1c1.2,1.5,2,3.2,3,4.7c1,1.6,2,3.3,3,4.9c1,1.6,2,3.3,3.1,4.9c0-4.8,0-9.5,0-14.3c0.1,0,0.2,0,0.3,0
		c0,0.3,0.1,0.6,0.1,0.8c0,4.8,0,9.6,0,14.4c0,0.5,0,0.9,0,1.4c0,0.2-0.1,0.4-0.2,0.6c-0.2-0.1-0.4-0.3-0.6-0.4
		c-0.7-1.1-1.4-2.3-2.1-3.5c-2-3.4-4.1-6.9-6.1-10.3c-0.1-0.1-0.1-0.2-0.4-0.3c0,1.2,0,2.4,0,3.6c0,1.2,0,2.4,0,3.6
		c0,1.2,0,2.4,0,3.7c0,1.1,0,2.3,0,3.4c-0.1,0-0.2,0-0.3,0c0-5.7,0-11.4,0-17.1C130.6,33.2,130.6,33.1,130.7,33.1z"/>
	<path class="st0" d="M97.4,50.3c-0.5,0-1,0-1.5,0c-0.6-1.6-1.2-3.3-1.7-5c-0.2-0.6-0.4-0.8-1-0.7c-1.7,0-3.3,0-5,0
		c-0.6,0-0.9,0.2-1,0.8c-0.5,1.5-1,3-1.5,4.5c-0.1,0.2-0.3,0.4-0.4,0.6c-0.1-0.1-0.2-0.1-0.2-0.2c0.8-2.2,1.5-4.3,2.3-6.5
		c1.2-3.3,2.3-6.7,3.5-10c0.1-0.2,0.3-0.4,0.5-0.6c0.1,0.2,0.4,0.4,0.4,0.6c1.9,5.4,3.8,10.7,5.7,16.1C97.4,50,97.4,50.1,97.4,50.3z
		 M90.6,35.2c-1,3.1-2,6-3,8.9c2.1,0,4.1,0,6.1,0C92.7,41.1,91.7,38.3,90.6,35.2z"/>
	<path class="st0" d="M114.9,21.7c-0.3,0-0.5,0-0.7,0c-0.6,0.1-0.9-0.1-1.1-0.8c-0.5-1.5-1-2.9-1.5-4.4c-0.2-0.5-0.4-0.6-0.9-0.6
		c-1.7,0-3.5,0-5.2,0c-0.5,0-0.7,0.2-0.8,0.6c-0.5,1.6-1,3.1-1.6,4.6c-0.1,0.2-0.3,0.4-0.4,0.6c-0.1,0-0.2-0.1-0.2-0.1
		c0.7-2,1.4-4,2.1-6.1c1.2-3.5,2.4-7,3.7-10.5c0.1-0.2,0.3-0.4,0.5-0.5c0.1,0.2,0.3,0.3,0.4,0.5c1.9,5.4,3.8,10.8,5.7,16.2
		C114.8,21.3,114.9,21.5,114.9,21.7z M111.2,15.5c-1-3-2-5.9-3.1-8.9c-1,3.1-2,6-3,8.9C107.1,15.5,109.1,15.5,111.2,15.5z"/>
	<path class="st0" d="M52,76.2c0.4-0.2,0.6-0.4,0.9-0.6c0.5,1.8,1.7,2.9,3.5,3.2c1.2,0.2,2.3,0,3.4-0.6c1.9-1.3,2.2-3.9,0.4-5.4
		c-1-0.8-2.2-1.4-3.4-2.1c-0.9-0.5-1.8-1-2.5-1.7c-2.3-2.2-1.6-5.7,1.3-6.9c1.6-0.6,3.3-0.6,4.8,0.4c0.6,0.4,1.1,1,1.7,1.6
		c-0.4,0.3-0.7,0.4-1,0.6c-0.7-1.9-2-2.6-3.9-2.6c-1.4,0.1-2.6,0.9-3,2.1c-0.5,1.3-0.1,2.7,1,3.6c0.6,0.5,1.3,0.9,2,1.3
		c1,0.6,2.2,1.1,3.2,1.8c1.6,1.1,2.4,2.5,2,4.5C62,77.3,60.8,78.5,59,79c-2.1,0.6-4,0.3-5.7-1.1C52.8,77.4,52.5,76.8,52,76.2z"/>
	<path class="st0" d="M96.4,21.7c-0.5,0-1,0-1.6,0c0-1.2-0.1-2.4,0-3.5c0.3-2.8-0.4-5.2-2-7.5c-1.2-1.8-2.1-3.7-3.2-5.6
		c0,0,0-0.1,0-0.3c0.5,0,1-0.1,1.5,0c0.2,0,0.5,0.3,0.6,0.6c1.3,2.4,2.7,4.9,4,7.3c0.1,0.2,0.3,0.4,0.4,0.8c1.6-3,3.2-5.9,4.8-8.8
		c0.1,0.1,0.2,0.1,0.3,0.2c-0.1,0.2-0.2,0.4-0.3,0.6c-1.5,2.7-2.9,5.3-4.4,8c-0.2,0.4-0.3,0.9-0.3,1.3C96.3,17,96.4,19.3,96.4,21.7z
		"/>
	<path class="st0" d="M151.3,79c0-5.7,0-11.3,0-17c0.5,0,0.9,0,1.5,0c0,5.5,0,11,0,16.5c2.3,0,4.5,0,6.7,0c0,0.1,0,0.1,0.1,0.2
		c-0.1,0.1-0.2,0.3-0.3,0.3C156.6,79,154,79,151.3,79z"/>
	<path class="st0" d="M119.4,21.6c0-5.6,0-11.2,0-16.8c0.5,0,0.9,0,1.4,0c0,5.5,0,10.9,0,16.5c2.3,0,4.5,0,6.7,0c0,0.1,0,0.2,0,0.3
		C124.8,21.6,122.1,21.6,119.4,21.6z"/>
	<path class="st0" d="M122.8,33.4c0.5,0,0.9,0,1.4,0c0,5.6,0,11.3,0,16.9c-0.5,0-0.9,0-1.4,0C122.8,44.7,122.8,39.1,122.8,33.4z"/>
	<path class="st0" d="M24.1,23.8c-0.6,0.9-0.9,1.8-0.2,2.7c0.7-0.9,0.9-2.1,1.6-2.9c0.1,0.1,0.2,0.1,0.3,0.2
		c-0.7,1.4-1.4,2.8-2.2,4.4c-0.3-0.8-0.5-1.3-0.7-2.1c-0.4,0.7-0.7,1.3-1.1,2c-0.5-1.6-1-3-1.5-4.5c0.5-0.2,0.7-0.1,0.9,0.4
		c0.3,0.8,0.6,1.7,0.9,2.6c0.5-0.5,0.7-0.9,0.5-1.5c0-0.1-0.1-0.2-0.1-0.3c0-0.4-0.1-0.8-0.1-1.1c0.3,0.2,0.6,0.5,0.9,0.7
		c0.1-0.1,0.3-0.4,0.5-0.7C24,23.7,24,23.7,24.1,23.8z"/>
	<path class="st0" d="M34.9,65.1c0-1.5,1.1-2.6,2.6-2.6c1.4,0,2.3,1,2.3,2.4c0,1.5-1.2,2.6-2.6,2.6C35.9,67.4,34.9,66.4,34.9,65.1z
		 M39.3,65.1c0-1-1-1.9-2.1-1.9c-1.1,0-1.9,0.6-1.9,1.5c0,1.1,0.9,2.1,2.1,2.1C38.5,66.8,39.3,66.1,39.3,65.1z"/>
	<path class="st0" d="M12.2,30.5c0.3,0.4,0.7,0.7,1,1.1c0.1,0.1,0.1,0.4,0.2,0.6c-0.2,0-0.5,0-0.6-0.1c-0.9-0.9-1.8-1.8-2.7-2.8
		C10,29.1,10,28.8,10,28.7c0.3-0.6,1.4-1.1,2.1-0.9c0.7,0.2,1,0.8,0.8,1.9c0.9,0.1,1.7,0.2,2.6,0.3c-0.4,0.7-1,0.4-1.5,0.4
		c-0.6,0-1.1-0.1-1.7-0.1C12.3,30.3,12.3,30.4,12.2,30.5z M10.3,29c0.4,0.3,0.8,0.6,1.2,0.9c0.2,0.1,0.4,0.2,0.5,0.2
		c0.1-0.1,0.3-0.4,0.3-0.5c-0.2-0.4-0.3-0.9-0.6-1.1C11.3,28.1,10.8,28.3,10.3,29z"/>
	<path class="st0" d="M5.1,65.1c-0.4-0.9-1-1.6-0.3-2.5c0.5-0.7,1.2-0.5,1.8-0.1c0.3-0.9,0.6-1.7,1-2.5c0.5,0.6,0.2,1.1,0,1.6
		c-0.2,0.5-0.4,1-0.7,1.8c0.6-0.2,1-0.4,1.5-0.6c0.2-0.1,0.4,0,0.6,0.1c-0.1,0.2-0.1,0.5-0.2,0.5C7.5,63.9,6.3,64.5,5.1,65.1z
		 M6.8,63.2c-0.3-0.2-0.5-0.5-0.7-0.4c-0.4,0.1-0.9,0.3-1.2,0.5c-0.1,0.1,0,0.5,0,0.8c0.2,0,0.4,0,0.6,0c0.3-0.1,0.6-0.2,0.8-0.4
		C6.5,63.6,6.6,63.4,6.8,63.2z"/>
	<path class="st0" d="M39.8,60.9c-1.4,0-2.4-1-2.4-2.4c0-1.3,1.2-2.4,2.7-2.4c1.2,0,2.2,1.1,2.2,2.5C42.3,60,41.3,60.9,39.8,60.9z
		 M40,60.3c1.1,0,2-0.7,1.9-1.7c0-1-1-1.9-2.1-1.9c-1.1,0-1.9,0.7-1.9,1.7C37.9,59.4,38.8,60.3,40,60.3z"/>
	<path class="st0" d="M40.7,51c0.6,0,1.2,0,1.9,0c0.2,0,0.3,0.3,0.5,0.4c-0.2,0.1-0.3,0.2-0.5,0.3c-0.2,0-0.4,0-0.5,0
		c-1-0.1-1.3,0.4-1,1.3c0,0.2,0.3,0.3,0.5,0.3c0.4,0.1,0.8,0,1.2,0.1c0.2,0,0.3,0.2,0.4,0.3c-0.1,0.1-0.3,0.3-0.4,0.3
		c-1.2,0-2.5-0.1-3.7-0.2c-0.1,0-0.3-0.2-0.3-0.3c0-0.1,0.2-0.3,0.3-0.3c0.2-0.1,0.5,0,0.7,0c0.9,0,1.3-0.5,1-1.3
		c-0.1-0.1-0.3-0.3-0.5-0.3c-0.3-0.1-0.6,0-0.9-0.1c-0.2-0.1-0.4-0.3-0.6-0.4c0.2-0.1,0.4-0.3,0.6-0.3C39.6,50.8,40.2,50.9,40.7,51
		C40.7,51,40.7,51,40.7,51z"/>
	<path class="st0" d="M4.6,59.3c-1.4,0-2.4-1.1-2.4-2.6c0-1.2,1-2.1,2.4-2.1c1.2,0,2.3,1.1,2.3,2.4C6.8,58.3,5.9,59.3,4.6,59.3z
		 M4.5,55.2c-1.1,0-2,0.7-2,1.8c0,1,0.8,1.7,2,1.7c1.1,0,2-0.8,2-1.8C6.4,55.8,5.6,55.1,4.5,55.2z"/>
	<path class="st0" d="M36.4,34.9c-0.2-0.5-0.4-0.8-0.5-1.1c0.1,0,0.1-0.1,0.2-0.1c0.3,0.4,0.6,0.8,0.7,1.2c0.1,0.3-1,1.2-1.4,1
		c-0.8-0.4-1.6-0.9-1.8-1.9c-0.2-0.9,0-1.6,0.6-2.3c0.7-0.7,1.7-0.9,2.6-0.5c1,0.4,1.6,1.4,1.5,2.4c0,0.2-0.2,0.3-0.3,0.5
		c-0.1-0.2-0.2-0.4-0.2-0.5c0-1.3-0.5-2-1.5-2c-1.1,0-2.3,1-2.3,2.1c0,0.7,0.3,1.3,1,1.5C35.4,35.3,35.9,35,36.4,34.9z"/>
	<path class="st0" d="M10.1,36.4c-1.3-0.9-2.4-1.6-3.5-2.4c-0.1-0.1-0.2-0.5-0.2-0.6c0.4-1,1.5-1.5,2.5-1.3c1.1,0.3,2.1,1.4,2,2.4
		C10.8,35.1,10.4,35.7,10.1,36.4z M8.2,32.6c-0.1,0-0.3,0-0.4,0c-0.3,0.2-0.6,0.4-0.9,0.7c0.2,0.2,0.4,0.5,0.6,0.6
		c0.7,0.5,1.3,0.9,2,1.3c0.6,0.4,0.9,0.2,0.9-0.5C10.5,33.7,9.3,32.6,8.2,32.6z"/>
	<path class="st0" d="M32.1,29.9c0.6-0.7,1.1-1.4,1.7-2.1c0.1,0.1,0.2,0.1,0.3,0.2c-1,1.2-2,2.5-2.9,3.7c-0.1,0-0.1,0-0.2-0.1
		c0.1-1.2,0.2-2.3,0.3-3.5c0,0-0.1-0.1-0.1-0.1c-0.6,0.8-1.2,1.6-1.9,2.4c-0.1-0.6,1.9-3.4,3-4.1c-0.1,1.2-0.2,2.4-0.3,3.5
		C32,29.8,32.1,29.8,32.1,29.9z"/>
	<path class="st0" d="M41.8,48.7c0.1-0.2,0.2-0.4,0.3-0.5c0.6-0.5,0.8-1.1,0.5-1.8c-0.3-0.8-0.9-1.1-1.6-1.1c-0.5,0-1.2,0.1-1.6,0.4
		c-1.1,0.7-1.1,1.9-0.1,2.7c0.2,0.1,0.4,0.3,0.5,0.5c-1-0.1-1.7-0.9-1.7-1.9c0-1.1,0.8-2.2,1.8-2.4c1.2-0.3,2.5,0.3,2.9,1.3
		c0.5,1.1,0.1,2.3-0.9,3C42,48.7,41.9,48.7,41.8,48.7z"/>
	<path class="st0" d="M16.2,24.4c1.1,1.3,2.2,2.5,3.3,3.8c-0.6,0.5-0.6,0.5-1-0.1c-0.3-0.3-0.5-0.9-1.2-0.6c-0.5,0.2-0.8,0.5-0.6,1
		c0.1,0.3,0,0.6,0.1,0.9c-0.1,0-0.2,0-0.3,0c-0.2-1.7-0.3-3.3-0.5-5C16.1,24.5,16.2,24.5,16.2,24.4z M16.6,25.9
		c-0.1,0-0.1,0-0.2,0.1c0.1,0.5,0.1,0.9,0.2,1.5c0.3-0.2,0.6-0.3,0.9-0.5C17.1,26.6,16.9,26.3,16.6,25.9z"/>
	<path class="st0" d="M1.8,46.1C3.4,45.8,5,45.4,6.6,45c0.1,0.7-0.2,0.8-0.7,0.9C5.4,45.9,5,46.1,5,46.8c0,0.5,0.1,0.7,0.5,0.9
		c0.3,0.1,0.5,0.3,0.8,0.5c0,0.1-0.1,0.1-0.1,0.2c-1.5-0.7-3-1.3-4.5-2C1.8,46.3,1.8,46.2,1.8,46.1z M3.3,46.4
		c0,0.1-0.1,0.2-0.1,0.4c0.5,0.1,0.9,0.2,1.4,0.3c0-0.2,0-0.4,0.1-0.7C4.2,46.4,3.8,46.4,3.3,46.4z"/>
	<path class="st0" d="M38.1,40.6c-0.1,0.2-0.1,0.4-0.3,0.5c-0.3,0.4-0.4,0.9,0.1,1.2c0.5,0.3,0.9,0,1.1-0.5c0.2-0.5,0.4-1,0.7-1.5
		c0.3-0.5,0.8-0.7,1.3-0.5c0.3,0.1,0.6,0.5,0.7,0.8c0.2,0.5,0.1,1-0.5,1.3c0.1-0.2,0.3-0.4,0.3-0.6c0-0.3-0.2-0.7-0.3-1
		c-0.3,0.1-0.7,0.2-0.9,0.4c-0.3,0.5-0.5,1-0.7,1.5c-0.3,0.6-0.8,0.8-1.4,0.7c-0.6-0.1-0.9-0.4-1-1C37.2,41.4,37.3,40.9,38.1,40.6z"
		/>
	<path class="st0" d="M1.7,53.4C1.7,52,3,52,3.4,51.1c-0.5-0.4-1.1-0.9-1.7-1.3c0.1-0.1,0.1-0.2,0.2-0.2c0.3,0.2,0.6,0.3,0.8,0.5
		c0.8,0.8,1.7,1,2.8,0.9c0.3,0,0.8-0.2,0.7,0.4c0,0.1-0.4,0.3-0.7,0.3c-1,0-1.9,0.1-2.6,0.9C2.6,52.8,2.2,53,1.7,53.4z"/>
	<path class="st0" d="M32.8,68.4c-0.5,0.4-0.8,0.8-1.2,1.2c-0.1,0-0.1-0.1-0.2-0.1c0.1-0.1,0.1-0.3,0.2-0.4c0.2-0.2,0.4-0.4,0.6-0.6
		c1.1-1.1,0.8-0.9,1.8-0.1c0.6,0.5,1.2,1.1,1.7,1.6c0.1,0.2,0.2,0.4,0.2,0.7c-0.3-0.1-0.6,0-0.7-0.2C34.4,69.8,33.6,69.1,32.8,68.4z
		"/>
	<path class="st0" d="M7.5,41c-0.2,0.6-0.3,1.3-0.5,2c-1.4-0.3-2.7-0.6-4-0.9c-0.2,0-0.2-0.4-0.3-0.6c0.1,0,0.1-0.1,0.2-0.1
		c1,0.2,2,0.4,3,0.7c0.7,0.2,1.1,0.1,1.1-0.7c0-0.1,0.2-0.3,0.2-0.4C7.4,40.9,7.5,41,7.5,41z"/>
	<path class="st0" d="M27,29.1c-0.1-0.3-0.3-0.5-0.2-0.7c0.5-1.2,0.9-2.4,1.5-3.6c0.1-0.1,0.3-0.2,0.5-0.3c0.1,0.2,0.2,0.4,0.2,0.6
		c-0.4,1.2-0.9,2.3-1.4,3.4C27.4,28.7,27.2,28.8,27,29.1z"/>
	<path class="st0" d="M23.2,63.9c-0.1,0.6-0.3,1.3-0.3,1.9c-0.1,1,0,2-0.1,3c0,0.5-0.2,0.9-0.3,1.4c-0.1,0-0.2,0-0.3,0
		c-0.1-0.5-0.3-0.9-0.3-1.4c-0.1-1.2,0-2.3-0.1-3.5c0-0.4-0.1-0.7-0.2-1.1c-0.1,0-0.2-0.1-0.3-0.1c0,0.1-0.1,0.2-0.1,0.4
		c-0.2,0.9-0.6,1.4-1.6,1.1c-0.1,0-0.5,0.3-0.6,0.6c-0.4,0.7-0.7,1.5-1.1,2.2c-0.1,0-0.2-0.1-0.4-0.1c0.2-0.7,0.3-1.5,0.5-2.2
		c0.2-0.8,0.1-1-0.7-1c-0.6,0-1.2,0.2-1.9,0.3c-0.2-0.6-0.4-1.4-0.6-2.2c0.9-0.1,1.6-0.2,2.4-0.3c0.6,0,0.9-0.2,0.7-0.8
		c-0.1-0.2,0-0.5-0.1-0.7c-0.2-1,0-1.4-1.3-1c-0.2,0.1-0.6-0.2-0.7-0.3c-0.3-1-0.4-2-0.8-3c-0.2-0.7-0.1-1,0.6-1.1
		c0.8-0.1,1.1-0.5,0.8-1.3c-0.7-1.9-1.4-3.8-2.1-5.8c-0.2-0.6-0.6-0.7-1-0.2c-0.3,0.3-0.7,0.6-0.9,0.8c-0.7-1-1.4-1.9-2.1-2.8
		c-0.9-1.1-1.2-2.4-0.8-3.8c0.3-1.2,1-1.7,2.2-1.7c0.3,0,0.6-0.2,0.8-0.3c1.1-0.9,2.2-0.9,3.2,0.2c0.5,0.6,1,1.3,1.3,2.1
		c1.7,3.7,2.7,7.6,3,11.6c0,0.2,0,0.3,0.1,0.5c0,0.1,0.1,0.1,0.2,0.4c0-0.4,0.1-0.7,0.1-1c-0.4-4.9-0.8-9.7-1.9-14.5
		c-0.1-0.5-0.1-0.9-0.2-1.4c-0.1-0.4-0.3-0.9-0.6-1.1c-1.1-1.1-1.5-2.4-0.9-3.9c0.7-1.5,2-2.4,3.6-2.6c0.1,0,0.1,0,0.2,0
		c1.2,0.6,2.3,0.2,3.5,0.1c2.1-0.1,3.6,1.6,3.5,3.8c-0.1,1.1-0.3,2-1,2.9c-0.2,0.2-0.2,0.5-0.3,0.8c-0.6,4.1-1.2,8.2-1.8,12.2
		c-0.2,1.4-0.2,2.8-0.3,4.2c0,0.1,0,0.2,0.2,0.3c0.3-1.5,0.5-3,0.8-4.5c0.6-2.9,1.5-5.7,2.7-8.4c0.2-0.4,0.4-0.8,0.7-1.2
		c0.9-1.1,1.7-1.2,3-0.7c0.3,0.1,0.6,0.2,1,0.3c2.1,0.5,3,2.3,2.2,4.2c-0.2,0.6-0.6,1.2-1,1.8c-0.5,0.8-1,1.5-1.6,2.3
		c-0.2-0.1-0.5-0.2-0.8-0.5c-0.6-0.5-0.9-0.2-1.1,0.4c-0.7,1.8-1.4,3.7-2.1,5.5c-0.2,0.6-0.1,0.9,0.5,1.1c0.4,0.1,0.8,0.3,1.3,0.5
		c-0.3,0.9-0.7,1.7-1,2.5c-0.1,0.3-0.2,0.7-0.2,1c0,0.6-0.2,0.7-0.7,0.6c-0.4-0.1-0.7-0.1-1.1-0.2c-0.1,0.9-0.2,1.6-0.3,2.4
		c0.9,0.1,1.7,0.1,2.5,0.3c0.7,0.1,1,0.4,0.6,1.2c-0.1,0.2-0.1,0.3-0.2,0.5c-0.1,0.7-0.4,1-1.1,0.6c-0.1,0-0.1,0-0.2-0.1
		c-1.4-0.3-1.7,0-1.4,1.4c0.1,0.5,0.3,1.1,0.4,1.6c0,0.1,0,0.2-0.1,0.4c-0.3-0.3-0.5-0.5-0.6-0.8c-0.2-0.4-0.4-0.9-0.6-1.4
		c-0.2-0.7-0.5-1.1-1.4-0.8c-0.4,0.2-0.7-0.1-0.8-0.6c-0.1-0.4-0.3-0.8-0.4-1.1C23.4,63.9,23.3,63.9,23.2,63.9z M17.1,49.2
		c0.3-0.8,0.6-1.6,1-2.4c-0.2,1.1-0.4,2.2-0.6,3.3c0.1,0,0.1,0,0.2,0c0.2-0.4,0.4-0.7,0.5-1.1c0,0,0.1,0,0.1,0
		c-0.1,0.8-0.3,1.7-0.4,2.5c0.1,0,0.2,0,0.3,0c0.2-0.3,0.3-0.6,0.5-0.9c0,0,0,0,0.1,0c-0.1,0.8-0.3,1.5-0.4,2.3c0.1,0,0.2,0,0.3,0.1
		c0.2-0.3,0.3-0.6,0.5-0.9c0.1,0,0.1,0,0.2,0c-0.8,1.3-0.5,2.5,0.5,3.7c0.1-0.5,0.2-0.8,0.2-1.1c-0.3-1.9-0.5-3.8-0.9-5.7
		c-0.2-0.8-0.6-1.5-0.9-2.3c-0.3-0.8-0.5-1.7-0.9-2.7c-0.3,1.2-0.5,2.2-0.7,3.3c0.1,0,0.1,0,0.2,0.1c0.2-0.5,0.5-1,0.7-1.4
		C17.3,47.1,17.2,48.2,17.1,49.2c-0.3-0.7-0.7-1.4-1-2c-0.1,0-0.1,0.1-0.2,0.1c0.8,2.4,1.6,4.9,2.4,7.3c0.1,0,0.2,0,0.2-0.1
		c-0.1-0.3-0.1-0.5-0.2-0.8C17.9,52.2,17.5,50.7,17.1,49.2z M20.9,50.4c-0.1-0.1-0.2-0.1-0.5-0.2c0.2,1.1,0.4,2.1,0.6,3
		c-0.1,0.1-0.2,0.3-0.2,0.4c0.1,0.4,0.1,0.9,0.3,1c0.3,0.2,0.8,0.1,1.4,0.1c0-4.4,0-8.8,0-13.2c-0.1,0-0.2,0-0.3,0
		c0,4.2,0,8.3,0,12.5c0,0-0.1,0-0.1-0.1c-0.3-0.6-0.6-1.2-0.8-1.8c0.2,0.1,0.4,0.3,0.5,0.4c0.1,0,0.1-0.1,0.2-0.1
		c-0.2-0.5-0.5-1-0.7-1.4c0.2,0,0.3,0.1,0.5,0.2c0.1-1.3-0.9-1.9-1.3-2.8c-0.1,0-0.2,0.1-0.3,0.1C20.4,49,20.7,49.7,20.9,50.4z
		 M27.8,44.8c-0.1,0.9,0.1,1.7,0.6,2.4c0.1,0,0.2,0,0.2,0c-0.2-0.8-0.4-1.6-0.5-2.4C27.9,44.7,27.8,44.8,27.8,44.8
		c0-0.1,0-0.3-0.1-0.7c-0.2,0.5-0.4,0.7-0.5,0.9c-0.4,1.3-1,2.6-1.3,3.9c-0.5,2-0.8,4.1-1.1,6.1c0,0.2,0.2,0.4,0.3,0.6
		c0.2-0.1,0.4-0.3,0.5-0.5c0.1-0.2,0.1-0.5,0-0.8c0-0.3-0.2-0.6-0.2-1c0,0,0.1,0,0.1,0c0.2,0.3,0.3,0.6,0.5,0.8c0.1,0,0.1,0,0.2-0.1
		c-0.1-0.6-0.2-1.2-0.3-1.9c0,0,0.1,0,0.1,0c0.1,0.2,0.3,0.5,0.4,0.7c0.1,0,0.1,0,0.2-0.1c-0.1-0.7-0.2-1.3-0.4-2c0,0,0.1,0,0.1,0
		c0.1,0.3,0.3,0.6,0.4,0.9c0.1,0,0.1,0,0.2-0.1c-0.1-0.9-0.3-1.8-0.4-2.7c0,0,0.1,0,0.1,0c0.2,0.4,0.3,0.9,0.5,1.3
		c0.1,0,0.2,0,0.3,0c-0.1-0.9-0.1-1.8-0.2-2.7c0,0,0.1,0,0.1,0c0.1,0.4,0.3,0.8,0.4,1.3c0.2-0.6,0.2-1.2,0.2-1.7
		C27.8,46.4,27.8,45.6,27.8,44.8z M22.4,32c-0.1,0-0.2,0-0.3,0c-0.1,0.6-0.1,1.1-0.2,1.7c-0.1,0.5-0.1,1-0.2,1.6
		c-0.1-0.8-0.1-1.7-0.1-2.5c0-0.6-0.4-1-1-1.1c-1.5-0.2-3.3,1.3-3.4,2.9c0.6-1.1,1.3-2,2.4-2.3c-2,1.4-2.6,3.4-1.4,4.6
		c0.1-0.4,0.1-0.8,0.2-1.3c0.2,1.5,0.4,1.9,1,2.3c0.1-0.5,0.2-1,0.3-1.5c-0.1,1.3,0.5,2.2,1.5,2.9c0.4,0.2,0.6,0.6,0.9,1
		c0.7-0.8,1.5-1.5,1.6-2.7c0.1,0.4,0.1,0.8,0.2,1.2c0.6-0.5,0.6-0.6,0.4-2.2c0.2,0.5,0.4,1,0.6,1.5c0.1,0,0.2,0,0.3,0
		c0-0.4,0.1-0.9,0-1.3c-0.1-0.4-0.5-0.7-0.7-1.1c1,0.2,0.9,1.2,1.3,2c0.5-1.3,0.3-2.2-0.8-2.9c1.2,0.2,1,1.2,1.5,1.9
		c0.2-1.2-0.2-2.1-1.1-2.6c0.1-0.1,0.1-0.1,0.2-0.2c0.5,0.4,0.9,0.8,1.4,1.1c0.1,0,0.1-0.1,0.2-0.1c-0.4-0.5-0.7-1.1-1.1-1.6
		c0.2,0.1,0.5,0.3,1,0.5c-0.5-1.3-1.3-1.8-2.3-2c-0.9-0.2-1.6,0.2-1.8,1.1c-0.2,0.6-0.3,1.2-0.4,1.8c0,0-0.1,0-0.1,0
		C22.4,33.8,22.4,32.9,22.4,32z M30.4,42.6c-1.8,1.3-2.1,3.2-0.7,4.3c-0.2-1.5,0.1-2.3,1.1-2.7c-1.4,2-0.4,3.8,1.4,4.5
		c0.1-0.1,0.1-0.3,0.2-0.4c0.3-0.6,0.4-1.3,0.9-1.8c0.6-0.7,1.1-1.3,0.8-2.3c0-0.1,0-0.1,0-0.2c0.2,0.1,0.3,0.2,0.5,0.3
		c0,0,0.1-0.1,0.1-0.1c-0.1-0.4-0.3-0.8-0.4-1.3c0.1,0,0.2,0,0.3,0c0-0.1,0.1-0.1,0.1-0.2c-0.5-0.4-1-0.9-1.5-1.3
		c-0.2,1.3-0.4,2.5-0.5,3.7c-0.1,0-0.2,0-0.2,0c0.1-0.7,0.3-1.4,0.3-2c0.1-1-0.1-1.5-0.5-1.7c0,0.8,0.1,1.6,0.1,2.5
		c-0.1,0-0.2,0-0.3,0c0.1-1.3,0.2-2.7-1.5-3c-0.7-0.2-1.4,0.4-1.7,1.1c1-0.7,1.1-0.7,1.8-0.4c-1.4,0.5-2.2,1.3-2.2,2.7
		C29.1,43.4,29.5,42.7,30.4,42.6z M15,46.8c0.5-0.7,0.8-1.4,0.7-2.2c-0.1-1-0.8-1.5-1.8-1.9c1.3-0.3,1.7,0.6,2.3,1.4
		c-0.1-0.7-0.2-1.3-0.5-1.9c-0.5-0.8-1.4-0.9-2.3-0.8c1-0.8,1.7-0.2,2.5,0.2c-0.5-0.6-1-1.2-2-1.1c-0.8,0.1-1.3,0.7-1.4,1.4
		c-0.1,0.7-0.2,1.4-0.2,2.1c0.1,0.9,0.2,1.9,0.4,2.8c-0.1,0-0.1,0-0.2,0c-0.2-1.7-0.4-3.5-0.6-5.2c0,0-0.1,0-0.1,0
		c-0.1,0.5-0.1,1-0.2,1.6c-0.2-0.4-0.1-0.9-0.2-1.3c0-0.4-0.3-0.6-0.6-0.3c-0.6,0.4-1,0.9-0.9,1.7c0.2-0.2,0.4-0.5,0.5-0.7
		c0,0,0,0.1,0.1,0.1c-0.2,0.5-0.4,1.1-0.6,1.6c0.1,0.1,0.2,0.1,0.3,0.2c0.1-0.2,0.2-0.5,0.4-0.7c-0.1,0.7-0.2,1.2-0.3,1.8
		c0.1,0,0.2,0,0.2,0c0.2-0.2,0.4-0.5,0.7-0.9c-0.4,1.4-0.4,1.6,0.1,2.2c0.1-0.2,0.2-0.3,0.2-0.4c0.3,0.8,0.6,1.5,1,2.5
		c0.6-0.8,1.2-1.5,1.6-2.3c0.4-0.8,0.2-1.7-0.5-2.5C15,44.8,14.9,45.8,15,46.8z M20.8,55.8c0,0.5,0,1.1,0,1.6
		c0.4-0.2,0.7-0.4,1.1-0.6c-0.2,1.2-1.2,1.6-2.1,1.1c-0.2-0.1-0.4-0.5-0.5-0.7c0-0.1,0.2-0.4,0.3-0.4c0.2,0,0.5,0.2,0.8,0.3
		c0-0.3,0-0.6-0.1-0.7c-0.3-0.2-0.6-0.2-0.9-0.3c-0.1-0.3-0.3-0.7-0.5-1c-0.1,0-0.2,0-0.2,0c0,0.5-0.1,0.9-0.1,1.2
		c-0.3,0.2-0.7,0.2-0.9,0.4c-0.1,0.1,0.1,0.4,0.1,0.8c0.3-0.3,0.4-0.5,0.6-0.6c0,0,0.3,0.2,0.3,0.3c0,0.3-0.1,0.8-0.3,0.9
		c-0.4,0.2-1,0.3-1.4,0.3c-0.2,0-0.4-0.4-0.6-0.6c0.1-0.1,0.1-0.2,0.2-0.2c0.3,0.2,0.6,0.3,1,0.6c-0.2-0.7-0.4-1.4-0.6-2.1
		c-0.2,0.5-0.4,0.8-0.6,1.1c-0.1,0-0.2-0.1-0.2-0.1c0.1-0.4,0.2-0.7,0.3-1.1c-1.2,0.2-1.2,0.2-0.8,1.3c0.1,0.4,0.3,0.9,0.4,1.3
		c0.1,0.6,0.4,0.7,1,0.6c1.3-0.3,2.5-0.5,3.8-0.6c2.3-0.2,4.6,0,6.9,0.6c0.2,0.1,0.7,0,0.7-0.2c0.4-0.8,0.7-1.6,1-2.5
		c-0.4-0.2-0.8-0.3-1.1-0.4c0.2,0.4,0.3,0.8,0.4,1.2c-0.1,0-0.2,0.1-0.3,0.1c-0.2-0.4-0.5-0.8-0.7-1.3c-0.2,0.7-0.4,1.3-0.5,1.9
		c0.4-0.1,0.8-0.2,1.3-0.4c-0.5,1-1.7,1.3-2.4,0.7c-0.2-0.2-0.3-0.6-0.4-0.9c0-0.1,0.3-0.4,0.4-0.4c0.3,0.1,0.5,0.3,0.8,0.6
		c0-0.3,0.2-0.7,0.1-0.9c-0.1-0.2-0.5-0.3-0.9-0.5c0-0.2,0-0.6,0-0.9c-0.1,0-0.1,0-0.2,0c-0.2,0.4-0.4,0.8-0.6,1.1
		c0-0.1,0-0.1,0-0.2c-0.3,0.1-0.7,0-1,0.2c-0.1,0.1-0.1,0.5-0.1,0.7c0.4-0.1,0.7-0.1,0.9-0.2c-0.1,0.3,0,0.8-0.2,0.9
		c-0.5,0.2-1.1,0.3-1.6,0.2c-0.4-0.1-0.7-0.5-1-0.8c0.1-0.1,0.2-0.2,0.3-0.3c0.4,0.3,0.8,0.5,1.2,0.8c0-0.6,0-1.1,0-1.7
		c-0.4,0.2-0.8,0.4-1.2,0.6c-0.1-0.1-0.1-0.2-0.2-0.3c0.3-0.3,0.6-0.6,0.9-1c-0.7,0-1.5,0-2.3,0c0.3,0.4,0.6,0.7,0.9,1
		c-0.1,0.1-0.1,0.2-0.2,0.3C21.5,56.2,21.2,56,20.8,55.8z M19.3,40.4c0,0,0.1,0,0.1,0c0.7,1,1.5,2,2.2,3c0.1-0.3,0.1-0.6,0-0.8
		c-0.3-0.8-0.7-1.6-1.1-2.6c0.4,0.5,0.8,0.9,1.1,1.4c-0.1-1.3-1.5-2.7-3-2.9c0,0.3,0,0.6,0.1,0.9c0.2,1,0.4,2,0.6,3
		c0.3,1.8,0.7,3.5,2.4,4.6c-0.2-0.7-0.5-1.4-0.8-2.1c-0.4-0.7-0.8-1.3-1.2-1.9c0.1,0,0.1-0.1,0.2-0.1c0.6,0.7,1.2,1.4,1.7,2
		c0.1-0.1,0.2-0.1,0.3-0.2C21,43.3,20.2,41.8,19.3,40.4z M29.7,63.4c-2.1-1.1-3.9,0.2-5.8,0.4c0.4,1.6,0.4,1.6,1.9,1.3
		c0.9-0.2,1.9-0.2,2.9-0.3c0.4,0,0.6,0,0.7-0.5C29.4,64.1,29.6,63.8,29.7,63.4z M21.1,63.8c-0.6-0.1-1.1-0.3-1.6-0.4
		c-1.2-0.4-2.4-0.5-3.6-0.2c-0.4,0.1-0.7,0.3-0.5,0.7c0.2,0.4-0.1,1.1,0.9,0.9c0.9-0.1,1.9-0.1,2.7,0.1c1.6,0.4,1.6,0.5,2.1-1
		C21.1,63.9,21.1,63.9,21.1,63.8z M25.8,38.8c-0.7,0.6-1.3,1.1-1.9,1.7c0,0-0.1-0.1-0.1-0.1c0.1-0.2,0.2-0.4,0.4-0.7
		c-1.3,0.7-1.8,3.7-1.1,5.9c0.5-1.6,2.4-2,2.3-3.6c-0.6,0.5-1.4,1.2-2.1,1.8c0.2-1.5,2.1-1.9,2.3-3.6c-0.7,0.7-1.4,1.3-2.2,2.1
		C23.8,40.8,25.6,40.4,25.8,38.8z M22.3,69.6c0.1,0,0.1,0,0.2,0c0-3.3,0-6.6,0-9.9C22,60.2,21.9,67.7,22.3,69.6z M23.1,52
		C23.1,52,23,52,23.1,52c0.4-0.8,0.8-1.6,1.3-2.4c-0.1,0-0.1-0.1-0.2-0.1c-0.8,0.6-1.4,1.3-1.5,2.3c-0.1,0.8,0,1.7,0,2.5
		c0,0.2,0.4,0.5,0.5,0.4c0.2,0,0.6-0.3,0.7-0.4c0.1-0.6,0-1.2,0-1.8c-0.2,0.1-0.4,0.3-0.7,0.6c0.4-0.8,0.8-1.4,1.1-2.1
		c-0.1,0-0.1-0.1-0.2-0.1c-0.2,0.2-0.3,0.4-0.5,0.6C23.5,51.7,23.3,51.8,23.1,52z M16.5,59.8c4-1.1,7.9-1.1,11.9,0.1
		C26.3,58.4,18.3,58.4,16.5,59.8z M21.8,64.1c0-0.8,0-1.4,0-2c0-0.5,0-1.1-0.1-1.6c0-0.3-0.3-0.5-0.5-0.7c-0.2,0.2-0.5,0.3-0.5,0.5
		C20.9,61.5,21,62.8,21.8,64.1z M24.8,59.9c-0.3,0.5-0.1,2.3,0.4,2.9c0-0.3,0-0.6,0.1-1c0.1,0.4,0.2,0.7,0.3,1c0,0,0.1,0,0.1,0
		c0-0.9,0-1.9,0-2.6C25.3,60.1,25.1,60,24.8,59.9z M22.8,63.6c0.7-0.9,0.9-2,1-3.1c0-0.3-0.1-0.5-0.2-0.8c0,0-0.4,0-0.5,0.1
		c-0.1,0.3-0.2,0.6-0.2,0.8c0,0.4,0.2,0.8,0.2,1.2C23,62.5,22.9,63.1,22.8,63.6z M26.3,54.3c0.1,0,0.2,0.1,0.3,0.1
		c0.8-2.4,1.6-4.7,2.5-7.1c-0.1,0-0.2-0.1-0.3-0.1C27.9,49.5,27.1,51.9,26.3,54.3z M20,45.8c0.1,1.6,0.5,2.8,1.8,3.6
		C22,47.8,20.8,47,20,45.8z M25.1,43.5c-0.6,1-2,1.5-2.1,3.1C24,45.6,25.1,44.9,25.1,43.5z M23,50.1c0.9-0.8,1.5-1.5,1.6-2.7
		C23.8,48.1,22.8,48.7,23,50.1z M23.1,48c1.1-0.6,1.7-1.5,1.7-2.5C24.1,46.3,23.1,46.8,23.1,48z M26.1,62.6c0.1,0,0.2,0,0.3,0
		c0.1-0.7,0.2-1.4,0.3-2.1c0-0.1-0.2-0.3-0.3-0.4c-0.1,0.1-0.3,0.2-0.3,0.3C26,61.2,26.1,61.9,26.1,62.6z M18.3,62.5
		c0.1,0,0.2,0,0.3,0c0.1-0.7,0.1-1.4,0.1-2c0-0.1-0.2-0.2-0.3-0.3c-0.1,0.1-0.3,0.2-0.3,0.3C18.2,61.1,18.3,61.8,18.3,62.5z
		 M18,56.2c0.2-1.2-0.1-1.7-1.3-2.1c0.2,0.3,0.3,0.5,0.5,0.7c0.2,0.2,0.4,0.4,0.8,0.7c-0.4-0.1-0.6-0.1-0.8-0.2
		c0,0.1-0.1,0.1-0.1,0.2C17.4,55.6,17.6,55.8,18,56.2z M28.1,54.2c-1.1,0.3-1.5,0.9-1.2,1.8c0.3-0.2,0.5-0.3,0.8-0.5
		c-0.2-0.1-0.4-0.2-0.5-0.3C27.5,54.9,27.8,54.5,28.1,54.2z M19.5,60c-0.1,0-0.2,0-0.3,0c-0.1,0.9-0.2,1.7-0.3,2.6
		c0.1,0,0.2,0,0.3,0C19.4,61.8,19.6,60.9,19.5,60z M19.9,59.8c-0.2,1-0.3,1.9-0.5,2.9C20.2,61.9,20.4,60.3,19.9,59.8z M27.8,51.1
		c0.1,0.1,0.2,0.2,0.3,0.3c0.5-0.5,1.1-0.9,1.6-1.4c-0.1-0.1-0.2-0.2-0.3-0.3C28.9,50.1,28.4,50.6,27.8,51.1z M27.3,52.5
		c0.1,0.1,0.2,0.2,0.3,0.3c0.5-0.5,1.1-1,1.6-1.5c-0.1-0.1-0.2-0.2-0.2-0.3C28.4,51.5,27.9,52,27.3,52.5z M26.9,53.9
		c0.1,0.1,0.2,0.2,0.3,0.3c0.5-0.5,0.9-1,1.4-1.5c-0.1-0.1-0.2-0.2-0.3-0.3C27.8,53,27.4,53.4,26.9,53.9z M17.3,53
		c0.1-0.1,0.2-0.2,0.3-0.3c-0.5-0.4-1-0.9-1.4-1.3c-0.1,0.1-0.2,0.2-0.2,0.2C16.3,52,16.8,52.5,17.3,53z M24.4,60.6
		c-0.1,0-0.2,0-0.2,0c-0.1,0.6-0.1,1.1-0.1,1.7c0,0,0.3,0.1,0.6,0.1C24.5,61.7,24.4,61.2,24.4,60.6z M30.1,49
		c-1-0.1-1.4,0.2-1.7,1.1C29.1,49.7,29.6,49.3,30.1,49z M16.8,51.5c0.1-0.1,0.2-0.2,0.3-0.3c-0.5-0.4-0.9-0.8-1.4-1.2
		c-0.1,0.1-0.2,0.2-0.2,0.3C15.8,50.7,16.3,51.1,16.8,51.5z M26.8,67.8c0.1,0,0.2-0.1,0.3-0.1c-0.2-0.7-0.5-1.5-0.7-2.2
		c-0.1,0-0.2,0.1-0.3,0.1C26.3,66.3,26.5,67,26.8,67.8z M16.4,50.1c0.1-0.1,0.1-0.2,0.2-0.3c-0.5-0.4-1-0.7-1.6-1.1
		c-0.1,0.1-0.1,0.2-0.2,0.3C15.3,49.4,15.9,49.7,16.4,50.1z M17.9,67.5c0.1,0,0.2,0,0.3,0.1c0.2-0.7,0.4-1.4,0.6-2.1
		c-0.1,0-0.2-0.1-0.3-0.1C18.3,66.1,18.1,66.8,17.9,67.5z M16.6,52.7c-0.1,0.1-0.2,0.2-0.2,0.3c0.4,0.4,0.8,0.7,1.2,1.1
		c0.1-0.1,0.2-0.2,0.2-0.3C17.4,53.4,17,53,16.6,52.7z"/>
	<path class="st0" d="M15.4,72.3c0.3,0.5,0.7,0.8,0.6,1.1c0,0.2-0.5,0.7-0.7,0.6c-0.3-0.1-0.6-0.4-0.7-0.7
		C14.6,73.1,15,72.8,15.4,72.3z"/>
	<path class="st0" d="M20.4,76.3c-0.2-0.3-0.6-0.5-0.5-0.8c0-0.2,0.4-0.6,0.7-0.7c0.4-0.1,0.8,0.2,0.7,0.7c0,0.3-0.3,0.5-0.5,0.8
		C20.7,76.2,20.5,76.2,20.4,76.3z"/>
	<path class="st0" d="M29.3,20.1c-0.2,0.1-0.4,0.3-0.6,0.3c-0.5-0.1-1-0.3-1.5-0.5c-0.1-0.1-0.2-0.3-0.2-0.4c0-0.1,0.3-0.3,0.4-0.3
		c0.6,0.2,1.2,0.4,1.7,0.6C29.1,19.7,29.1,19.9,29.3,20.1z"/>
	<path class="st0" d="M22.4,19.7c-0.4-0.5-0.7-0.8-1.1-1.2c0.3-0.3,0.6-0.6,1-0.7c0.2,0,0.8,0.4,0.8,0.6
		C23,18.8,22.7,19.2,22.4,19.7z"/>
	<path class="st0" d="M16,20.4c-0.2-0.1-0.4-0.2-0.4-0.4c0-0.1,0.1-0.4,0.2-0.5c0.5-0.2,1.1-0.4,1.6-0.5c0.1,0,0.3,0.2,0.4,0.3
		c0,0.2-0.1,0.5-0.2,0.5C17.1,20.1,16.6,20.2,16,20.4z M16,19.7c0,0.1,0.1,0.3,0.1,0.4c0.4-0.2,0.9-0.3,1.3-0.5
		c0-0.1-0.1-0.2-0.1-0.3C16.9,19.4,16.4,19.5,16,19.7z"/>
</g>
</svg>
