<?xml version="1.0" encoding="utf-8"?>
<!-- Generator: Adobe Illustrator 19.1.0, SVG Export Plug-In . SVG Version: 6.00 Build 0)  -->
<svg version="1.1" id="Layer_1" xmlns="http://www.w3.org/2000/svg" xmlns:xlink="http://www.w3.org/1999/xlink" x="0px" y="0px"
	 viewBox="0 0 141.9 71.9" style="enable-background:new 0 0 141.9 71.9;" xml:space="preserve">
<style type="text/css">
	.st0{fill:#FFFFFF;}
</style>
<g>
	<path class="st0" d="M116.2,29c0-1.4-0.8-3-3.2-3h-5.6v5.9h5.6C115.4,31.9,116.2,30.4,116.2,29z"/>
	<path class="st0" d="M113.4,39.9h-6v6.4h6c2.5,0,3.3-1.7,3.3-3.2C116.7,41.6,115.9,39.9,113.4,39.9z"/>
	<path class="st0" d="M31.1,26.1h-5v7.3h5c2.4,0,3.9-1.8,3.9-3.7C35,27.9,33.5,26.1,31.1,26.1z"/>
	<path class="st0" d="M27,0C12.1,0,0,12.1,0,27v44.9h114.9c14.9,0,27-12.1,27-27V0H27z M38.8,54.3c-3.7-0.2-4.6-2.8-4.6-2.8
		l-5.1-10.6h-3v13.5h-8.9V18.1h14.3c8,0,12.4,5.7,12.4,11.6c0,4.9-3.1,8-5.9,9.5l7.8,15.1H38.8z M77.3,54.3h-5h0
		c0,0-2.6,0.1-4.3-2.4l0-0.1l-10-15.8v18.2H49V18.1H54h0.1c0,0,2.6-0.1,4.2,2.4l0.1,0.2l9.9,15.6V18.1h8.9V54.3z M92.2,22.7v31.6
		h-3.9h-0.3c0,0-4.6,0.2-4.6-4.5v-0.3V18.1h4.1h0.2C87.5,18.1,92.2,17.9,92.2,22.7L92.2,22.7z M114.3,54.3H98.5V18h15
		c7.5,0,11.6,4.2,11.6,10.5c0,4.1-2.8,6.4-4,7.2c1.5,0.9,4.5,2.8,4.5,7.9C125.6,50.5,120.8,54.3,114.3,54.3z"/>
</g>
</svg>
