<?xml version="1.0" encoding="utf-8"?>
<!-- Generator: Adobe Illustrator 19.1.0, SVG Export Plug-In . SVG Version: 6.00 Build 0)  -->
<svg version="1.1" id="Layer_1" xmlns="http://www.w3.org/2000/svg" xmlns:xlink="http://www.w3.org/1999/xlink" x="0px" y="0px"
	 viewBox="0 0 199.6 65.3" style="enable-background:new 0 0 199.6 65.3;" xml:space="preserve">
<style type="text/css">
	.st0{fill:#FFFFFF;}
</style>
<g>
	<g>
		<g>
			<path class="st0" d="M31.2,65.1c1.2-0.6,2.4-1.2,3.6-1.8c0.6-0.3,1.3-0.7,1.7-1.3c0.1-0.2,0.4-0.2,0.6-0.3c2.5-0.4,4.9-1,7.3-2.1
				c2.2-1,4.2-2.2,6.1-3.7c1.2-1,2.4-2.1,3.5-3.2c1.3-1.4,2.6-2.9,3.6-4.5c0.8-1.3,1.7-2.7,2.4-4.1c0.8-1.7,1.4-3.4,1.7-5.3
				c0.1-0.9,0.3-1.8,0.3-2.8c0.1-1.1,0.1-2.1,0.1-3.2c0-1.1-0.2-2.2-0.3-3.3c-0.1-1.7-0.4-3.4-0.9-5c-0.4-1.5-0.9-2.9-1.5-4.3
				c-0.8-2.1-2.1-3.9-3.5-5.7c-0.5-0.7-1.1-1.3-1.6-1.9c-0.7-0.8-1.4-1.5-2.2-2.2c-1.7-1.7-3.6-3.1-5.7-4.3c-2.2-1.3-4.5-2.1-7-2.6
				c-1.1-0.2-2.3-0.3-3.4-0.4c-1.3-0.1-2.6-0.2-3.9-0.1c-1.4,0-2.8,0.2-4.2,0.3C26,3.6,24.1,4,22.2,4.7C20,5.5,18,6.6,16.1,8
				c-0.9,0.6-1.7,1.3-2.5,2c-0.7,0.6-1.3,1.1-1.9,1.7c-0.8,0.8-1.6,1.7-2.3,2.6c-0.8,1-1.6,2-2.3,3c-1.6,2.4-2.7,5-3.3,7.7
				c-0.2,1-0.3,2-0.5,3.1c-0.3,1.8-0.3,3.6-0.2,5.4c0,1,0.2,2.1,0.3,3.1c0.2,1.3,0.4,2.5,0.7,3.8c0.4,1.6,0.9,3.1,1.6,4.5
				c0.7,1.7,1.6,3.3,2.7,4.7c0.6,0.8,1.2,1.6,1.9,2.4c0.6,0.7,1.2,1.4,1.9,2c1,0.9,2.1,1.8,3.2,2.6c1.2,0.8,2.6,1.6,3.9,2.3
				c1.7,0.8,3.4,1.4,5.3,1.7c1.1,0.2,2.3,0.3,3.4,0.3c1.6,0,3-0.6,4.3-1.5c1-0.8,1.9-1.7,2.4-2.9c0.2-0.6,0.4-1.2,0.4-1.9
				c0.2-1.6-0.3-3.1-1-4.5c-0.3-0.6-0.6-1.2-1-1.8c-0.2-0.3-0.1-0.6,0.1-0.8c0.1-0.1,0.1-0.2,0.3-0.4c0.9,1.3,1.8,2.5,2.6,3.8
				c0.6,1,0.9,2.1,1.1,3.2c0.2,1.2,0.1,2.3-0.3,3.4c-0.5,1.4-1.4,2.6-2.6,3.6c-0.8,0.7-1.6,1.2-2.5,1.7c-1.1,0.5-2.3,0.9-3.5,1
				c-0.7,0.1-1.5,0.2-2.2,0.1c-1.5,0-2.9-0.3-4.3-0.7c-1.5-0.4-3-1-4.4-1.8c-1.5-0.8-2.9-1.7-4.3-2.8c-0.9-0.7-1.8-1.4-2.6-2.3
				c-1.4-1.4-2.7-2.9-3.8-4.5c-1.2-1.8-2.3-3.6-3.3-5.5c-1.3-2.6-2.2-5.2-2.9-8c-0.3-1.2-0.4-2.5-0.6-3.8C0,33.4,0,32.2,0,30.9
				c0.2-3.3,0.8-6.6,2-9.8C2.8,19,3.7,17,5,15.1c0.9-1.2,1.8-2.5,2.8-3.6c0.9-1,1.8-2,2.8-3c1.8-1.7,3.7-3.1,5.8-4.4
				c2.6-1.5,5.4-2.7,8.3-3.3c1.2-0.3,2.5-0.4,3.8-0.6C30.4,0,32.4,0,34.3,0.1c2.6,0.1,5.1,0.6,7.6,1.3c2.3,0.7,4.4,1.6,6.5,2.7
				C50,4.9,51.6,5.9,53,7.1c1.2,1,2.4,2,3.4,3.2c1.2,1.3,2.3,2.8,3.3,4.3c1,1.4,1.8,2.9,2.6,4.4c1.1,2.1,1.8,4.3,2.3,6.7
				c0.2,1.1,0.4,2.1,0.5,3.2c0.1,1.3,0.2,2.6,0.2,3.8c-0.1,1.6-0.2,3.1-0.4,4.7c-0.2,2.1-0.7,4-1.4,6c-0.7,2.1-1.7,4.1-2.9,6
				c-1,1.4-1.9,2.9-3,4.2c-1.1,1.3-2.3,2.4-3.5,3.5c-1.1,1-2.4,1.9-3.6,2.7c-1.6,1.1-3.3,1.9-5.1,2.7c-1.9,0.8-3.8,1.4-5.9,1.9
				c-1,0.2-2,0.3-3,0.5c-1.6,0.3-3.3,0.2-4.9,0.2c-0.1,0-0.2,0-0.3,0C31.3,65.2,31.3,65.1,31.2,65.1z"/>
		</g>
		<g>
			<path class="st0" d="M33.7,13.4c0,0,0-0.1-0.1-0.1c-0.6-0.6-0.7-0.6-0.1-1.3c1-1.3,2.2-2.4,3.7-3.2c1-0.6,2.1-1,3.2-1.1
				c1.5-0.2,2.9,0.2,4.1,1.3c1,1,1.8,2.1,2.3,3.4c0.5,1.6,0.4,3.2-0.2,4.8c-0.5,1.6-1.3,3-2.4,4.3c-0.8,1-1.7,2-2.7,2.9
				c-0.7,0.7-1.6,1.3-2.4,2c0,0-0.2,0-0.3,0c-0.3-0.2-0.5-0.5-0.8-0.8c-0.2-0.2-0.2-0.3,0-0.5c1-0.9,1.8-2,2.5-3.2
				c0.9-1.4,1.6-3,1.8-4.7c0.2-1.6,0-3-0.9-4.4c-0.6-0.9-1.4-1.7-2.6-2c-1-0.2-2,0-2.8,0.6C35.4,12,34.6,12.7,33.7,13.4z"/>
		</g>
		<g>
			<path class="st0" d="M50.9,35.4c0.7-0.5,1.4-0.8,2-1.3c1.1-0.9,1.9-1.9,1.8-3.4c-0.1-0.5-0.2-1.1-0.5-1.6c-1-1.6-2.4-2.6-4.3-2.9
				c-1.6-0.3-3.1-0.1-4.7,0.3c-1.7,0.5-3.3,1.2-4.8,2.2c-0.3-0.4-0.6-0.9-0.9-1.3c1.8-1.5,3.7-2.8,5.9-3.8c1.4-0.7,2.9-1.2,4.5-1.4
				c1.6-0.2,3.1-0.1,4.5,0.6c0.9,0.4,1.8,1,2.4,1.9c0.5,0.7,1,1.3,1.3,2.1c0.6,1.4,0.4,2.7-0.2,4.1c-0.4,0.9-1,1.7-1.6,2.4
				c-1.3,1.4-2.8,2.4-4.5,3c-0.2,0.1-0.3,0.1-0.4-0.1C51.3,35.8,51.1,35.6,50.9,35.4z"/>
		</g>
		<g>
			<path class="st0" d="M25.5,27.3c-0.3,0.5-0.6,0.9-0.9,1.3c-1-0.5-2-1.1-3-1.6c-1.4-0.7-2.8-1.1-4.4-1.3c-1.1-0.1-2.2-0.1-3.2,0.3
				c-1.7,0.5-3,1.6-3.7,3.3c-0.4,1.1-0.2,2.2,0.5,3.2c0.8,1,1.8,1.7,2.9,2.3c0,0,0,0.1,0,0.1c-0.8,1-0.4,1.1-1.7,0.4
				c-2.1-1.1-3.8-2.6-4.9-4.8c-1-2.2-0.9-4.2,0.7-6.1c1.1-1.3,2.4-2.3,4.1-2.6c1.1-0.3,2.2-0.2,3.4,0c1.7,0.3,3.2,0.9,4.7,1.7
				c1.3,0.8,2.5,1.7,3.8,2.5C24.4,26.4,24.9,26.9,25.5,27.3z"/>
		</g>
		<g>
			<path class="st0" d="M37.9,39.1c0.3,0.5,0.6,1,1,1.4c1.4,1.9,3.1,3.5,5.2,4.6c1.1,0.5,2.2,0.8,3.4,0.8c1.3-0.1,2.5-0.5,3.5-1.4
				c1.1-1,1.3-2.3,0.9-3.7c-0.3-1.1-0.9-2-1.6-2.9c0.3-0.2,0.6-0.3,0.8-0.5c0.1,0,0.2,0,0.3,0.1c0.5,0.7,1.1,1.4,1.6,2.1
				c0.8,1.3,1.3,2.6,1.5,4.1c0.2,1.5,0,2.9-0.8,4.2c-0.5,0.7-1.1,1.3-1.9,1.7c-1,0.6-2,1-3.1,1.1c-1.1,0.1-2.1,0-3.2-0.4
				C44.2,49.8,43.1,49,42,48c-1.8-1.6-3.2-3.6-4.3-5.7c-0.4-0.7-0.7-1.4-1-2.1c-0.1-0.2-0.1-0.3,0.1-0.4
				C37.2,39.6,37.5,39.4,37.9,39.1z"/>
		</g>
		<g>
			<path class="st0" d="M26.5,39.3c0.4,0.3,0.9,0.6,1.3,0.9c-0.8,1.6-1.6,3.1-2.7,4.5c-0.8,1-1.7,2-2.6,2.9
				c-1.5,1.4-3.2,2.4-5.2,2.8c-1.7,0.3-3.3-0.1-4.8-1c-1-0.6-1.9-1.3-2.4-2.5c-0.4-1-0.6-2-0.5-3.1c0.1-1.4,0.6-2.7,1.3-4
				c0.6-1.1,1.4-2.1,2.3-3c0.3,0.2,0.6,0.4,0.9,0.6c-0.4,0.6-0.8,1.1-1.1,1.7c-0.5,0.7-0.7,1.5-0.8,2.4c-0.1,1.1,0.3,1.9,1,2.6
				c0.6,0.6,1.4,1,2.3,1.3c1.5,0.4,2.9,0.3,4.4-0.3c1.4-0.6,2.6-1.4,3.8-2.5C24.8,41.6,25.6,40.5,26.5,39.3z"/>
		</g>
		<g>
			<path class="st0" d="M32.1,12.5c-0.3,0.3-0.6,0.6-0.9,0.9c-0.2-0.2-0.3-0.4-0.5-0.6c-1.1-1.1-2.3-2.2-4-2.2c-1.1,0-2,0.6-2.7,1.4
				c-0.4,0.5-0.8,1.1-1.1,1.7c-0.4,1-0.5,2-0.4,3c0.2,1.4,0.6,2.8,1.3,4c0.6,1,1.2,1.9,1.9,2.8c0.4,0.5,0.9,1,1.3,1.5
				c-0.4,0.4-0.7,0.7-1.2,1.2c-1.3-1.2-2.7-2.4-3.9-3.7c-1.6-1.7-2.9-3.5-3.6-5.8c-0.6-2-0.6-4,0.4-5.8c0.8-1.4,1.9-2.7,3.5-3.2
				c0.7-0.2,1.4-0.3,2.1-0.3c2.4,0.2,4.3,1.4,5.9,3C30.9,11.2,31.5,11.9,32.1,12.5z"/>
		</g>
		<g>
			<path class="st0" d="M32.6,17.1c0,0.3,0.1,0.6,0.1,0.8c0.1,0.8,0.1,1.6,0.2,2.4c0.1,1,0.3,2,0.4,3c0.1,0.8,0.2,1.6,0.2,2.4
				c0.1,0.8,0.2,1.6,0.3,2.4c0.1,0.8,0.2,1.5,0.2,2.3c0.1,0.6,0.1,1.2,0.2,1.8c0,0.8-0.3,1.6-0.9,2.1c-0.4,0.4-1.4,0.4-1.9-0.1
				c-0.8-0.7-1.1-1.6-0.9-2.6c0.1-0.8,0.2-1.7,0.3-2.5c0.1-0.9,0.3-1.7,0.4-2.6c0.1-0.7,0.2-1.3,0.3-2c0.1-0.9,0.3-1.8,0.4-2.7
				c0.1-0.6,0.2-1.2,0.2-1.9C32.3,18.9,32.4,18,32.6,17.1C32.5,17.1,32.5,17.1,32.6,17.1z"/>
		</g>
		<g>
			<path class="st0" d="M32.2,37.6c0.2-0.1,0.4-0.2,0.6-0.3c0.5,0.6,0.8,1.3,0.9,2.1c0.1,0.7-0.2,1.4-0.5,2c-0.3,0.8-0.7,1.6-1,2.5
				c-0.4,1.2-0.3,2.5,0.1,3.7c0.3,0.9,0.6,1.8,1,2.7c0.2,0.5,0.3,0.5-0.2,1c-0.9-0.7-1.7-1.4-2.4-2.3c-0.6-0.7-1-1.4-1.3-2.2
				c-0.6-1.6-0.3-3.1,0.5-4.5c0.5-0.9,1.1-1.6,1.7-2.4C32.3,39.2,32.3,38.9,32.2,37.6z"/>
		</g>
		<g>
			<path class="st0" d="M47.3,32.7c-0.7,0.5-1.3,1-1.9,1.4c-0.2,0.2-0.3,0.3-0.2,0.5c0.3,0.7,0.5,1.4,0.7,2.2
				c-0.8-0.6-1.5-1.1-2.2-1.6c-0.7,0.5-1.4,1-2.2,1.6c0.3-0.9,0.6-1.8,0.9-2.6c-0.7-0.5-1.4-1-2.1-1.5c0,0,0-0.1,0-0.1
				c0.7,0,1.5,0,2.2,0c0.2,0,0.4-0.1,0.4-0.3c0.2-0.7,0.5-1.4,0.7-2.2c0.3,0.8,0.5,1.5,0.7,2.2c0.1,0.3,0.2,0.3,0.4,0.3
				C45.7,32.7,46.4,32.7,47.3,32.7z"/>
		</g>
		<g>
			<path class="st0" d="M24.6,32.8c-0.6,0.5-1.2,0.9-1.9,1.4c-0.2,0.1-0.3,0.2-0.2,0.5c0.3,0.7,0.5,1.5,0.8,2.3
				c-0.8-0.6-1.5-1.1-2.2-1.6c-0.7,0.5-1.4,1-2.2,1.6c0.3-0.8,0.5-1.5,0.7-2.3c0.1-0.2,0.1-0.4-0.2-0.6c-0.6-0.4-1.2-0.9-1.9-1.4
				c0.8,0,1.5,0,2.3,0c0.3,0,0.4-0.1,0.5-0.4c0.2-0.7,0.4-1.4,0.7-2.2c0.2,0.6,0.4,1.2,0.6,1.8c0.2,0.8,0.2,0.8,1,0.8
				c0.6,0,1.1,0,1.7,0C24.5,32.7,24.5,32.7,24.6,32.8z"/>
		</g>
	</g>
	<g>
		<path class="st0" d="M89.5,18.7c0.1-0.7,0.2-1.4,0.4-2.1l1.9-7.5c0.1-0.1,0.4-0.1,0.7-0.1c0.3,0,0.5,0,0.6,0.1l-2.7,10.4
			c-0.2,0.1-0.6,0.1-0.9,0.1s-0.8,0-0.9-0.1l-1.7-7.2c-0.2-0.7-0.3-1.6-0.4-2.4h-0.1c-0.1,0.8-0.3,1.7-0.5,2.4l-1.8,7.2
			c-0.2,0.1-0.6,0.1-0.9,0.1s-0.7,0-0.9-0.1L79.6,9.2c0.1-0.1,0.3-0.1,0.7-0.1c0.3,0,0.6,0,0.7,0.1l1.8,7.4c0.1,0.5,0.3,1.4,0.4,2.1
			h0.1c0.1-0.8,0.2-1.6,0.4-2.1l1.9-7.5C85.6,9,86,9,86.4,9c0.4,0,0.7,0,0.9,0.1l1.8,7.5C89.2,17.3,89.4,18,89.5,18.7L89.5,18.7z"/>
		<path class="st0" d="M100.3,15.8c0,2.6-1.3,4-3.4,4c-2.2,0-3.4-1.3-3.4-4c0-2.4,1.4-3.8,3.4-3.8S100.3,13.3,100.3,15.8z
			 M96.9,18.7c1.4,0,2.1-1.1,2.1-2.9c0-1.6-0.8-2.7-2.1-2.7c-1.4,0-2.1,1-2.1,2.7C94.8,17.6,95.5,18.7,96.9,18.7z"/>
		<path class="st0" d="M105.6,12c0.3,0,0.6,0,0.8,0.1c0.1,0.2,0.2,0.5,0.2,0.8c0,0.3,0,0.4-0.1,0.6c-0.2-0.1-0.6-0.2-0.9-0.2
			c-0.9,0-1.6,0.6-1.9,1.7v4.5c-0.1,0.1-0.3,0.1-0.6,0.1s-0.5,0-0.7-0.1v-7.1c0.3-0.1,0.6-0.2,1.1-0.2l0.1,1.3h0.1
			C103.9,12.6,104.4,12,105.6,12z"/>
		<path class="st0" d="M109.6,19.8c-1,0-1.5-0.6-1.5-1.8V8.8c0.3-0.2,0.8-0.3,1.3-0.3v9.3c0,0.7,0.2,0.8,0.7,0.8
			c0.4,0,0.7-0.1,0.9-0.3c0,0.4-0.1,1-0.3,1.2C110.4,19.7,110,19.8,109.6,19.8z"/>
		<path class="st0" d="M117.1,8.8c0.3-0.2,0.8-0.3,1.3-0.3v10.9c-0.3,0.1-0.6,0.2-1,0.2l-0.2-0.9h-0.1c-0.4,0.6-1.2,1-2.2,1
			c-1.8,0-3.1-1.2-3.1-3.7c0-2.7,1.4-4.1,3.7-4.1c0.6,0,1.2,0.1,1.5,0.3V8.8z M117.1,13.4c-0.3-0.2-0.8-0.2-1.3-0.2
			c-1.9,0-2.6,1.2-2.6,2.9c0,1.7,0.7,2.5,2.1,2.5c0.9,0,1.4-0.4,1.8-0.8V13.4z"/>
		<path class="st0" d="M129.7,16.5h-4.4l-1,2.9c-0.2,0.1-0.4,0.1-0.7,0.1c-0.3,0-0.6,0-0.7-0.1l3.8-10.4c0.2-0.1,0.5-0.1,0.8-0.1
			c0.3,0,0.7,0,0.8,0.1l3.8,10.4c-0.1,0.1-0.4,0.1-0.7,0.1c-0.4,0-0.6,0-0.7-0.1L129.7,16.5z M129.3,15.4l-0.8-2.2
			c-0.4-1.1-0.7-2.1-1-3.2h-0.1c-0.2,1-0.6,2.2-1,3.2l-0.8,2.3H129.3z"/>
		<path class="st0" d="M135.6,18.7c1,0,1.5-0.4,1.5-1c0-1.7-3.6-1.1-3.6-3.5c0-1.4,0.9-2.1,2.4-2.1c0.7,0,1.4,0.1,1.9,0.5
			c0.2,0.3,0.3,0.9,0.2,1.3c-0.6-0.5-1.3-0.7-2.1-0.7c-0.9,0-1.2,0.3-1.2,0.9c0,1.5,3.6,1,3.6,3.5c0,1.7-1.2,2.3-2.8,2.3
			c-0.8,0-1.6-0.1-2.2-0.5c-0.2-0.3-0.3-1-0.2-1.4C133.8,18.4,134.8,18.7,135.6,18.7z"/>
		<path class="st0" d="M142.2,18.7c1,0,1.5-0.4,1.5-1c0-1.7-3.6-1.1-3.6-3.5c0-1.4,0.9-2.1,2.4-2.1c0.7,0,1.4,0.1,1.9,0.5
			c0.2,0.3,0.3,0.9,0.2,1.3c-0.6-0.5-1.3-0.7-2.1-0.7c-0.9,0-1.2,0.3-1.2,0.9c0,1.5,3.6,1,3.6,3.5c0,1.7-1.2,2.3-2.8,2.3
			c-0.8,0-1.6-0.1-2.2-0.5c-0.2-0.3-0.3-1-0.2-1.4C140.4,18.4,141.4,18.7,142.2,18.7z"/>
		<path class="st0" d="M153.4,15.8c0,2.6-1.3,4-3.4,4c-2.2,0-3.4-1.3-3.4-4c0-2.4,1.4-3.8,3.4-3.8S153.4,13.3,153.4,15.8z
			 M149.9,18.7c1.4,0,2.1-1.1,2.1-2.9c0-1.6-0.8-2.7-2.1-2.7c-1.4,0-2.1,1-2.1,2.7C147.8,17.6,148.5,18.7,149.9,18.7z"/>
		<path class="st0" d="M158.7,18.6c0.8,0,1.4-0.2,2-0.6c0,0.4-0.1,1-0.4,1.3c-0.5,0.3-1.2,0.5-2,0.5c-2.2,0-3.5-1.5-3.5-3.9
			c0-2.7,1.6-4,3.6-4c0.8,0,1.4,0.2,1.9,0.5c0.2,0.3,0.3,0.9,0.2,1.3c-0.6-0.4-1.1-0.5-1.8-0.5c-1.5,0-2.5,0.8-2.5,2.7
			C156.1,17.7,157.1,18.6,158.7,18.6z"/>
		<path class="st0" d="M164.1,9.7c0,0.6-0.3,0.9-0.9,0.9c-0.6,0-0.9-0.3-0.9-0.9c0-0.5,0.4-0.9,0.9-0.9
			C163.8,8.9,164.1,9.2,164.1,9.7z M162.6,12.4c0.1-0.1,0.3-0.1,0.7-0.1c0.3,0,0.5,0,0.6,0.1v7.1c-0.1,0.1-0.3,0.1-0.6,0.1
			c-0.3,0-0.5,0-0.7-0.1V12.4z"/>
		<path class="st0" d="M170.3,19c-0.4,0.6-1.1,0.9-2.1,0.9c-1.3,0-2.4-0.6-2.4-2.2c0-1.8,1.3-2.5,3-2.5c0.5,0,1.1,0.1,1.5,0.2V15
			c0-1.2-0.5-1.8-1.7-1.8c-0.9,0-1.7,0.3-2.3,0.7c-0.1-0.4-0.1-1,0.1-1.3c0.5-0.3,1.4-0.5,2.4-0.5c1.8,0,2.7,0.8,2.7,2.8v3.3
			c0,0.4,0.2,0.6,0.5,0.6c0.3,0,0.6-0.1,0.7-0.2c0,0.4-0.1,0.9-0.3,1.1c-0.3,0.2-0.6,0.3-1,0.3C170.9,19.8,170.5,19.5,170.3,19
			L170.3,19z M170.3,16.4c-0.4-0.1-0.8-0.2-1.3-0.2c-1.2,0-1.9,0.6-1.9,1.4c0,0.8,0.6,1.1,1.4,1.1c0.6,0,1.4-0.2,1.8-0.8V16.4z"/>
		<path class="st0" d="M174.3,12.3v-1.6c0.3-0.3,0.8-0.4,1.3-0.4v2.1h2.2c0.1,0.1,0.1,0.3,0.1,0.6s0,0.5-0.1,0.6h-2.2v3.9
			c0,0.8,0.2,1.3,1.1,1.3c0.5,0,1-0.2,1.4-0.5c0.1,0.5-0.1,1.1-0.3,1.3c-0.4,0.3-0.9,0.4-1.5,0.4c-1.4,0-2-0.8-2-2.3v-4h-1.1
			c0-0.4,0.1-0.9,0.2-1.2H174.3z"/>
		<path class="st0" d="M181.3,9.7c0,0.6-0.3,0.9-0.9,0.9c-0.6,0-0.9-0.3-0.9-0.9c0-0.5,0.4-0.9,0.9-0.9
			C180.9,8.9,181.3,9.2,181.3,9.7z M179.7,12.4c0.1-0.1,0.3-0.1,0.7-0.1c0.3,0,0.5,0,0.6,0.1v7.1c-0.1,0.1-0.3,0.1-0.6,0.1
			c-0.3,0-0.5,0-0.7-0.1V12.4z"/>
		<path class="st0" d="M189.9,15.8c0,2.6-1.3,4-3.4,4c-2.2,0-3.4-1.3-3.4-4c0-2.4,1.4-3.8,3.4-3.8S189.9,13.3,189.9,15.8z
			 M186.5,18.7c1.4,0,2.1-1.1,2.1-2.9c0-1.6-0.8-2.7-2.1-2.7c-1.4,0-2.1,1-2.1,2.7C184.4,17.6,185.1,18.7,186.5,18.7z"/>
		<path class="st0" d="M193.2,19.5c-0.1,0.1-0.3,0.1-0.6,0.1c-0.3,0-0.5,0-0.7-0.1v-7.1c0.3-0.1,0.6-0.2,1.1-0.2l0.1,1.1h0.1
			c0.3-0.7,1.1-1.3,2.5-1.3c1.2,0,2.5,0.4,2.5,2.9v4.6c-0.1,0.1-0.3,0.1-0.6,0.1c-0.3,0-0.5,0-0.7-0.1v-4.3c0-1.2-0.4-1.9-1.6-1.9
			c-1.1,0-1.7,0.6-2,1.2V19.5z"/>
		<path class="st0" d="M86.8,34.8c0,2.6-1.3,4-3.4,4c-2.2,0-3.4-1.3-3.4-4c0-2.4,1.4-3.8,3.4-3.8S86.8,32.3,86.8,34.8z M83.4,37.7
			c1.4,0,2.1-1.1,2.1-2.9c0-1.7-0.8-2.7-2.1-2.7c-1.4,0-2.1,1-2.1,2.7C81.3,36.6,82,37.7,83.4,37.7z"/>
		<path class="st0" d="M89.1,31.3v-1.2c0-2.1,1-2.8,2.4-2.8c0.6,0,1.1,0.1,1.5,0.4c0.2,0.3,0.3,0.9,0.2,1.3
			c-0.5-0.4-0.9-0.5-1.4-0.5c-1,0-1.4,0.6-1.4,1.5v1.3h2c0.1,0.1,0.1,0.3,0.1,0.6c0,0.3,0,0.5-0.1,0.6h-2v6
			c-0.1,0.1-0.3,0.1-0.6,0.1s-0.5,0-0.7-0.1v-6H88c0-0.5,0.1-0.9,0.2-1.2H89.1z"/>
		<path class="st0" d="M101.3,38.9c-3.2,0-5.1-2-5.1-5.4c0-3.7,2.2-5.7,5.4-5.7c1,0,1.9,0.2,2.5,0.5c0.2,0.3,0.3,0.9,0.3,1.3
			c-0.8-0.4-1.7-0.6-2.7-0.6c-2.4,0-4.2,1.3-4.2,4.4c0,2.9,1.6,4.2,3.8,4.2c0.8,0,1.6-0.2,2.1-0.4V34h-2.6c0-0.1-0.1-0.3-0.1-0.6
			c0-0.3,0-0.5,0.1-0.6h3.9v5.2C104,38.5,102.6,38.9,101.3,38.9z"/>
		<path class="st0" d="M108.6,28.7c0,0.6-0.3,0.9-0.9,0.9c-0.6,0-0.9-0.3-0.9-0.9c0-0.5,0.4-0.9,0.9-0.9
			C108.3,27.9,108.6,28.2,108.6,28.7z M107.1,31.4c0.1-0.1,0.3-0.1,0.7-0.1s0.5,0,0.6,0.1v7.1c-0.1,0.1-0.3,0.1-0.6,0.1
			s-0.5,0-0.7-0.1V31.4z"/>
		<path class="st0" d="M114.2,31c0.3,0,0.6,0,0.8,0.1c0.1,0.2,0.2,0.5,0.2,0.8c0,0.3,0,0.5-0.1,0.6c-0.2-0.1-0.6-0.2-0.9-0.2
			c-0.9,0-1.6,0.6-1.9,1.7v4.5c-0.1,0.1-0.3,0.1-0.6,0.1s-0.5,0-0.7-0.1v-7.1c0.3-0.1,0.6-0.2,1.1-0.2l0.1,1.3h0.1
			C112.5,31.6,113.1,31,114.2,31z"/>
		<path class="st0" d="M118.2,38.8c-1,0-1.5-0.6-1.5-1.8v-9.3c0.3-0.2,0.8-0.3,1.3-0.3v9.3c0,0.7,0.2,0.8,0.7,0.8
			c0.4,0,0.7-0.1,0.9-0.3c0,0.4-0.1,1-0.3,1.2C119.1,38.7,118.7,38.8,118.2,38.8z"/>
		<path class="st0" d="M131.6,38.9c-3.2,0-5.1-2-5.1-5.4c0-3.7,2.2-5.7,5.4-5.7c1,0,1.9,0.2,2.5,0.5c0.2,0.3,0.3,0.9,0.3,1.3
			c-0.8-0.4-1.7-0.6-2.7-0.6c-2.4,0-4.2,1.3-4.2,4.4c0,2.9,1.6,4.2,3.8,4.2c0.8,0,1.6-0.2,2.1-0.4V34h-2.6c0-0.1-0.1-0.3-0.1-0.6
			c0-0.3,0-0.5,0.1-0.6h3.9v5.2C134.3,38.5,133,38.9,131.6,38.9z"/>
		<path class="st0" d="M142.3,37.7c-0.3,0.5-0.9,1.1-2.4,1.1c-1.2,0-2.5-0.4-2.5-2.9v-4.5c0.3-0.2,0.8-0.3,1.3-0.3v4.5
			c0,1.2,0.4,1.9,1.6,1.9c1,0,1.6-0.4,2-0.9v-5.3c0.1-0.1,0.3-0.1,0.7-0.1s0.5,0,0.6,0.1v7.1c-0.2,0.1-0.6,0.2-1,0.2L142.3,37.7
			L142.3,37.7z"/>
		<path class="st0" d="M147.6,28.7c0,0.6-0.3,0.9-0.9,0.9c-0.6,0-0.9-0.3-0.9-0.9c0-0.5,0.4-0.9,0.9-0.9
			C147.2,27.9,147.6,28.2,147.6,28.7z M146.1,31.4c0.1-0.1,0.3-0.1,0.7-0.1s0.5,0,0.6,0.1v7.1c-0.1,0.1-0.3,0.1-0.6,0.1
			s-0.5,0-0.7-0.1V31.4z"/>
		<path class="st0" d="M154.6,27.8c0.3-0.2,0.8-0.3,1.3-0.3v10.9c-0.3,0.1-0.6,0.2-1,0.2l-0.2-0.9h-0.1c-0.5,0.6-1.2,1-2.2,1
			c-1.8,0-3.1-1.2-3.1-3.7c0-2.7,1.4-4.1,3.7-4.1c0.6,0,1.2,0.1,1.5,0.3V27.8z M154.6,32.4c-0.3-0.2-0.8-0.2-1.3-0.2
			c-1.9,0-2.6,1.2-2.6,2.9c0,1.7,0.7,2.5,2.1,2.5c0.9,0,1.4-0.4,1.8-0.8V32.4z"/>
		<path class="st0" d="M159.2,35.3c0.1,1.6,1.1,2.3,2.7,2.3c0.9,0,1.7-0.2,2.3-0.6c0,0.4-0.1,1-0.3,1.2c-0.5,0.3-1.2,0.5-2.2,0.5
			c-2.4,0-3.7-1.5-3.7-3.8c0-2.3,1.3-4,3.6-4c2,0,2.9,1.3,2.9,3.1c0,0.5-0.1,0.9-0.2,1.2H159.2z M163,34.2c0.1-1-0.2-2.1-1.7-2.1
			c-1.3,0-2,0.8-2.1,2.1H163z"/>
		<path class="st0" d="M168.2,37.7c1,0,1.5-0.4,1.5-1c0-1.7-3.6-1.1-3.6-3.5c0-1.4,0.9-2.1,2.4-2.1c0.7,0,1.4,0.1,2,0.5
			c0.2,0.3,0.3,0.9,0.2,1.3c-0.6-0.5-1.3-0.7-2.1-0.7c-0.9,0-1.2,0.3-1.2,0.9c0,1.5,3.6,1,3.6,3.5c0,1.7-1.2,2.3-2.8,2.3
			c-0.8,0-1.6-0.1-2.2-0.5c-0.2-0.3-0.3-1-0.2-1.4C166.4,37.4,167.4,37.7,168.2,37.7z"/>
		<path class="st0" d="M84.4,57c-0.4,0.6-1.1,0.9-2.1,0.9c-1.3,0-2.4-0.6-2.4-2.2c0-1.8,1.3-2.5,3-2.5c0.5,0,1.1,0.1,1.5,0.2V53
			c0-1.2-0.5-1.8-1.7-1.8c-0.9,0-1.7,0.3-2.3,0.7c-0.1-0.4-0.1-1,0.2-1.3c0.5-0.3,1.4-0.5,2.4-0.5c1.8,0,2.7,0.8,2.7,2.8v3.3
			c0,0.4,0.2,0.6,0.5,0.6c0.3,0,0.6-0.1,0.7-0.2c0,0.4-0.1,0.9-0.3,1.1c-0.3,0.1-0.6,0.3-1,0.3C85,57.8,84.6,57.5,84.4,57L84.4,57z
			 M84.4,54.4c-0.4-0.1-0.8-0.2-1.3-0.2c-1.2,0-1.9,0.6-1.9,1.3c0,0.8,0.6,1.1,1.4,1.1c0.6,0,1.4-0.2,1.8-0.8V54.4z"/>
		<path class="st0" d="M89.6,57.5c-0.1,0.1-0.3,0.1-0.6,0.1s-0.5,0-0.7-0.1v-7.1c0.3-0.1,0.6-0.2,1.1-0.2l0.1,1.1h0.1
			c0.3-0.7,1.1-1.3,2.5-1.3c1.2,0,2.5,0.4,2.5,2.8v4.6c-0.1,0.1-0.3,0.1-0.6,0.1c-0.3,0-0.5,0-0.7-0.1v-4.3c0-1.2-0.4-1.9-1.6-1.9
			c-1.1,0-1.7,0.6-2,1.2V57.5z"/>
		<path class="st0" d="M101.6,46.8c0.3-0.2,0.8-0.3,1.3-0.3v10.9c-0.3,0.1-0.6,0.2-1,0.2l-0.2-0.9h-0.1c-0.4,0.6-1.2,1-2.2,1
			c-1.8,0-3.1-1.2-3.1-3.7c0-2.7,1.4-4.1,3.7-4.1c0.6,0,1.2,0.1,1.5,0.3V46.8z M101.6,51.4c-0.3-0.2-0.8-0.2-1.3-0.2
			c-1.9,0-2.6,1.2-2.6,2.9c0,1.7,0.7,2.5,2.1,2.5c0.9,0,1.4-0.4,1.8-0.8V51.4z"/>
		<path class="st0" d="M113,57.9c-3.2,0-5.1-2-5.1-5.4c0-3.7,2.2-5.7,5.4-5.7c1,0,1.9,0.2,2.5,0.5c0.2,0.3,0.3,0.9,0.3,1.3
			c-0.8-0.4-1.7-0.6-2.7-0.6c-2.4,0-4.2,1.3-4.2,4.4c0,2.9,1.6,4.2,3.8,4.2c0.8,0,1.6-0.2,2.1-0.4V53h-2.6c0-0.1-0.1-0.3-0.1-0.6
			c0-0.3,0-0.5,0.1-0.6h3.9v5.2C115.8,57.5,114.4,57.9,113,57.9z"/>
		<path class="st0" d="M120.4,47.7c0,0.6-0.3,0.9-0.9,0.9c-0.6,0-0.9-0.3-0.9-0.9c0-0.5,0.4-0.9,0.9-0.9
			C120.1,46.9,120.4,47.2,120.4,47.7z M118.9,50.4c0.1-0.1,0.3-0.1,0.7-0.1s0.5,0,0.6,0.1v7.1c-0.1,0.1-0.3,0.1-0.6,0.1
			s-0.5,0-0.7-0.1V50.4z"/>
		<path class="st0" d="M126,50c0.3,0,0.6,0,0.8,0.1c0.1,0.2,0.2,0.5,0.2,0.8c0,0.3,0,0.5-0.1,0.6c-0.2-0.1-0.6-0.2-0.9-0.2
			c-0.9,0-1.6,0.6-1.9,1.7v4.5c-0.1,0.1-0.3,0.1-0.6,0.1s-0.5,0-0.7-0.1v-7.1c0.3-0.1,0.6-0.2,1.1-0.2l0.1,1.3h0.1
			C124.3,50.6,124.9,50,126,50z"/>
		<path class="st0" d="M130,57.8c-1,0-1.5-0.6-1.5-1.8v-9.3c0.3-0.2,0.8-0.3,1.3-0.3v9.3c0,0.7,0.2,0.8,0.7,0.8
			c0.4,0,0.7-0.1,0.9-0.3c0,0.4-0.1,1-0.3,1.2C130.9,57.7,130.5,57.8,130,57.8z"/>
		<path class="st0" d="M138.5,56.6c1.6,0,2.4-0.7,2.4-1.8c0-2.8-5.3-1.5-5.3-5.2c0-1.8,1.2-2.9,3.3-2.9c1,0,1.8,0.2,2.6,0.7
			c0.2,0.3,0.3,1,0.3,1.5C141,48.4,140,48,139,48c-1.3,0-2,0.6-2,1.5c0,2.6,5.3,1.5,5.3,5.2c0,2.4-1.7,3.2-3.7,3.2
			c-1.2,0-2.2-0.3-3-0.7c-0.2-0.4-0.3-1-0.3-1.5C136.1,56.3,137.4,56.6,138.5,56.6z"/>
		<path class="st0" d="M147.6,56.6c0.8,0,1.4-0.2,2-0.6c0,0.4-0.1,1-0.4,1.3c-0.5,0.3-1.2,0.5-2,0.5c-2.2,0-3.5-1.5-3.5-3.9
			c0-2.7,1.6-4,3.6-4c0.8,0,1.4,0.2,1.9,0.4c0.2,0.3,0.3,0.9,0.2,1.3c-0.6-0.4-1.1-0.5-1.8-0.5c-1.5,0-2.5,0.8-2.5,2.7
			C145,55.7,146,56.6,147.6,56.6z"/>
		<path class="st0" d="M157.8,53.8c0,2.6-1.3,4-3.4,4c-2.2,0-3.4-1.3-3.4-4c0-2.4,1.3-3.8,3.4-3.8S157.8,51.3,157.8,53.8z
			 M154.3,56.7c1.4,0,2.1-1.1,2.1-2.9c0-1.7-0.8-2.7-2.1-2.7c-1.4,0-2.1,1-2.1,2.7C152.2,55.6,152.9,56.7,154.3,56.7z"/>
		<path class="st0" d="M164.6,56.7c-0.3,0.5-0.9,1.1-2.4,1.1c-1.2,0-2.5-0.4-2.5-2.9v-4.5c0.3-0.2,0.8-0.3,1.3-0.3v4.5
			c0,1.2,0.4,1.9,1.6,1.9c1,0,1.6-0.4,2-0.9v-5.3c0.1-0.1,0.3-0.1,0.7-0.1c0.3,0,0.5,0,0.6,0.1v7.1c-0.2,0.1-0.6,0.2-1,0.2
			L164.6,56.7L164.6,56.7z"/>
		<path class="st0" d="M168.6,50.3v-1.7c0.3-0.3,0.8-0.4,1.3-0.4v2.1h2.2c0.1,0.1,0.1,0.3,0.1,0.6c0,0.3,0,0.5-0.1,0.6h-2.2v3.9
			c0,0.8,0.2,1.3,1.1,1.3c0.4,0,1-0.2,1.4-0.5c0.1,0.5-0.1,1.1-0.3,1.3c-0.4,0.3-0.9,0.4-1.5,0.4c-1.4,0-2-0.8-2-2.3v-4h-1.1
			c0-0.5,0.1-0.9,0.2-1.2H168.6z"/>
		<path class="st0" d="M175.9,56.7c1,0,1.5-0.4,1.5-1c0-1.7-3.6-1.1-3.6-3.5c0-1.4,0.9-2.1,2.4-2.1c0.7,0,1.4,0.1,1.9,0.5
			c0.2,0.3,0.3,0.9,0.2,1.3c-0.6-0.5-1.3-0.7-2.1-0.7c-0.9,0-1.2,0.3-1.2,0.9c0,1.5,3.6,1,3.6,3.5c0,1.7-1.2,2.3-2.8,2.3
			c-0.8,0-1.6-0.1-2.2-0.5c-0.2-0.3-0.3-1-0.2-1.4C174.1,56.4,175.1,56.7,175.9,56.7z"/>
	</g>
</g>
</svg>
