<?xml version="1.0" encoding="utf-8"?>
<!-- Generator: Adobe Illustrator 19.1.0, SVG Export Plug-In . SVG Version: 6.00 Build 0)  -->
<svg version="1.1" id="Layer_1" xmlns="http://www.w3.org/2000/svg" xmlns:xlink="http://www.w3.org/1999/xlink" x="0px" y="0px"
	 viewBox="0 0 127 47.3" style="enable-background:new 0 0 127 47.3;" xml:space="preserve">
<style type="text/css">
	.st0{fill:#FFFFFF;}
</style>
<g>
	<path class="st0" d="M44.4,3.1c0,0.2,0,0.5-0.1,0.8c-0.1,0.3-0.2,0.8-0.3,1.4l-7.3,24.6c-0.1,0.3-0.2,0.6-0.4,0.8
		c-0.2,0.2-0.4,0.4-0.7,0.5c-0.3,0.1-0.8,0.2-1.4,0.2c-0.6,0-1.4,0.1-2.4,0.1c-1,0-1.8,0-2.4-0.1c-0.6-0.1-1.1-0.1-1.5-0.3
		c-0.4-0.1-0.6-0.3-0.8-0.5c-0.2-0.2-0.3-0.5-0.4-0.8l-4.6-16.5L22,13.1L22,13.4l-4.2,16.5c-0.1,0.3-0.2,0.6-0.4,0.8
		c-0.2,0.2-0.4,0.4-0.8,0.5c-0.4,0.1-0.9,0.2-1.5,0.2c-0.6,0-1.4,0.1-2.4,0.1c-1,0-1.8,0-2.5-0.1c-0.6-0.1-1.1-0.1-1.5-0.3
		C8.4,31.1,8.2,31,8,30.7c-0.2-0.2-0.3-0.5-0.4-0.8L0.4,5.3C0.2,4.7,0.1,4.3,0.1,3.9C0,3.6,0,3.3,0,3.1c0-0.2,0.1-0.4,0.2-0.5
		c0.1-0.2,0.3-0.3,0.6-0.4C1.1,2.1,1.5,2,2,2c0.5,0,1.1-0.1,1.9-0.1c0.8,0,1.5,0,2,0.1C6.3,2,6.7,2.1,7,2.2c0.3,0.1,0.5,0.2,0.6,0.4
		C7.7,2.8,7.8,3,7.9,3.2l5.4,20l0.1,0.4l0.1-0.4l5.1-20c0.1-0.2,0.2-0.5,0.3-0.6c0.1-0.2,0.3-0.3,0.6-0.4C19.6,2.1,20,2,20.5,2
		c0.5,0,1.1-0.1,1.8-0.1c0.8,0,1.4,0,1.8,0.1c0.5,0.1,0.8,0.1,1.1,0.2c0.3,0.1,0.5,0.2,0.6,0.4c0.1,0.2,0.2,0.3,0.3,0.5l5.4,20.1
		l0.1,0.3l0.1-0.4l5.2-20c0-0.2,0.1-0.5,0.2-0.6c0.1-0.2,0.3-0.3,0.6-0.4C38,2.1,38.4,2,38.9,2c0.5,0,1.1-0.1,1.9-0.1
		c0.8,0,1.4,0,1.8,0.1c0.5,0,0.9,0.1,1.1,0.2c0.3,0.1,0.5,0.2,0.6,0.4C44.4,2.7,44.4,2.9,44.4,3.1z"/>
	<path class="st0" d="M65.7,5.7c0,0.7,0,1.3-0.1,1.8c0,0.5-0.1,0.8-0.2,1.1c-0.1,0.3-0.2,0.4-0.3,0.5c-0.1,0.1-0.3,0.2-0.5,0.2
		c-0.2,0-0.3,0-0.5-0.1C63.8,9.1,63.6,9,63.4,9c-0.3-0.1-0.5-0.2-0.8-0.2c-0.3-0.1-0.6-0.1-1-0.1c-0.4,0-0.9,0.1-1.3,0.3
		c-0.4,0.2-0.9,0.4-1.3,0.8c-0.5,0.4-0.9,0.9-1.4,1.5c-0.5,0.6-1,1.4-1.6,2.3v17c0,0.2-0.1,0.4-0.2,0.5c-0.1,0.2-0.3,0.3-0.6,0.4
		c-0.3,0.1-0.7,0.2-1.2,0.2c-0.5,0.1-1.1,0.1-1.9,0.1c-0.8,0-1.4,0-1.9-0.1c-0.5-0.1-0.9-0.1-1.2-0.2c-0.3-0.1-0.5-0.2-0.6-0.4
		c-0.1-0.2-0.2-0.3-0.2-0.5V3.2c0-0.2,0.1-0.4,0.2-0.5c0.1-0.2,0.3-0.3,0.5-0.4c0.3-0.1,0.6-0.2,1-0.2c0.4-0.1,0.9-0.1,1.6-0.1
		c0.7,0,1.2,0,1.6,0.1c0.4,0.1,0.8,0.1,1,0.2c0.2,0.1,0.4,0.2,0.5,0.4c0.1,0.2,0.2,0.3,0.2,0.5v3.4c0.7-1,1.4-1.9,2-2.5
		c0.6-0.7,1.2-1.2,1.8-1.6c0.6-0.4,1.1-0.7,1.7-0.8c0.6-0.2,1.1-0.2,1.7-0.2c0.3,0,0.5,0,0.9,0c0.3,0,0.6,0.1,0.9,0.2
		c0.3,0.1,0.6,0.2,0.9,0.2C64.9,2,65,2.1,65.2,2.2c0.1,0.1,0.2,0.2,0.2,0.3c0.1,0.1,0.1,0.3,0.1,0.5c0,0.2,0.1,0.5,0.1,1
		C65.6,4.4,65.7,5,65.7,5.7z"/>
	<g>
		<path class="st0" d="M102.8,5.6c0.1-0.1,0.4-0.5,1-1.1V1.3c0-0.2-0.1-0.4-0.2-0.5c-0.1-0.2-0.3-0.3-0.6-0.4
			c-0.3-0.1-0.7-0.2-1.2-0.3C101.3,0,100.7,0,99.9,0c-0.8,0-1.4,0-1.9,0.1c-0.5,0.1-0.9,0.1-1.2,0.3c-0.3,0.1-0.5,0.2-0.6,0.4
			c-0.1,0.2-0.2,0.3-0.2,0.5v10.8V13L102.8,5.6z"/>
		<path class="st0" d="M69.2,9.2c0.1,0.3,0.3,0.5,0.4,0.6C69.8,9.9,70,10,70.2,10c0.3,0,0.7-0.1,1.3-0.4C72,9.3,72.6,9,73.4,8.6
			c0.8-0.3,1.7-0.7,2.7-0.9c1-0.3,2.2-0.4,3.4-0.4c1,0,1.8,0.1,2.5,0.3c0.7,0.2,1.2,0.5,1.6,0.9c0.4,0.4,0.7,1,0.9,1.6
			c0.2,0.6,0.2,0.4,0.2,1.3l0.2,4.6l0.7,8.3c1.1-0.9,1.8-1.6,1.8-1.6l4.9-5.4v-5.2c0-1.9-0.2-3.5-0.7-4.8c-0.4-1.4-1.2-2.5-2.1-3.3
			c-1-0.9-2.2-1.5-3.7-1.9c-1.5-0.4-3.3-0.6-5.5-0.6c-1.2,0-2.4,0.1-3.5,0.3c-1.1,0.2-2.2,0.4-3.1,0.7c-1,0.3-1.8,0.6-2.5,1
			c-0.7,0.4-1.2,0.7-1.5,1c-0.3,0.3-0.5,0.6-0.6,1c-0.1,0.4-0.2,0.9-0.2,1.5c0,0.5,0,0.9,0.1,1.3C69,8.6,69.1,8.9,69.2,9.2z"/>
		<path class="st0" d="M86.6,31.4c0.1,0,0.3,0.1,0.4,0.1c0.4,0.1,1.1,0.1,2,0.1c0.9,0,1.5,0,1.9-0.1c0.4-0.1,0.8-0.2,1-0.4
			c0.2-0.2,0.3-0.4,0.3-0.7v-3.6C90.1,28.8,88.2,30.3,86.6,31.4z"/>
		<path class="st0" d="M99.6,18.9c-1.2,1.5-2.4,2.9-3.5,4.1v23c0,0.2,0.1,0.4,0.2,0.5c0.1,0.2,0.3,0.3,0.6,0.4
			c0.3,0.1,0.7,0.2,1.2,0.3c0.5,0.1,1.1,0.1,1.9,0.1c0.8,0,1.4,0,1.9-0.1c0.5-0.1,0.9-0.1,1.2-0.3c0.3-0.1,0.5-0.2,0.6-0.4
			c0.1-0.2,0.2-0.3,0.2-0.5V33.2v-9.5v-9.8C102.7,15.2,101.3,16.8,99.6,18.9z"/>
	</g>
	<path class="st0" d="M83.7,15.8l-0.3-4.5c0,0-14.1-3.8-19.5,7.8c-2.5,5.4,0.3,11.1,4.2,13.5c4.4,2.7,10.2,1.7,10.2,1.7
		s8.3-0.7,20.8-16c5.6-6.9,7.9-9.1,7.9-9.1s2.9-3.7,8.2-3.5c5.3,0.1,7,6.1,7,7.9c0.1,1.8,0.4,8.9-7.7,10.9c0,0-6.7,0.8-9.3-1.2
		l0.2,5.2c0,0,6.7,2.7,13.3-0.5c5.8-2.8,8.2-7.8,8.3-14.2c0-6.3-5.7-13.2-13-12.9c-6.8,0.3-10.5,5.1-10.5,5.1L95,15.5l-7.1,7.9
		c0,0-6.4,6.8-13.1,6.4c-6.7-0.4-7.8-4.9-6.6-8.4C69.4,17.7,74,14,83.7,15.8z"/>
</g>
</svg>
