<?xml version="1.0" encoding="utf-8"?>
<!-- Generator: Adobe Illustrator 19.1.0, SVG Export Plug-In . SVG Version: 6.00 Build 0)  -->
<svg version="1.1" id="Layer_1" xmlns="http://www.w3.org/2000/svg" xmlns:xlink="http://www.w3.org/1999/xlink" x="0px" y="0px"
	 viewBox="0 0 75.2 112.7" style="enable-background:new 0 0 75.2 112.7;" xml:space="preserve">
<style type="text/css">
	.st0{fill:#FFFFFF;}
</style>
<g>
	<path class="st0" d="M26.3,92.2c-0.7,0-1.3,0.4-1.5,1l-3,7.7l-0.3,0.9l-0.2-0.9l-2.3-7.5c0,0,0-0.1,0-0.1l0,0l0,0
		c-0.2-0.6-0.8-1.1-1.5-1.1l0,0h-3.8v0c-0.8,0-1.5,0.7-1.5,1.6c0,0.2,0.1,0.5,0.2,0.8l0.5,1.6l-1.9,4.7l-0.3,0.9l-0.2-0.9L8,93.4
		c0,0,0-0.1,0-0.1l0,0c-0.2-0.6-0.8-1.1-1.5-1.1l0,0H2.7v0c-0.8,0-1.5,0.7-1.5,1.6c0,0.2,0.1,0.5,0.2,0.8L7,111.5
		c0.2,0.7,0.8,1.2,1.5,1.2c0.7,0,1.3-0.5,1.5-1.1l4-10l0.3-0.9l0.2,0.9l3.3,9.9c0.2,0.7,0.8,1.2,1.5,1.2c0.7,0,1.3-0.5,1.5-1.2
		l6.7-17.1c0.1-0.2,0.2-0.4,0.2-0.7C27.9,92.9,27.1,92.2,26.3,92.2L26.3,92.2z"/>
	<path class="st0" d="M54.5,92.2c-0.7,0-1.3,0.4-1.5,1l-3,7.7l-0.3,0.9l-0.2-0.9l-2.3-7.5c0,0,0-0.1,0-0.1l0,0l0,0
		c-0.2-0.6-0.8-1.1-1.5-1.1l0,0h-3.8v0c-0.8,0-1.5,0.7-1.5,1.6c0,0.2,0.1,0.5,0.2,0.8l0.5,1.6l-1.9,4.7l-0.3,0.9l-0.2-0.9l-2.3-7.5
		c0,0,0-0.1,0-0.1l0,0c-0.2-0.6-0.8-1.1-1.5-1.1l0,0h-3.8v0c-0.8,0-1.5,0.7-1.5,1.6c0,0.2,0.1,0.5,0.2,0.8l5.7,16.9
		c0.2,0.7,0.8,1.2,1.5,1.2c0.7,0,1.3-0.5,1.5-1.1l4-10l0.3-0.9l0.2,0.9l3.3,9.9c0.2,0.7,0.8,1.2,1.5,1.2c0.7,0,1.3-0.5,1.5-1.2
		l6.7-17.1c0.1-0.2,0.2-0.4,0.2-0.7C56.1,92.9,55.4,92.2,54.5,92.2L54.5,92.2z"/>
	<path class="st0" d="M72.8,92.2c0,0-13.2,0-13.2,0l0,0c-0.8,0-1.4,0.6-1.4,1.4c0,0,0,0,0,0l0,0c0,0,0,1.4,0,3.3
		c0,4.8,0,14.2,0,14.2c0,0,0,0,0,0l0,0c0,0.8,0.7,1.4,1.5,1.4l0,0c2.4,0,3.7,0,3.7,0l0,0c0.8,0,1.5-0.7,1.5-1.5c0,0.1,0-8.2,0-8.2
		s5.4,0,5.4,0c0.8,0,1.4-0.7,1.4-1.5c0-0.8-0.7-1.5-1.5-1.5c0,0-5.4,0-5.4,0l0-4.7c0,0,8,0,8,0c0.8,0,1.5-0.7,1.5-1.6
		C74.4,92.9,73.7,92.2,72.8,92.2L72.8,92.2z"/>
	<path class="st0" d="M52.3,36.2c2.4,2.7,2.7,10.7,8.7,7.5c3.6-1.9,3.6-10-1.3-12.9c-3.9-2.3-6.1,0.8-7.5,4.6
		C52.1,35.7,52.1,36,52.3,36.2L52.3,36.2z"/>
	<path class="st0" d="M42.9,34.9c-2.5,2.1-4.2,7.8-8.9,5.9c-3.8-1.9-4.1-9.4,2.4-12.8c4.5-2.1,6.8,2,6.8,6.4
		C43.2,34.5,43,34.7,42.9,34.9L42.9,34.9z"/>
	<path class="st0" d="M49.1,49.5c2.5-0.3,1.9-2.6,0-3.1c-1.7-0.5-4.3-0.8-6.1-0.8c-3.2,0.1-3.1,2.5-1.5,2.9c1.3,0.4,2.1,0.6,3.2,2
		C45.8,52.5,45.4,49.9,49.1,49.5L49.1,49.5z"/>
	<path class="st0" d="M60.9,8c3.1-5.2,8.6-4.2,11.4-1.6c3,2.8,3.5,6.1,2.3,8.4C73,17.9,69,21.7,66.4,18c-1.2-1.6-3.6-3.5-4.9-4.1
		C59.4,13.1,59,11.3,60.9,8L60.9,8z"/>
	<path class="st0" d="M73.4,31.1c-0.3-0.9-0.7-0.9-0.7-0.1c0.3,9.5-5.4,19.7-17.6,19.8c-3.1,0-2.2,5-7.9,2.5
		c-4.1-2.8-6.4,2.7-9.3-3.2c-0.6-1.7-1.6-2.4-2.8-2.7c-12-3-15.9-19.5-5.3-32.9c2.1,1.3,2.9,1.4,5.1-0.6c1.2-1.1,3.1-2.3,4.2-2.7
		c2.5-1,3.9-2,1.7-6.9C38-2,32.2-0.2,29.5,2c-3,2.5-5.1,6.4-1.2,11.1c-10.8,7.3-12.6,16.2-12.4,24c0.2,8.2-1.9,7.5,0.8,15.9
		c0.2,0.7-0.3,0.7-0.7,0.5C4.8,46.3-1.3,24.4,16.2,12.3c0.4-0.3,0.2-0.8-1.2,0c-15.1,8-16.5,23.5-14,34c1.2,5.1-0.6,6,1.3,12.6
		c4.5,13.9,8.4,14.9,13.8,15.4c9.9,0,3.2-5.5,3.5-12.3c0-0.4,0.5-0.6,0.8,0.2c5.4,12.2,9.3,23.3,23.6,22.3c8.3-1.1,3.7-5.2,3.2-7.5
		c-6.1-20.2,8.7-25,4.5-5.3c-2.8,11.3,5.9,10.1,12.1,6.1C70.1,73.7,78,46.2,73.4,31.1L73.4,31.1z M49.4,55c-1.4,3.6-8.5,2.4-8.7-1.1
		c0-0.2,0.2-0.1,0.3-0.1c3.2,0.7,6.2,1.1,8.2,1.1C49.2,54.9,49.4,54.8,49.4,55L49.4,55z"/>
	<path class="st0" d="M17.6,79.5c0,1.5-1.2,2.6-2.6,2.6c-1.5,0-2.6-1.2-2.6-2.6s1.2-2.6,2.6-2.6C16.5,76.8,17.6,78,17.6,79.5z
		 M15,76.3c-1.8,0-3.2,1.4-3.2,3.2c0,1.7,1.4,3.2,3.2,3.2c1.7,0,3.2-1.4,3.2-3.2C18.2,77.7,16.7,76.3,15,76.3z"/>
	<path class="st0" d="M15.9,80c-0.1,0.4-0.4,0.7-0.8,0.7c-0.6,0-1-0.5-1-1.2c0-0.6,0.3-1.1,1-1.1c0.4,0,0.7,0.2,0.8,0.6h0.5
		c-0.1-0.7-0.6-1.1-1.3-1.1c-0.9,0-1.5,0.7-1.5,1.6c0,0.9,0.6,1.6,1.5,1.6c0.6,0,1.1-0.4,1.3-1.1H15.9z"/>
	<path class="st0" d="M73.4,87c0,1.5-1.2,2.6-2.6,2.6c-1.5,0-2.6-1.2-2.6-2.6c0-1.5,1.2-2.6,2.6-2.6C72.2,84.4,73.4,85.6,73.4,87z
		 M70.7,83.9c-1.8,0-3.2,1.4-3.2,3.2c0,1.7,1.4,3.2,3.2,3.2c1.7,0,3.2-1.4,3.2-3.2C73.9,85.3,72.5,83.9,70.7,83.9z"/>
	<path class="st0" d="M70.2,87.2h0.5l0.8,1.3H72l-0.9-1.3c0.4-0.1,0.8-0.3,0.8-0.8c0-0.6-0.3-0.8-1.1-0.8h-1.1v3h0.5V87.2z
		 M70.2,86.9v-0.9h0.6c0.3,0,0.7,0.1,0.7,0.4c0,0.5-0.3,0.5-0.7,0.5H70.2z"/>
</g>
</svg>
